<?xml version="1.0" encoding="UTF-8" standalone="no"?>
<!-- Created with Inkscape (http://www.inkscape.org/) -->

<svg
   xmlns:dc="http://purl.org/dc/elements/1.1/"
   xmlns:cc="http://creativecommons.org/ns#"
   xmlns:rdf="http://www.w3.org/1999/02/22-rdf-syntax-ns#"
   xmlns:svg="http://www.w3.org/2000/svg"
   xmlns="http://www.w3.org/2000/svg"
   xmlns:sodipodi="http://sodipodi.sourceforge.net/DTD/sodipodi-0.dtd"
   xmlns:inkscape="http://www.inkscape.org/namespaces/inkscape"
   version="1.1"
   id="svg2"
   xml:space="preserve"
   width="485"
   height="350"
   viewBox="0 0 485 350"
   sodipodi:docname="KIRC_MAF_ChiSq_plot.svg"
   inkscape:version="0.92.5 (2060ec1f9f, 2020-04-08)"><metadata
     id="metadata8"><rdf:RDF><cc:Work
         rdf:about=""><dc:format>image/svg+xml</dc:format><dc:type
           rdf:resource="http://purl.org/dc/dcmitype/StillImage" /><dc:title></dc:title></cc:Work></rdf:RDF></metadata><defs
     id="defs6"><clipPath
       clipPathUnits="userSpaceOnUse"
       id="clipPath62"><path
         d="M 53.66,42.44 H 374.4 V 257.93 H 53.66 Z"
         id="path60"
         inkscape:connector-curvature="0" /></clipPath></defs><sodipodi:namedview
     pagecolor="#ffffff"
     bordercolor="#666666"
     borderopacity="1"
     objecttolerance="10"
     gridtolerance="10"
     guidetolerance="10"
     inkscape:pageopacity="0"
     inkscape:pageshadow="2"
     inkscape:window-width="2486"
     inkscape:window-height="1376"
     id="namedview4"
     showgrid="false"
     inkscape:zoom="1"
     inkscape:cx="268.97107"
     inkscape:cy="172.80659"
     inkscape:window-x="74"
     inkscape:window-y="27"
     inkscape:window-maximized="1"
     inkscape:current-layer="g10" /><g
     id="g10"
     inkscape:groupmode="layer"
     inkscape:label="KIRC_MAF_ChiSq_plot"
     transform="matrix(1.3333333,0,0,-1.3333333,-19.028932,369.19341)"><g
       id="g16" /><g
       id="g18" /><g
       id="g20" /><g
       id="g22" /><g
       id="g24" /><g
       id="g26" /><g
       id="g28" /><g
       id="g30" /><g
       id="g32" /><g
       id="g34" /><g
       id="g36" /><g
       id="g38" /><g
       id="g40" /><g
       id="g42" /><g
       id="g44" /><g
       id="g46" /><g
       id="g48" /><g
       id="g54" /><g
       id="g56"
       transform="translate(3)"><g
         id="g58"
         clip-path="url(#clipPath62)"><path
           d="M 53.66,42.44 H 374.4 V 257.93 H 53.66 Z"
           style="fill:#ffffff;fill-opacity:1;fill-rule:nonzero;stroke:none"
           id="path64"
           inkscape:connector-curvature="0" /><path
           d="m 68.24,71.29 0.57,3.55 0.57,4.08 0.57,4.72 0.57,5.47 0.58,6.41 0.57,7.46 0.57,8.56 0.57,9.71 0.57,10.83 0.57,11.86 0.57,12.66 0.57,13.15 0.57,13.21 0.57,12.75 0.57,11.73 0.57,10.13 0.57,7.98 0.57,5.19 0.57,2.4 0.57,-0.38 0.57,-2.97 0.58,-5.19 0.57,-6.98 0.57,-8.25 0.57,-9.04 0.57,-9.39 0.57,-9.4 0.57,-9.15 0.57,-8.75 0.57,-8.25 0.57,-7.74 0.57,-7.27 0.57,-6.81 0.57,-6.36 0.57,-5.92 0.57,-5.47 0.57,-5 0.58,-4.53 0.57,-4.04 0.57,-3.57 0.57,-3.12 0.57,-2.7 0.57,-2.3 0.57,-2.01 0.57,-1.78 0.57,-1.64 0.57,-1.55 0.57,-1.53 0.57,-1.56 0.57,-1.62 0.57,-1.7 0.57,-1.78 0.57,-1.85 0.57,-1.88 0.58,-1.87 0.57,-1.78 0.57,-1.63 0.57,-1.41 0.57,-1.13 0.57,-0.8 0.57,-0.43 0.57,-0.04 0.57,0.33 0.57,0.7 0.57,1.01 0.57,1.25 0.57,1.43 0.57,1.52 0.57,1.49 0.57,1.37 0.58,1.2 0.57,0.95 0.57,0.66 0.57,0.35 0.57,0.04 0.57,-0.24 0.57,-0.49 0.57,-0.7 0.57,-0.86 0.57,-0.96 0.57,-1.05 0.57,-1.09 0.57,-1.13 0.57,-1.17 0.57,-1.21 0.57,-1.26 0.57,-1.28 0.58,-1.32 0.57,-1.31 0.57,-1.29 0.57,-1.23 0.57,-1.15 0.57,-1.02 0.57,-0.89 0.57,-0.74 0.57,-0.61 0.57,-0.47 0.57,-0.36 0.57,-0.27 0.57,-0.19 0.57,-0.13 0.57,-0.08 0.57,-0.06 0.58,-0.03 0.57,-0.02 0.57,-0.01 0.57,-0.01 h 0.57 0.57 0.57 0.57 0.57 0.57 0.57 0.57 0.57 0.57 0.57 0.57 0.57 0.58 0.57 0.57 0.57 0.57 0.57 0.57 0.57 0.57 0.57 0.57 0.57 0.57 l 0.57,0.01 0.57,0.01 0.57,0.02 0.57,0.03 0.58,0.05 0.57,0.07 0.57,0.12 0.57,0.16 0.57,0.23 0.57,0.32 0.57,0.42 0.57,0.52 0.57,0.62 0.57,0.7 0.57,0.76 0.57,0.78 0.57,0.74 0.57,0.65 0.57,0.51 0.57,0.32 0.58,0.11 0.57,-0.13 0.57,-0.36 0.57,-0.54 0.57,-0.68 0.57,-0.75 0.57,-0.78 0.57,-0.75 0.57,-0.69 0.57,-0.6 0.57,-0.5 0.57,-0.4 0.57,-0.31 0.57,-0.22 0.57,-0.16 0.57,-0.1 0.57,-0.07 0.58,-0.04 0.57,-0.01 h 0.57 l 0.57,0.02 0.57,0.05 0.57,0.07 0.57,0.12 0.57,0.17 0.57,0.23 0.57,0.32 0.57,0.43 0.57,0.52 0.57,0.63 0.57,0.71 0.57,0.76 0.57,0.77 0.58,0.74 0.57,0.64 0.57,0.5 0.57,0.31 0.57,0.09 0.57,-0.14 0.57,-0.36 0.57,-0.56 0.57,-0.68 0.57,-0.76 0.57,-0.78 0.57,-0.74 0.57,-0.69 0.57,-0.59 0.57,-0.5 0.57,-0.39 0.57,-0.3 0.58,-0.22 0.57,-0.16 0.57,-0.1 0.57,-0.07 0.57,-0.04 0.57,-0.03 0.57,-0.01 0.57,-0.01 0.57,-0.01 h 0.57 0.57 0.57 0.57 0.57 0.57 0.57 0.58 0.57 0.57 0.57 0.57 0.57 0.57 0.57 0.57 0.57 0.57 0.57 0.57 0.57 0.57 0.57 0.57 0.58 0.57 0.57 0.57 0.57 0.57 0.57 0.57 0.57 0.57 0.57 0.57 0.57 0.57 0.57 0.57 0.58 0.57 0.57 0.57 0.57 0.57 0.57 0.57 0.57 0.57 0.57 0.57 0.57 0.57 0.57 0.57 0.57 0.58 0.57 0.57 0.57 0.57 0.57 0.57 0.57 0.57 0.57 0.57 0.57 0.57 0.57 0.57 0.57 0.58 0.57 0.57 0.57 0.57 0.57 0.57 0.57 0.57 0.57 0.57 0.57 0.57 0.57 0.57 0.57 0.57 0.58 0.57 0.57 0.57 0.57 0.57 0.57 0.57 0.57 0.57 0.57 0.57 0.57 0.57 0.57 0.57 0.57 0.58 0.57 0.57 0.57 0.57 0.57 0.57 0.57 0.57 0.57 0.57 0.57 0.57 0.57 0.57 0.57 0.58 0.57 0.57 0.57 0.57 0.57 0.57 0.57 0.57 0.57 0.57 0.57 0.57 0.57 0.57 0.57 0.57 0.58 0.57 0.57 0.57 0.57 0.57 0.57 0.57 0.57 0.57 0.57 0.57 0.57 0.57 0.57 0.57 0.58 0.57 0.57 0.57 0.57 0.57 0.57 0.57 0.57 0.57 0.57 0.57 0.57 0.57 0.57 0.57 0.57 0.58 0.57 0.57 0.57 0.57 0.57 0.57 0.57 0.57 0.57 0.57 0.57 0.57 0.57 0.57 0.57 0.58 0.57 0.57 0.57 0.57 0.57 0.57 0.57 0.57 0.57 0.57 0.57 0.57 0.57 0.57 l 0.57,0.01 0.57,0.01 0.58,0.01 0.57,0.03 0.57,0.05 0.57,0.07 0.57,0.11 0.57,0.16 0.57,0.22 0.57,0.3 0.57,0.4 0.57,0.49 0.57,0.6 0.57,0.68 0.57,0.74 0.57,0.78 0.57,0.75 0.57,0.66 0.58,0.53 0.57,0.35 0.57,0.14 0.57,-0.08 0.57,-0.31 0.57,-0.49 0.57,-0.63 0.57,-0.74 0.57,-0.77 0.57,-0.76 0.57,-0.7 0.57,-0.62 0.57,-0.51 0.57,-0.42 0.57,-0.33 0.57,-0.24 0.57,-0.17 0.58,-0.12 0.57,-0.08 0.57,-0.05 0.57,-0.03 0.57,-0.02 0.57,-0.01 0.57,-0.01 h 0.57 0.57 0.57 0.57 0.57 0.57 0.57 0.57 0.57 0.58 0.57 0.57 0.57 0.57 0.57 0.57 0.57 0.57 0.57 0.57 0.57 0.57 0.57 0.57 0.57 0.57 0.58 0.57 0.57 0.57 0.57 0.57 l 0.57,0.01 0.57,0.01 0.57,0.02 0.57,0.02 0.57,0.05 0.57,0.08 0.57,0.11 0.57,0.17 0.57,0.23 0.57,0.32 0.58,0.4 0.57,0.51 0.57,0.61 0.57,0.69 0.57,0.75 0.57,0.77 0.57,0.75 0.57,0.65 0.57,0.51 0.57,0.33 0.57,0.11 v -7.1 h -0.57 -0.57 -0.57 -0.57 -0.57 -0.57 -0.57 -0.57 -0.57 -0.57 -0.58 -0.57 -0.57 -0.57 -0.57 -0.57 -0.57 -0.57 -0.57 -0.57 -0.57 -0.57 -0.57 -0.57 -0.57 -0.57 -0.58 -0.57 -0.57 -0.57 -0.57 -0.57 -0.57 -0.57 -0.57 -0.57 -0.57 -0.57 -0.57 -0.57 -0.57 -0.57 -0.57 -0.58 -0.57 -0.57 -0.57 -0.57 -0.57 -0.57 -0.57 -0.57 -0.57 -0.57 -0.57 -0.57 -0.57 -0.57 -0.57 -0.58 -0.57 -0.57 -0.57 -0.57 -0.57 -0.57 -0.57 -0.57 -0.57 -0.57 -0.57 -0.57 -0.57 -0.57 -0.57 -0.57 -0.58 -0.57 -0.57 -0.57 -0.57 -0.57 -0.57 -0.57 -0.57 -0.57 -0.57 -0.57 -0.57 -0.57 -0.57 -0.57 -0.58 -0.57 -0.57 -0.57 -0.57 -0.57 -0.57 -0.57 -0.57 -0.57 -0.57 -0.57 -0.57 -0.57 -0.57 -0.57 -0.57 -0.58 -0.57 -0.57 -0.57 -0.57 -0.57 -0.57 -0.57 -0.57 -0.57 -0.57 -0.57 -0.57 -0.57 -0.57 -0.57 -0.58 -0.57 -0.57 -0.57 -0.57 -0.57 -0.57 -0.57 -0.57 -0.57 -0.57 -0.57 -0.57 -0.57 -0.57 -0.57 -0.57 -0.58 -0.57 -0.57 -0.57 -0.57 -0.57 -0.57 -0.57 -0.57 -0.57 -0.57 -0.57 -0.57 -0.57 -0.57 -0.57 -0.58 -0.57 -0.57 -0.57 -0.57 -0.57 -0.57 -0.57 -0.57 -0.57 -0.57 -0.57 -0.57 -0.57 -0.57 -0.57 -0.57 -0.58 -0.57 -0.57 -0.57 -0.57 -0.57 -0.57 -0.57 -0.57 -0.57 -0.57 -0.57 -0.57 -0.57 -0.57 -0.57 -0.58 -0.57 -0.57 -0.57 -0.57 -0.57 -0.57 -0.57 -0.57 -0.57 -0.57 -0.57 -0.57 -0.57 -0.57 -0.57 -0.57 -0.58 -0.57 -0.57 -0.57 -0.57 -0.57 -0.57 -0.57 -0.57 -0.57 -0.57 -0.57 -0.57 -0.57 -0.57 -0.57 -0.57 -0.58 -0.57 -0.57 -0.57 -0.57 -0.57 -0.57 -0.57 -0.57 -0.57 -0.57 -0.57 -0.57 -0.57 -0.57 -0.57 -0.58 -0.57 -0.57 -0.57 -0.57 -0.57 -0.57 -0.57 -0.57 -0.57 -0.57 -0.57 -0.57 -0.57 -0.57 -0.57 -0.57 -0.58 -0.57 -0.57 -0.57 -0.57 -0.57 -0.57 -0.57 -0.57 -0.57 -0.57 -0.57 -0.57 -0.57 -0.57 -0.57 -0.58 -0.57 -0.57 -0.57 -0.57 -0.57 -0.57 -0.57 -0.57 -0.57 -0.57 -0.57 -0.57 -0.57 -0.57 -0.57 -0.57 -0.58 -0.57 -0.57 -0.57 -0.57 -0.57 -0.57 -0.57 -0.57 -0.57 -0.57 -0.57 -0.57 -0.57 -0.57 -0.57 -0.58 -0.57 -0.57 -0.57 -0.57 -0.57 -0.57 -0.57 -0.57 -0.57 -0.57 -0.57 -0.57 -0.57 -0.57 -0.57 -0.57 -0.58 -0.57 -0.57 -0.57 -0.57 -0.57 -0.57 -0.57 -0.57 -0.57 -0.57 -0.57 -0.57 -0.57 -0.57 -0.57 -0.58 -0.57 -0.57 -0.57 -0.57 -0.57 -0.57 -0.57 -0.57 -0.57 -0.57 -0.57 -0.57 -0.57 -0.57 -0.57 -0.57 -0.58 -0.57 -0.57 -0.57 -0.57 -0.57 -0.57 -0.57 -0.57 -0.57 -0.57 -0.57 -0.57 -0.57 -0.57 -0.57 -0.58 -0.57 -0.57 -0.57 -0.57 -0.57 -0.57 -0.57 -0.57 -0.57 -0.57 -0.57 -0.57 -0.57 -0.57 -0.57 -0.57 -0.58 -0.57 -0.57 -0.57 -0.57 -0.57 -0.57 -0.57 -0.57 -0.57 -0.57 -0.57 -0.57 -0.57 -0.57 -0.57 -0.57 -0.58 -0.57 -0.57 -0.57 -0.57 -0.57 -0.57 -0.57 -0.57 -0.57 -0.57 -0.57 -0.57 -0.57 -0.57 -0.57 -0.58 -0.57 -0.57 -0.57 -0.57 -0.57 -0.57 -0.57 -0.57 -0.57 -0.57 -0.57 -0.57 -0.57 -0.57 -0.57 -0.57 -0.58 -0.57 -0.57 -0.57 -0.57 -0.57 -0.57 -0.57 -0.57 -0.57 -0.57 -0.57 -0.57 -0.57 H 100.2 99.63 99.05 98.48 97.91 97.34 96.77 96.2 95.63 95.06 94.49 93.92 93.35 92.78 92.21 91.64 91.07 90.5 89.93 89.35 88.78 88.21 87.64 87.07 86.5 85.93 85.36 84.79 84.22 83.65 83.08 82.51 81.94 81.37 80.8 80.22 79.65 79.08 78.51 77.94 77.37 76.8 76.23 75.66 75.09 74.52 73.95 73.38 72.81 72.24 71.67 71.1 70.52 69.95 69.38 68.81 68.24 Z"
           style="fill:#ff0000;fill-opacity:0.25100002;fill-rule:nonzero;stroke:none"
           id="path66"
           inkscape:connector-curvature="0" /><path
           d="m 68.24,71.29 0.57,3.55 0.57,4.08 0.57,4.72 0.57,5.47 0.58,6.41 0.57,7.46 0.57,8.56 0.57,9.71 0.57,10.83 0.57,11.86 0.57,12.66 0.57,13.15 0.57,13.21 0.57,12.75 0.57,11.73 0.57,10.13 0.57,7.98 0.57,5.19 0.57,2.4 0.57,-0.38 0.57,-2.97 0.58,-5.19 0.57,-6.98 0.57,-8.25 0.57,-9.04 0.57,-9.39 0.57,-9.4 0.57,-9.15 0.57,-8.75 0.57,-8.25 0.57,-7.74 0.57,-7.27 0.57,-6.81 0.57,-6.36 0.57,-5.92 0.57,-5.47 0.57,-5 0.58,-4.53 0.57,-4.04 0.57,-3.57 0.57,-3.12 0.57,-2.7 0.57,-2.3 0.57,-2.01 0.57,-1.78 0.57,-1.64 0.57,-1.55 0.57,-1.53 0.57,-1.56 0.57,-1.62 0.57,-1.7 0.57,-1.78 0.57,-1.85 0.57,-1.88 0.58,-1.87 0.57,-1.78 0.57,-1.63 0.57,-1.41 0.57,-1.13 0.57,-0.8 0.57,-0.43 0.57,-0.04 0.57,0.33 0.57,0.7 0.57,1.01 0.57,1.25 0.57,1.43 0.57,1.52 0.57,1.49 0.57,1.37 0.58,1.2 0.57,0.95 0.57,0.66 0.57,0.35 0.57,0.04 0.57,-0.24 0.57,-0.49 0.57,-0.7 0.57,-0.86 0.57,-0.96 0.57,-1.05 0.57,-1.09 0.57,-1.13 0.57,-1.17 0.57,-1.21 0.57,-1.26 0.57,-1.28 0.58,-1.32 0.57,-1.31 0.57,-1.29 0.57,-1.23 0.57,-1.15 0.57,-1.02 0.57,-0.89 0.57,-0.74 0.57,-0.61 0.57,-0.47 0.57,-0.36 0.57,-0.27 0.57,-0.19 0.57,-0.13 0.57,-0.08 0.57,-0.06 0.58,-0.03 0.57,-0.02 0.57,-0.01 0.57,-0.01 h 0.57 0.57 0.57 0.57 0.57 0.57 0.57 0.57 0.57 0.57 0.57 0.57 0.57 0.58 0.57 0.57 0.57 0.57 0.57 0.57 0.57 0.57 0.57 0.57 0.57 0.57 l 0.57,0.01 0.57,0.01 0.57,0.02 0.57,0.03 0.58,0.05 0.57,0.07 0.57,0.12 0.57,0.16 0.57,0.23 0.57,0.32 0.57,0.42 0.57,0.52 0.57,0.62 0.57,0.7 0.57,0.76 0.57,0.78 0.57,0.74 0.57,0.65 0.57,0.51 0.57,0.32 0.58,0.11 0.57,-0.13 0.57,-0.36 0.57,-0.54 0.57,-0.68 0.57,-0.75 0.57,-0.78 0.57,-0.75 0.57,-0.69 0.57,-0.6 0.57,-0.5 0.57,-0.4 0.57,-0.31 0.57,-0.22 0.57,-0.16 0.57,-0.1 0.57,-0.07 0.58,-0.04 0.57,-0.01 h 0.57 l 0.57,0.02 0.57,0.05 0.57,0.07 0.57,0.12 0.57,0.17 0.57,0.23 0.57,0.32 0.57,0.43 0.57,0.52 0.57,0.63 0.57,0.71 0.57,0.76 0.57,0.77 0.58,0.74 0.57,0.64 0.57,0.5 0.57,0.31 0.57,0.09 0.57,-0.14 0.57,-0.36 0.57,-0.56 0.57,-0.68 0.57,-0.76 0.57,-0.78 0.57,-0.74 0.57,-0.69 0.57,-0.59 0.57,-0.5 0.57,-0.39 0.57,-0.3 0.58,-0.22 0.57,-0.16 0.57,-0.1 0.57,-0.07 0.57,-0.04 0.57,-0.03 0.57,-0.01 0.57,-0.01 0.57,-0.01 h 0.57 0.57 0.57 0.57 0.57 0.57 0.57 0.58 0.57 0.57 0.57 0.57 0.57 0.57 0.57 0.57 0.57 0.57 0.57 0.57 0.57 0.57 0.57 0.57 0.58 0.57 0.57 0.57 0.57 0.57 0.57 0.57 0.57 0.57 0.57 0.57 0.57 0.57 0.57 0.57 0.58 0.57 0.57 0.57 0.57 0.57 0.57 0.57 0.57 0.57 0.57 0.57 0.57 0.57 0.57 0.57 0.57 0.58 0.57 0.57 0.57 0.57 0.57 0.57 0.57 0.57 0.57 0.57 0.57 0.57 0.57 0.57 0.57 0.58 0.57 0.57 0.57 0.57 0.57 0.57 0.57 0.57 0.57 0.57 0.57 0.57 0.57 0.57 0.57 0.57 0.58 0.57 0.57 0.57 0.57 0.57 0.57 0.57 0.57 0.57 0.57 0.57 0.57 0.57 0.57 0.57 0.57 0.58 0.57 0.57 0.57 0.57 0.57 0.57 0.57 0.57 0.57 0.57 0.57 0.57 0.57 0.57 0.57 0.58 0.57 0.57 0.57 0.57 0.57 0.57 0.57 0.57 0.57 0.57 0.57 0.57 0.57 0.57 0.57 0.57 0.58 0.57 0.57 0.57 0.57 0.57 0.57 0.57 0.57 0.57 0.57 0.57 0.57 0.57 0.57 0.57 0.58 0.57 0.57 0.57 0.57 0.57 0.57 0.57 0.57 0.57 0.57 0.57 0.57 0.57 0.57 0.57 0.57 0.58 0.57 0.57 0.57 0.57 0.57 0.57 0.57 0.57 0.57 0.57 0.57 0.57 0.57 0.57 0.57 0.58 0.57 0.57 0.57 0.57 0.57 0.57 0.57 0.57 0.57 0.57 0.57 0.57 0.57 0.57 l 0.57,0.01 0.57,0.01 0.58,0.01 0.57,0.03 0.57,0.05 0.57,0.07 0.57,0.11 0.57,0.16 0.57,0.22 0.57,0.3 0.57,0.4 0.57,0.49 0.57,0.6 0.57,0.68 0.57,0.74 0.57,0.78 0.57,0.75 0.57,0.66 0.58,0.53 0.57,0.35 0.57,0.14 0.57,-0.08 0.57,-0.31 0.57,-0.49 0.57,-0.63 0.57,-0.74 0.57,-0.77 0.57,-0.76 0.57,-0.7 0.57,-0.62 0.57,-0.51 0.57,-0.42 0.57,-0.33 0.57,-0.24 0.57,-0.17 0.58,-0.12 0.57,-0.08 0.57,-0.05 0.57,-0.03 0.57,-0.02 0.57,-0.01 0.57,-0.01 h 0.57 0.57 0.57 0.57 0.57 0.57 0.57 0.57 0.57 0.58 0.57 0.57 0.57 0.57 0.57 0.57 0.57 0.57 0.57 0.57 0.57 0.57 0.57 0.57 0.57 0.57 0.58 0.57 0.57 0.57 0.57 0.57 l 0.57,0.01 0.57,0.01 0.57,0.02 0.57,0.02 0.57,0.05 0.57,0.08 0.57,0.11 0.57,0.17 0.57,0.23 0.57,0.32 0.58,0.4 0.57,0.51 0.57,0.61 0.57,0.69 0.57,0.75 0.57,0.77 0.57,0.75 0.57,0.65 0.57,0.51 0.57,0.33 0.57,0.11"
           style="fill:none;stroke:#000000;stroke-width:1.07000005;stroke-linecap:round;stroke-linejoin:round;stroke-miterlimit:10;stroke-dasharray:none;stroke-opacity:1"
           id="path68"
           inkscape:connector-curvature="0" /><path
           d="m 68.24,83.33 0.57,7.07 0.57,8.17 0.57,9.34 0.57,10.5 0.58,11.68 0.57,12.7 0.57,13.45 0.57,13.91 0.57,14.01 0.57,13.68 0.57,12.89 0.57,11.63 0.57,9.91 0.57,7.8 0.57,5.36 0.57,2.71 0.57,-0.05 0.57,-2.89 0.57,-5.2 0.57,-7.09 0.57,-8.45 0.58,-9.23 0.57,-9.43 0.57,-9.14 0.57,-8.48 0.57,-7.58 0.57,-6.63 0.57,-5.76 0.57,-5.11 0.57,-4.72 0.57,-4.67 0.57,-4.87 0.57,-5.23 0.57,-5.69 0.57,-6.13 0.57,-6.5 0.57,-6.77 0.58,-6.89 0.57,-6.85 0.57,-6.68 0.57,-6.36 0.57,-5.95 0.57,-5.42 0.57,-4.86 0.57,-4.31 0.57,-3.75 0.57,-3.2 0.57,-2.69 0.57,-2.21 0.57,-1.78 0.57,-1.4 0.57,-1.05 0.57,-0.75 0.57,-0.5 0.58,-0.25 0.57,-0.05 0.57,0.14 0.57,0.3 0.57,0.45 0.57,0.58 0.57,0.68 0.57,0.74 0.57,0.75 0.57,0.72 0.57,0.62 0.57,0.47 0.57,0.29 0.57,0.04 0.57,-0.18 0.57,-0.39 0.58,-0.56 0.57,-0.67 0.57,-0.74 0.57,-0.74 0.57,-0.69 0.57,-0.59 0.57,-0.45 0.57,-0.29 0.57,-0.1 0.57,0.12 0.57,0.36 0.57,0.61 0.57,0.85 0.57,1.08 0.57,1.29 0.57,1.44 0.57,1.52 0.58,1.51 0.57,1.37 0.57,1.15 0.57,0.81 0.57,0.4 0.57,-0.08 0.57,-0.53 0.57,-0.92 0.57,-1.23 0.57,-1.43 0.57,-1.53 0.57,-1.52 0.57,-1.44 0.57,-1.28 0.57,-1.09 0.57,-0.89 0.58,-0.69 0.57,-0.52 0.57,-0.37 0.57,-0.25 0.57,-0.17 0.57,-0.12 0.57,-0.07 0.57,-0.04 0.57,-0.02 0.57,-0.02 h 0.57 l 0.57,-0.01 h 0.57 0.57 0.57 0.57 0.57 0.58 0.57 0.57 0.57 0.57 0.57 0.57 0.57 0.57 0.57 0.57 0.57 0.57 0.57 0.57 0.57 0.57 0.58 0.57 0.57 0.57 0.57 0.57 0.57 0.57 0.57 0.57 0.57 0.57 0.57 0.57 0.57 0.57 0.58 0.57 0.57 0.57 0.57 0.57 0.57 0.57 0.57 0.57 0.57 0.57 0.57 0.57 0.57 0.57 0.57 0.58 0.57 0.57 0.57 0.57 0.57 0.57 0.57 0.57 0.57 0.57 0.57 0.57 0.57 0.57 0.57 0.58 0.57 0.57 0.57 0.57 0.57 0.57 0.57 0.57 0.57 0.57 0.57 0.57 0.57 0.57 0.57 0.57 0.58 0.57 0.57 0.57 0.57 0.57 0.57 0.57 0.57 0.57 0.57 0.57 0.57 0.57 0.57 0.57 0.58 0.57 0.57 0.57 0.57 0.57 0.57 0.57 0.57 0.57 0.57 0.57 0.57 0.57 0.57 0.57 0.57 0.58 0.57 0.57 0.57 0.57 0.57 0.57 0.57 0.57 0.57 0.57 0.57 0.57 0.57 0.57 0.57 0.58 0.57 0.57 0.57 0.57 0.57 0.57 0.57 0.57 0.57 0.57 0.57 0.57 0.57 0.57 0.57 0.57 0.58 0.57 0.57 0.57 0.57 0.57 0.57 0.57 0.57 0.57 0.57 0.57 0.57 0.57 0.57 0.57 0.58 0.57 0.57 0.57 0.57 0.57 0.57 0.57 0.57 0.57 0.57 0.57 0.57 0.57 0.57 0.57 0.57 0.58 0.57 0.57 0.57 0.57 0.57 0.57 0.57 0.57 0.57 0.57 0.57 0.57 0.57 0.57 0.57 0.57 0.58 0.57 0.57 0.57 0.57 0.57 0.57 0.57 0.57 0.57 0.57 l 0.57,0.01 0.57,0.01 0.57,0.02 0.57,0.03 0.57,0.05 0.58,0.08 0.57,0.11 0.57,0.17 0.57,0.24 0.57,0.32 0.57,0.41 0.57,0.51 0.57,0.62 0.57,0.7 0.57,0.76 0.57,0.77 0.57,0.73 0.57,0.65 0.57,0.49 0.57,0.32 0.57,0.09 0.57,-0.12 0.58,-0.34 0.57,-0.52 0.57,-0.67 0.57,-0.74 0.57,-0.78 0.57,-0.75 0.57,-0.68 0.57,-0.6 0.57,-0.5 0.57,-0.4 0.57,-0.31 0.57,-0.23 0.57,-0.16 0.57,-0.11 0.57,-0.07 0.57,-0.05 0.58,-0.03 0.57,-0.01 0.57,-0.01 0.57,-0.01 h 0.57 0.57 0.57 0.57 0.57 0.57 0.57 0.57 0.57 0.57 0.57 0.57 0.57 0.58 0.57 0.57 0.57 0.57 0.57 0.57 0.57 0.57 0.57 0.57 0.57 0.57 0.57 0.57 0.57 0.58 0.57 0.57 0.57 0.57 0.57 0.57 0.57 0.57 l 0.57,0.01 0.57,0.01 0.57,0.02 0.57,0.03 0.57,0.04 0.57,0.08 0.57,0.11 0.57,0.16 0.58,0.23 0.57,0.32 0.57,0.41 0.57,0.52 0.57,0.61 0.57,0.7 0.57,0.76 0.57,0.77 0.57,0.74 0.57,0.66 0.57,0.52 0.57,0.34 0.57,0.11 0.57,-0.12 0.57,-0.36 0.57,-0.53 0.58,-0.67 0.57,-0.75 0.57,-0.77 0.57,-0.75 0.57,-0.7 0.57,-0.6 0.57,-0.51 0.57,-0.41 0.57,-0.31 0.57,-0.23 0.57,-0.15 0.57,-0.11 0.57,-0.07 0.57,-0.05 0.57,-0.02 0.57,-0.02 0.57,-0.01 0.58,-0.01 h 0.57 0.57 0.57 0.57 0.57 0.57 0.57 0.57 0.57 0.57 0.57 0.57 0.57 0.57 0.57 0.58 0.57 0.57 0.57 0.57 0.57 0.57 0.57 0.57 0.57 0.57 0.57 0.57 0.57 0.57 0.57 0.57 0.58 0.57 0.57 0.57 0.57 0.57 0.57 0.57 0.57 0.57 0.57 0.57 0.57 0.57 0.57 0.57 0.58 0.57 0.57 0.57 0.57 0.57 0.57 0.57 0.57 0.57 0.57 v 0 h -0.57 -0.57 -0.57 -0.57 -0.57 -0.57 -0.57 -0.57 -0.57 -0.57 -0.58 -0.57 -0.57 -0.57 -0.57 -0.57 -0.57 -0.57 -0.57 -0.57 -0.57 -0.57 -0.57 -0.57 -0.57 -0.57 -0.58 -0.57 -0.57 -0.57 -0.57 -0.57 -0.57 -0.57 -0.57 -0.57 -0.57 -0.57 -0.57 -0.57 -0.57 -0.57 -0.57 -0.58 -0.57 -0.57 -0.57 -0.57 -0.57 -0.57 -0.57 -0.57 -0.57 -0.57 -0.57 -0.57 -0.57 -0.57 -0.57 -0.58 -0.57 -0.57 -0.57 -0.57 -0.57 -0.57 -0.57 -0.57 -0.57 -0.57 -0.57 -0.57 -0.57 -0.57 -0.57 -0.57 -0.58 -0.57 -0.57 -0.57 -0.57 -0.57 -0.57 -0.57 -0.57 -0.57 -0.57 -0.57 -0.57 -0.57 -0.57 -0.57 -0.58 -0.57 -0.57 -0.57 -0.57 -0.57 -0.57 -0.57 -0.57 -0.57 -0.57 -0.57 -0.57 -0.57 -0.57 -0.57 -0.57 -0.58 -0.57 -0.57 -0.57 -0.57 -0.57 -0.57 -0.57 -0.57 -0.57 -0.57 -0.57 -0.57 -0.57 -0.57 -0.57 -0.58 -0.57 -0.57 -0.57 -0.57 -0.57 -0.57 -0.57 -0.57 -0.57 -0.57 -0.57 -0.57 -0.57 -0.57 -0.57 -0.57 -0.58 -0.57 -0.57 -0.57 -0.57 -0.57 -0.57 -0.57 -0.57 -0.57 -0.57 -0.57 -0.57 -0.57 -0.57 -0.57 -0.58 -0.57 -0.57 -0.57 -0.57 -0.57 -0.57 -0.57 -0.57 -0.57 -0.57 -0.57 -0.57 -0.57 -0.57 -0.57 -0.57 -0.58 -0.57 -0.57 -0.57 -0.57 -0.57 -0.57 -0.57 -0.57 -0.57 -0.57 -0.57 -0.57 -0.57 -0.57 -0.57 -0.58 -0.57 -0.57 -0.57 -0.57 -0.57 -0.57 -0.57 -0.57 -0.57 -0.57 -0.57 -0.57 -0.57 -0.57 -0.57 -0.57 -0.58 -0.57 -0.57 -0.57 -0.57 -0.57 -0.57 -0.57 -0.57 -0.57 -0.57 -0.57 -0.57 -0.57 -0.57 -0.57 -0.57 -0.58 -0.57 -0.57 -0.57 -0.57 -0.57 -0.57 -0.57 -0.57 -0.57 -0.57 -0.57 -0.57 -0.57 -0.57 -0.57 -0.58 -0.57 -0.57 -0.57 -0.57 -0.57 -0.57 -0.57 -0.57 -0.57 -0.57 -0.57 -0.57 -0.57 -0.57 -0.57 -0.57 -0.58 -0.57 -0.57 -0.57 -0.57 -0.57 -0.57 -0.57 -0.57 -0.57 -0.57 -0.57 -0.57 -0.57 -0.57 -0.57 -0.58 -0.57 -0.57 -0.57 -0.57 -0.57 -0.57 -0.57 -0.57 -0.57 -0.57 -0.57 -0.57 -0.57 -0.57 -0.57 -0.57 -0.58 -0.57 -0.57 -0.57 -0.57 -0.57 -0.57 -0.57 -0.57 -0.57 -0.57 -0.57 -0.57 -0.57 -0.57 -0.57 -0.58 -0.57 -0.57 -0.57 -0.57 -0.57 -0.57 -0.57 -0.57 -0.57 -0.57 -0.57 -0.57 -0.57 -0.57 -0.57 -0.57 -0.58 -0.57 -0.57 -0.57 -0.57 -0.57 -0.57 -0.57 -0.57 -0.57 -0.57 -0.57 -0.57 -0.57 -0.57 -0.57 -0.58 -0.57 -0.57 -0.57 -0.57 -0.57 -0.57 -0.57 -0.57 -0.57 -0.57 -0.57 -0.57 -0.57 -0.57 -0.57 -0.57 -0.58 -0.57 -0.57 -0.57 -0.57 -0.57 -0.57 -0.57 -0.57 -0.57 -0.57 -0.57 -0.57 -0.57 -0.57 -0.57 -0.58 -0.57 -0.57 -0.57 -0.57 -0.57 -0.57 -0.57 -0.57 -0.57 -0.57 -0.57 -0.57 -0.57 -0.57 -0.57 -0.57 -0.58 -0.57 -0.57 -0.57 -0.57 -0.57 -0.57 -0.57 -0.57 -0.57 -0.57 -0.57 -0.57 -0.57 -0.57 -0.57 -0.57 -0.58 -0.57 -0.57 -0.57 -0.57 -0.57 -0.57 -0.57 -0.57 -0.57 -0.57 -0.57 -0.57 -0.57 -0.57 -0.57 -0.58 -0.57 -0.57 -0.57 -0.57 -0.57 -0.57 -0.57 -0.57 -0.57 -0.57 -0.57 -0.57 -0.57 -0.57 -0.57 -0.57 -0.58 -0.57 -0.57 -0.57 -0.57 -0.57 -0.57 -0.57 -0.57 -0.57 -0.57 -0.57 -0.57 -0.57 H 100.2 99.63 99.05 98.48 97.91 97.34 96.77 96.2 95.63 95.06 94.49 93.92 93.35 92.78 92.21 91.64 91.07 90.5 89.93 89.35 88.78 88.21 87.64 87.07 86.5 85.93 85.36 84.79 84.22 83.65 83.08 82.51 81.94 81.37 80.8 80.22 79.65 79.08 78.51 77.94 77.37 76.8 76.23 75.66 75.09 74.52 73.95 73.38 72.81 72.24 71.67 71.1 70.52 69.95 69.38 68.81 68.24 Z"
           style="fill:#0000ff;fill-opacity:0.25100002;fill-rule:nonzero;stroke:none"
           id="path70"
           inkscape:connector-curvature="0" /><path
           d="m 68.24,83.33 0.57,7.07 0.57,8.17 0.57,9.34 0.57,10.5 0.58,11.68 0.57,12.7 0.57,13.45 0.57,13.91 0.57,14.01 0.57,13.68 0.57,12.89 0.57,11.63 0.57,9.91 0.57,7.8 0.57,5.36 0.57,2.71 0.57,-0.05 0.57,-2.89 0.57,-5.2 0.57,-7.09 0.57,-8.45 0.58,-9.23 0.57,-9.43 0.57,-9.14 0.57,-8.48 0.57,-7.58 0.57,-6.63 0.57,-5.76 0.57,-5.11 0.57,-4.72 0.57,-4.67 0.57,-4.87 0.57,-5.23 0.57,-5.69 0.57,-6.13 0.57,-6.5 0.57,-6.77 0.58,-6.89 0.57,-6.85 0.57,-6.68 0.57,-6.36 0.57,-5.95 0.57,-5.42 0.57,-4.86 0.57,-4.31 0.57,-3.75 0.57,-3.2 0.57,-2.69 0.57,-2.21 0.57,-1.78 0.57,-1.4 0.57,-1.05 0.57,-0.75 0.57,-0.5 0.58,-0.25 0.57,-0.05 0.57,0.14 0.57,0.3 0.57,0.45 0.57,0.58 0.57,0.68 0.57,0.74 0.57,0.75 0.57,0.72 0.57,0.62 0.57,0.47 0.57,0.29 0.57,0.04 0.57,-0.18 0.57,-0.39 0.58,-0.56 0.57,-0.67 0.57,-0.74 0.57,-0.74 0.57,-0.69 0.57,-0.59 0.57,-0.45 0.57,-0.29 0.57,-0.1 0.57,0.12 0.57,0.36 0.57,0.61 0.57,0.85 0.57,1.08 0.57,1.29 0.57,1.44 0.57,1.52 0.58,1.51 0.57,1.37 0.57,1.15 0.57,0.81 0.57,0.4 0.57,-0.08 0.57,-0.53 0.57,-0.92 0.57,-1.23 0.57,-1.43 0.57,-1.53 0.57,-1.52 0.57,-1.44 0.57,-1.28 0.57,-1.09 0.57,-0.89 0.58,-0.69 0.57,-0.52 0.57,-0.37 0.57,-0.25 0.57,-0.17 0.57,-0.12 0.57,-0.07 0.57,-0.04 0.57,-0.02 0.57,-0.02 h 0.57 l 0.57,-0.01 h 0.57 0.57 0.57 0.57 0.57 0.58 0.57 0.57 0.57 0.57 0.57 0.57 0.57 0.57 0.57 0.57 0.57 0.57 0.57 0.57 0.57 0.57 0.58 0.57 0.57 0.57 0.57 0.57 0.57 0.57 0.57 0.57 0.57 0.57 0.57 0.57 0.57 0.57 0.58 0.57 0.57 0.57 0.57 0.57 0.57 0.57 0.57 0.57 0.57 0.57 0.57 0.57 0.57 0.57 0.57 0.58 0.57 0.57 0.57 0.57 0.57 0.57 0.57 0.57 0.57 0.57 0.57 0.57 0.57 0.57 0.57 0.58 0.57 0.57 0.57 0.57 0.57 0.57 0.57 0.57 0.57 0.57 0.57 0.57 0.57 0.57 0.57 0.57 0.58 0.57 0.57 0.57 0.57 0.57 0.57 0.57 0.57 0.57 0.57 0.57 0.57 0.57 0.57 0.57 0.58 0.57 0.57 0.57 0.57 0.57 0.57 0.57 0.57 0.57 0.57 0.57 0.57 0.57 0.57 0.57 0.57 0.58 0.57 0.57 0.57 0.57 0.57 0.57 0.57 0.57 0.57 0.57 0.57 0.57 0.57 0.57 0.57 0.58 0.57 0.57 0.57 0.57 0.57 0.57 0.57 0.57 0.57 0.57 0.57 0.57 0.57 0.57 0.57 0.57 0.58 0.57 0.57 0.57 0.57 0.57 0.57 0.57 0.57 0.57 0.57 0.57 0.57 0.57 0.57 0.57 0.58 0.57 0.57 0.57 0.57 0.57 0.57 0.57 0.57 0.57 0.57 0.57 0.57 0.57 0.57 0.57 0.57 0.58 0.57 0.57 0.57 0.57 0.57 0.57 0.57 0.57 0.57 0.57 0.57 0.57 0.57 0.57 0.57 0.57 0.58 0.57 0.57 0.57 0.57 0.57 0.57 0.57 0.57 0.57 0.57 l 0.57,0.01 0.57,0.01 0.57,0.02 0.57,0.03 0.57,0.05 0.58,0.08 0.57,0.11 0.57,0.17 0.57,0.24 0.57,0.32 0.57,0.41 0.57,0.51 0.57,0.62 0.57,0.7 0.57,0.76 0.57,0.77 0.57,0.73 0.57,0.65 0.57,0.49 0.57,0.32 0.57,0.09 0.57,-0.12 0.58,-0.34 0.57,-0.52 0.57,-0.67 0.57,-0.74 0.57,-0.78 0.57,-0.75 0.57,-0.68 0.57,-0.6 0.57,-0.5 0.57,-0.4 0.57,-0.31 0.57,-0.23 0.57,-0.16 0.57,-0.11 0.57,-0.07 0.57,-0.05 0.58,-0.03 0.57,-0.01 0.57,-0.01 0.57,-0.01 h 0.57 0.57 0.57 0.57 0.57 0.57 0.57 0.57 0.57 0.57 0.57 0.57 0.57 0.58 0.57 0.57 0.57 0.57 0.57 0.57 0.57 0.57 0.57 0.57 0.57 0.57 0.57 0.57 0.57 0.58 0.57 0.57 0.57 0.57 0.57 0.57 0.57 0.57 l 0.57,0.01 0.57,0.01 0.57,0.02 0.57,0.03 0.57,0.04 0.57,0.08 0.57,0.11 0.57,0.16 0.58,0.23 0.57,0.32 0.57,0.41 0.57,0.52 0.57,0.61 0.57,0.7 0.57,0.76 0.57,0.77 0.57,0.74 0.57,0.66 0.57,0.52 0.57,0.34 0.57,0.11 0.57,-0.12 0.57,-0.36 0.57,-0.53 0.58,-0.67 0.57,-0.75 0.57,-0.77 0.57,-0.75 0.57,-0.7 0.57,-0.6 0.57,-0.51 0.57,-0.41 0.57,-0.31 0.57,-0.23 0.57,-0.15 0.57,-0.11 0.57,-0.07 0.57,-0.05 0.57,-0.02 0.57,-0.02 0.57,-0.01 0.58,-0.01 h 0.57 0.57 0.57 0.57 0.57 0.57 0.57 0.57 0.57 0.57 0.57 0.57 0.57 0.57 0.57 0.58 0.57 0.57 0.57 0.57 0.57 0.57 0.57 0.57 0.57 0.57 0.57 0.57 0.57 0.57 0.57 0.57 0.58 0.57 0.57 0.57 0.57 0.57 0.57 0.57 0.57 0.57 0.57 0.57 0.57 0.57 0.57 0.57 0.58 0.57 0.57 0.57 0.57 0.57 0.57 0.57 0.57 0.57 0.57"
           style="fill:none;stroke:#000000;stroke-width:1.07000005;stroke-linecap:round;stroke-linejoin:round;stroke-miterlimit:10;stroke-dasharray:none;stroke-opacity:1"
           id="path72"
           inkscape:connector-curvature="0" /><path
           d="M 53.66,42.44 H 374.4 V 257.93 H 53.66 Z"
           style="fill:none;stroke:#333333;stroke-width:1.07000005;stroke-linecap:round;stroke-linejoin:round;stroke-miterlimit:10;stroke-dasharray:none;stroke-opacity:1"
           id="path74"
           inkscape:connector-curvature="0" /></g></g><g
       id="g76" /><g
       id="g78" /><g
       id="g80" /><g
       id="g82" /><g
       id="g84" /><g
       id="g86" /><g
       id="g88" /><g
       id="g90" /><g
       id="g92" /><g
       id="g94" /><g
       id="g96" /><g
       id="g98" /><g
       id="g100" /><g
       id="g102" /><g
       id="g104" /><g
       id="g106"
       transform="translate(3)"><text
         transform="matrix(1,0,0,-1,27.33,48.3)"
         style="font-variant:normal;font-weight:normal;font-size:11px;font-family:Arial;-inkscape-font-specification:ArialMT;writing-mode:lr-tb;fill:#000000;fill-opacity:1;fill-rule:nonzero;stroke:none"
         id="text110"><tspan
           x="0 6.1160002 9.1739998 15.29"
           y="0"
           sodipodi:role="line"
           id="tspan108">0.00</tspan></text>
<text
         transform="matrix(1,0,0,-1,27.33,94.21)"
         style="font-variant:normal;font-weight:normal;font-size:11px;font-family:Arial;-inkscape-font-specification:ArialMT;writing-mode:lr-tb;fill:#000000;fill-opacity:1;fill-rule:nonzero;stroke:none"
         id="text114"><tspan
           x="0 6.1160002 9.1739998 15.29"
           y="0"
           sodipodi:role="line"
           id="tspan112">0.05</tspan></text>
<text
         transform="matrix(1,0,0,-1,27.33,140.12)"
         style="font-variant:normal;font-weight:normal;font-size:11px;font-family:Arial;-inkscape-font-specification:ArialMT;writing-mode:lr-tb;fill:#000000;fill-opacity:1;fill-rule:nonzero;stroke:none"
         id="text118"><tspan
           x="0 6.1160002 9.1739998 15.29"
           y="0"
           sodipodi:role="line"
           id="tspan116">0.10</tspan></text>
<text
         transform="matrix(1,0,0,-1,27.33,186.04)"
         style="font-variant:normal;font-weight:normal;font-size:11px;font-family:Arial;-inkscape-font-specification:ArialMT;writing-mode:lr-tb;fill:#000000;fill-opacity:1;fill-rule:nonzero;stroke:none"
         id="text122"><tspan
           x="0 6.1160002 9.1739998 15.29"
           y="0"
           sodipodi:role="line"
           id="tspan120">0.15</tspan></text>
<text
         transform="matrix(1,0,0,-1,27.33,231.95)"
         style="font-variant:normal;font-weight:normal;font-size:11px;font-family:Arial;-inkscape-font-specification:ArialMT;writing-mode:lr-tb;fill:#000000;fill-opacity:1;fill-rule:nonzero;stroke:none"
         id="text126"><tspan
           x="0 6.1160002 9.1739998 15.29"
           y="0"
           sodipodi:role="line"
           id="tspan124">0.20</tspan></text>
</g><g
       id="g128" /><g
       id="g130"
       transform="translate(3)"><path
         d="m 50.92,52.24 h 2.74"
         style="fill:none;stroke:#333333;stroke-width:1.07000005;stroke-linecap:butt;stroke-linejoin:round;stroke-miterlimit:10;stroke-dasharray:none;stroke-opacity:1"
         id="path132"
         inkscape:connector-curvature="0" /><path
         d="m 50.92,98.15 h 2.74"
         style="fill:none;stroke:#333333;stroke-width:1.07000005;stroke-linecap:butt;stroke-linejoin:round;stroke-miterlimit:10;stroke-dasharray:none;stroke-opacity:1"
         id="path134"
         inkscape:connector-curvature="0" /><path
         d="m 50.92,144.06 h 2.74"
         style="fill:none;stroke:#333333;stroke-width:1.07000005;stroke-linecap:butt;stroke-linejoin:round;stroke-miterlimit:10;stroke-dasharray:none;stroke-opacity:1"
         id="path136"
         inkscape:connector-curvature="0" /><path
         d="m 50.92,189.97 h 2.74"
         style="fill:none;stroke:#333333;stroke-width:1.07000005;stroke-linecap:butt;stroke-linejoin:round;stroke-miterlimit:10;stroke-dasharray:none;stroke-opacity:1"
         id="path138"
         inkscape:connector-curvature="0" /><path
         d="m 50.92,235.89 h 2.74"
         style="fill:none;stroke:#333333;stroke-width:1.07000005;stroke-linecap:butt;stroke-linejoin:round;stroke-miterlimit:10;stroke-dasharray:none;stroke-opacity:1"
         id="path140"
         inkscape:connector-curvature="0" /></g><g
       id="g142" /><g
       id="g144" /><g
       id="g146" /><g
       id="g148" /><g
       id="g150" /><g
       id="g152" /><g
       id="g154" /><g
       id="g156" /><g
       id="g158" /><g
       id="g160"
       transform="translate(3)"><path
         d="m 68.24,39.7 v 2.74"
         style="fill:none;stroke:#333333;stroke-width:1.07000005;stroke-linecap:butt;stroke-linejoin:round;stroke-miterlimit:10;stroke-dasharray:none;stroke-opacity:1"
         id="path162"
         inkscape:connector-curvature="0" /><path
         d="m 138.5,39.7 v 2.74"
         style="fill:none;stroke:#333333;stroke-width:1.07000005;stroke-linecap:butt;stroke-linejoin:round;stroke-miterlimit:10;stroke-dasharray:none;stroke-opacity:1"
         id="path164"
         inkscape:connector-curvature="0" /><path
         d="m 208.76,39.7 v 2.74"
         style="fill:none;stroke:#333333;stroke-width:1.07000005;stroke-linecap:butt;stroke-linejoin:round;stroke-miterlimit:10;stroke-dasharray:none;stroke-opacity:1"
         id="path166"
         inkscape:connector-curvature="0" /><path
         d="m 279.02,39.7 v 2.74"
         style="fill:none;stroke:#333333;stroke-width:1.07000005;stroke-linecap:butt;stroke-linejoin:round;stroke-miterlimit:10;stroke-dasharray:none;stroke-opacity:1"
         id="path168"
         inkscape:connector-curvature="0" /><path
         d="m 349.28,39.7 v 2.74"
         style="fill:none;stroke:#333333;stroke-width:1.07000005;stroke-linecap:butt;stroke-linejoin:round;stroke-miterlimit:10;stroke-dasharray:none;stroke-opacity:1"
         id="path170"
         inkscape:connector-curvature="0" /></g><g
       id="g172" /><g
       id="g174"
       transform="translate(3)"><text
         transform="matrix(1,0,0,-1,65.18,29.64)"
         style="font-variant:normal;font-weight:normal;font-size:11px;font-family:Arial;-inkscape-font-specification:ArialMT;writing-mode:lr-tb;fill:#000000;fill-opacity:1;fill-rule:nonzero;stroke:none"
         id="text178"><tspan
           x="0"
           y="0"
           id="tspan176">0</tspan></text>
<text
         transform="matrix(1,0,0,-1,132.39,29.64)"
         style="font-variant:normal;font-weight:normal;font-size:11px;font-family:Arial;-inkscape-font-specification:ArialMT;writing-mode:lr-tb;fill:#000000;fill-opacity:1;fill-rule:nonzero;stroke:none"
         id="text182"><tspan
           x="0 6.1160002"
           y="0"
           sodipodi:role="line"
           id="tspan180">20</tspan></text>
<text
         transform="matrix(1,0,0,-1,202.65,29.64)"
         style="font-variant:normal;font-weight:normal;font-size:11px;font-family:Arial;-inkscape-font-specification:ArialMT;writing-mode:lr-tb;fill:#000000;fill-opacity:1;fill-rule:nonzero;stroke:none"
         id="text186"><tspan
           x="0 6.1160002"
           y="0"
           sodipodi:role="line"
           id="tspan184">40</tspan></text>
<text
         transform="matrix(1,0,0,-1,272.91,29.64)"
         style="font-variant:normal;font-weight:normal;font-size:11px;font-family:Arial;-inkscape-font-specification:ArialMT;writing-mode:lr-tb;fill:#000000;fill-opacity:1;fill-rule:nonzero;stroke:none"
         id="text190"><tspan
           x="0 6.1160002"
           y="0"
           sodipodi:role="line"
           id="tspan188">60</tspan></text>
<text
         transform="matrix(1,0,0,-1,343.17,29.64)"
         style="font-variant:normal;font-weight:normal;font-size:11px;font-family:Arial;-inkscape-font-specification:ArialMT;writing-mode:lr-tb;fill:#000000;fill-opacity:1;fill-rule:nonzero;stroke:none"
         id="text194"><tspan
           x="0 6.1160002"
           y="0"
           sodipodi:role="line"
           id="tspan192">80</tspan></text>
</g><g
       id="g196" /><g
       id="g198" /><g
       id="g200" /><g
       id="g202" /><g
       id="g204" /><g
       id="g206"
       transform="translate(3)"><text
         transform="matrix(1,0,0,-1,155.65,16.71)"
         style="font-variant:normal;font-weight:normal;font-size:11px;font-family:Arial;-inkscape-font-specification:ArialMT;writing-mode:lr-tb;fill:#000000;fill-opacity:1;fill-rule:nonzero;stroke:none"
         id="text210"><tspan
           x="0 7.9419999 14.058 20.174 25.674 28.115999 31.174 36.674 39.731998 45.848 48.905998 51.964001 59.905998 63.569 66.011002 71.511002 77.626999 81.290001 84.348 92.905998 99.022003 105.138 111.254"
           y="0"
           sodipodi:role="line"
           id="tspan208">Density of Driver Genes</tspan></text>
</g><g
       id="g212" /><g
       id="g214"
       transform="translate(3)"><text
         transform="matrix(0,1,1,0,22.28,60.63)"
         style="font-variant:normal;font-weight:normal;font-size:11px;font-family:Arial;-inkscape-font-specification:ArialMT;writing-mode:lr-tb;fill:#000000;fill-opacity:1;fill-rule:nonzero;stroke:none"
         id="text218"><tspan
           x="0 7.9419999 14.058 20.174 25.674 28.115999 31.174 36.674 39.731998 45.848 48.905998 51.964001 61.126999 67.242996 70.301003 76.417 79.474998 81.917 88.032997 94.149002 99.649002 102.707 105.149 111.265 114.323 122.265 125.928 128.37 133.87 139.98599 143.649 146.707 155.265 161.381 167.49699 173.61301"
           y="0"
           sodipodi:role="line"
           id="tspan216">Density of Mutations in Driver Genes</tspan></text>
</g><g
       id="g220" /><g
       id="g222" /><g
       id="g224" /><g
       id="g226" /><g
       id="g228" /><g
       id="g230" /><g
       id="g232" /><g
       id="g234"
       transform="translate(3)"><path
         d="m 235.79,173.47 h 116.86 v 61.18 H 235.79 Z"
         style="fill:#ffffff;fill-opacity:1;fill-rule:nonzero;stroke:none"
         id="path236"
         inkscape:connector-curvature="0" /></g><g
       id="g238" /><g
       id="g240" /><g
       id="g242" /><g
       id="g244"
       transform="translate(3)"><text
         transform="matrix(1,0,0,-1,241.27,220.14)"
         style="font-variant:normal;font-weight:normal;font-size:11px;font-family:Arial;-inkscape-font-specification:ArialMT;writing-mode:lr-tb;fill:#000000;fill-opacity:1;fill-rule:nonzero;stroke:none"
         id="text248"><tspan
           x="0 7.3369999 13.453 19.569 25.684999 31.801001 34.859001 40.359001 46.474998"
           y="0"
           sodipodi:role="line"
           id="tspan246">Phenotype</tspan></text>
</g><g
       id="g250" /><g
       id="g252" /><g
       id="g254"
       transform="translate(3)"><path
         d="m 241.27,196.23 h 17.28 v 17.28 h -17.28 z"
         style="fill:#ffffff;fill-opacity:1;fill-rule:nonzero;stroke:none"
         id="path256"
         inkscape:connector-curvature="0" /></g><g
       id="g258" /><g
       id="g260"
       transform="translate(3)"><path
         d="m 241.98,196.94 h 15.86 v 15.86 h -15.86 z"
         style="fill:#ff0000;fill-opacity:0.25100002;fill-rule:nonzero;stroke:#000000;stroke-width:1.07000005;stroke-linecap:square;stroke-linejoin:miter;stroke-miterlimit:10;stroke-dasharray:none;stroke-opacity:1"
         id="path262"
         inkscape:connector-curvature="0" /></g><g
       id="g264" /><g
       id="g266"
       transform="translate(3)"><path
         d="m 241.27,178.95 h 17.28 v 17.28 h -17.28 z"
         style="fill:#ffffff;fill-opacity:1;fill-rule:nonzero;stroke:none"
         id="path268"
         inkscape:connector-curvature="0" /></g><g
       id="g270" /><g
       id="g272"
       transform="translate(3)"><path
         d="m 241.98,179.66 h 15.86 v 15.86 h -15.86 z"
         style="fill:#0000ff;fill-opacity:0.25100002;fill-rule:nonzero;stroke:#000000;stroke-width:1.07000005;stroke-linecap:square;stroke-linejoin:miter;stroke-miterlimit:10;stroke-dasharray:none;stroke-opacity:1"
         id="path274"
         inkscape:connector-curvature="0" /></g><g
       id="g276" /><g
       id="g278" /><g
       id="g280" /><g
       id="g282"
       transform="translate(3)"><text
         transform="matrix(1,0,0,-1,264.03,200.93)"
         style="font-variant:normal;font-weight:normal;font-size:11px;font-family:Arial;-inkscape-font-specification:ArialMT;writing-mode:lr-tb;fill:#000000;fill-opacity:1;fill-rule:nonzero;stroke:none"
         id="text286"><tspan
           x="0 7.3369999 14.674 22.615999 28.732 34.848 37.905998 44.021999 49.521999 51.964001 57.464001 60.521999 68.463997 70.905998 77.022003"
           y="0"
           sodipodi:role="line"
           id="tspan284">PANoptosis High</tspan></text>
</g><g
       id="g288" /><g
       id="g290" /><g
       id="g292" /><g
       id="g294" /><g
       id="g296"
       transform="translate(3)"><text
         transform="matrix(1,0,0,-1,264.03,183.65)"
         style="font-variant:normal;font-weight:normal;font-size:11px;font-family:Arial;-inkscape-font-specification:ArialMT;writing-mode:lr-tb;fill:#000000;fill-opacity:1;fill-rule:nonzero;stroke:none"
         id="text300"><tspan
           x="0 7.3369999 14.674 22.615999 28.732 34.848 37.905998 44.021999 49.521999 51.964001 57.464001 60.521999 66.638 72.753998"
           y="0"
           sodipodi:role="line"
           id="tspan298">PANoptosis Low</tspan></text>
</g><g
       id="g302" /><g
       id="g304" /><g
       id="g306" /><g
       id="g308" /><g
       id="g310" /><g
       id="g312" /><g
       id="g314"
       transform="translate(3,-3)"><text
         transform="matrix(1,0,0,-1,106.73,265.72)"
         style="font-variant:normal;font-weight:normal;font-size:11px;font-family:Arial;-inkscape-font-specification:ArialMT;writing-mode:lr-tb;fill:#000000;fill-opacity:1;fill-rule:nonzero;stroke:none"
         id="text318"><tspan
           x="0 7.9419999 14.058 16.5 22.924 30.261 36.376999 42.493 48.609001 52.271999 58.388 61.445999 66.945999 73.061996 78.561996 81.620003 84.678001 92.014999 98.439003 103.939 110.055 112.497 118.613 124.729 127.787 130.845 136.961 140.62399 143.68201 151.019 154.077 162.019 169.961 173.019 175.461 180.961 184.019 187.077 193.19299 196.25101 202.367 208.483"
           y="0"
           sodipodi:role="line"
           id="tspan316">Chi−Square Test P−value for KIRC is: 0.481</tspan></text>
</g><g
       id="g320" /><g
       id="g322" /><g
       id="g324" /><g
       id="g326" /><g
       id="g328" /><g
       id="g330" /></g></svg>