<?xml version="1.0" encoding="UTF-8" standalone="no"?>
<!-- Created with Inkscape (http://www.inkscape.org/) -->

<svg
   version="1.1"
   id="svg2"
   xml:space="preserve"
   width="768"
   height="384"
   viewBox="0 0 768 384"
   sodipodi:docname="Aneuploidy_Comparison.svg"
   inkscape:version="1.1.1 (3bf5ae0d25, 2021-09-20)"
   xmlns:inkscape="http://www.inkscape.org/namespaces/inkscape"
   xmlns:sodipodi="http://sodipodi.sourceforge.net/DTD/sodipodi-0.dtd"
   xmlns="http://www.w3.org/2000/svg"
   xmlns:svg="http://www.w3.org/2000/svg"
   xmlns:rdf="http://www.w3.org/1999/02/22-rdf-syntax-ns#"
   xmlns:cc="http://creativecommons.org/ns#"
   xmlns:dc="http://purl.org/dc/elements/1.1/"><metadata
     id="metadata8"><rdf:RDF><cc:Work
         rdf:about=""><dc:format>image/svg+xml</dc:format><dc:type
           rdf:resource="http://purl.org/dc/dcmitype/StillImage" /></cc:Work></rdf:RDF></metadata><defs
     id="defs6"><clipPath
       clipPathUnits="userSpaceOnUse"
       id="clipPath48"><path
         d="M 0,0 H 576 V 288 H 0 Z"
         id="path46"
         inkscape:connector-curvature="0" /></clipPath><clipPath
       clipPathUnits="userSpaceOnUse"
       id="clipPath60"><path
         d="M 35.57,33.52 H 210.23 V 263.56 H 35.57 Z"
         id="path58"
         inkscape:connector-curvature="0" /></clipPath><clipPath
       clipPathUnits="userSpaceOnUse"
       id="clipPath196"><path
         d="M 215.71,33.52 H 390.37 V 263.56 H 215.71 Z"
         id="path194"
         inkscape:connector-curvature="0" /></clipPath><clipPath
       clipPathUnits="userSpaceOnUse"
       id="clipPath288"><path
         d="M 395.86,33.52 H 570.52 V 263.56 H 395.86 Z"
         id="path286"
         inkscape:connector-curvature="0" /></clipPath><clipPath
       clipPathUnits="userSpaceOnUse"
       id="clipPath380"><path
         d="m 35.57,263.57 h 174.66 v 18.95 H 35.57 Z"
         id="path378"
         inkscape:connector-curvature="0" /></clipPath><clipPath
       clipPathUnits="userSpaceOnUse"
       id="clipPath388"><path
         d="m 35.57,263.57 h 174.66 v 18.95 H 35.57 Z"
         id="path386"
         inkscape:connector-curvature="0" /></clipPath><clipPath
       clipPathUnits="userSpaceOnUse"
       id="clipPath402"><path
         d="m 35.57,263.57 h 174.66 v 18.95 H 35.57 Z"
         id="path400"
         inkscape:connector-curvature="0" /></clipPath><clipPath
       clipPathUnits="userSpaceOnUse"
       id="clipPath410"><path
         d="m 35.57,263.57 h 174.66 v 18.95 H 35.57 Z"
         id="path408"
         inkscape:connector-curvature="0" /></clipPath><clipPath
       clipPathUnits="userSpaceOnUse"
       id="clipPath420"><path
         d="m 215.71,263.57 h 174.66 v 18.95 H 215.71 Z"
         id="path418"
         inkscape:connector-curvature="0" /></clipPath><clipPath
       clipPathUnits="userSpaceOnUse"
       id="clipPath428"><path
         d="m 215.71,263.57 h 174.66 v 18.95 H 215.71 Z"
         id="path426"
         inkscape:connector-curvature="0" /></clipPath><clipPath
       clipPathUnits="userSpaceOnUse"
       id="clipPath442"><path
         d="m 215.71,263.57 h 174.66 v 18.95 H 215.71 Z"
         id="path440"
         inkscape:connector-curvature="0" /></clipPath><clipPath
       clipPathUnits="userSpaceOnUse"
       id="clipPath450"><path
         d="m 215.71,263.57 h 174.66 v 18.95 H 215.71 Z"
         id="path448"
         inkscape:connector-curvature="0" /></clipPath><clipPath
       clipPathUnits="userSpaceOnUse"
       id="clipPath460"><path
         d="m 395.86,263.57 h 174.66 v 18.95 H 395.86 Z"
         id="path458"
         inkscape:connector-curvature="0" /></clipPath><clipPath
       clipPathUnits="userSpaceOnUse"
       id="clipPath468"><path
         d="m 395.86,263.57 h 174.66 v 18.95 H 395.86 Z"
         id="path466"
         inkscape:connector-curvature="0" /></clipPath><clipPath
       clipPathUnits="userSpaceOnUse"
       id="clipPath482"><path
         d="m 395.86,263.57 h 174.66 v 18.95 H 395.86 Z"
         id="path480"
         inkscape:connector-curvature="0" /></clipPath><clipPath
       clipPathUnits="userSpaceOnUse"
       id="clipPath490"><path
         d="m 395.86,263.57 h 174.66 v 18.95 H 395.86 Z"
         id="path488"
         inkscape:connector-curvature="0" /></clipPath></defs><sodipodi:namedview
     pagecolor="#ffffff"
     bordercolor="#666666"
     borderopacity="1"
     objecttolerance="10"
     gridtolerance="10"
     guidetolerance="10"
     inkscape:pageopacity="0"
     inkscape:pageshadow="2"
     inkscape:window-width="1920"
     inkscape:window-height="1121"
     id="namedview4"
     showgrid="false"
     inkscape:zoom="1"
     inkscape:cx="383.5"
     inkscape:cy="191.5"
     inkscape:window-x="-9"
     inkscape:window-y="-9"
     inkscape:window-maximized="1"
     inkscape:current-layer="g10"
     inkscape:pagecheckerboard="0" /><g
     id="g10"
     inkscape:groupmode="layer"
     inkscape:label="Aneuploidy_Comparison"
     transform="matrix(1.3333333,0,0,-1.3333333,0,384)"><g
       id="g16" /><g
       id="g18" /><g
       id="g20" /><g
       id="g22" /><g
       id="g24" /><g
       id="g26" /><g
       id="g28" /><g
       id="g30" /><g
       id="g32" /><g
       id="g34" /><g
       id="g36" /><g
       id="g38" /><g
       id="g40" /><g
       id="g52" /><g
       id="g54"><g
         id="g56"
         clip-path="url(#clipPath60)"><path
   d="M 35.57,33.52 H 210.23 V 263.56 H 35.57 Z"
   style="fill:#ffffff;fill-opacity:1;fill-rule:nonzero;stroke:none"
   id="path62"
   inkscape:connector-curvature="0" /><path
   d="M 35.57,66.09 H 210.23"
   style="fill:none;stroke:#dedede;stroke-width:0.27000001;stroke-linecap:butt;stroke-linejoin:round;stroke-miterlimit:10;stroke-dasharray:none;stroke-opacity:1"
   id="path64"
   inkscape:connector-curvature="0" /><path
   d="M 35.57,110.3 H 210.23"
   style="fill:none;stroke:#dedede;stroke-width:0.27000001;stroke-linecap:butt;stroke-linejoin:round;stroke-miterlimit:10;stroke-dasharray:none;stroke-opacity:1"
   id="path66"
   inkscape:connector-curvature="0" /><path
   d="M 35.57,154.51 H 210.23"
   style="fill:none;stroke:#dedede;stroke-width:0.27000001;stroke-linecap:butt;stroke-linejoin:round;stroke-miterlimit:10;stroke-dasharray:none;stroke-opacity:1"
   id="path68"
   inkscape:connector-curvature="0" /><path
   d="M 35.57,198.73 H 210.23"
   style="fill:none;stroke:#dedede;stroke-width:0.27000001;stroke-linecap:butt;stroke-linejoin:round;stroke-miterlimit:10;stroke-dasharray:none;stroke-opacity:1"
   id="path70"
   inkscape:connector-curvature="0" /><path
   d="M 35.57,242.94 H 210.23"
   style="fill:none;stroke:#dedede;stroke-width:0.27000001;stroke-linecap:butt;stroke-linejoin:round;stroke-miterlimit:10;stroke-dasharray:none;stroke-opacity:1"
   id="path72"
   inkscape:connector-curvature="0" /><path
   d="M 48.58,33.52 V 263.57"
   style="fill:none;stroke:#dedede;stroke-width:0.27000001;stroke-linecap:butt;stroke-linejoin:round;stroke-miterlimit:10;stroke-dasharray:none;stroke-opacity:1"
   id="path74"
   inkscape:connector-curvature="0" /><path
   d="M 99.29,33.52 V 263.57"
   style="fill:none;stroke:#dedede;stroke-width:0.27000001;stroke-linecap:butt;stroke-linejoin:round;stroke-miterlimit:10;stroke-dasharray:none;stroke-opacity:1"
   id="path76"
   inkscape:connector-curvature="0" /><path
   d="M 150,33.52 V 263.57"
   style="fill:none;stroke:#dedede;stroke-width:0.27000001;stroke-linecap:butt;stroke-linejoin:round;stroke-miterlimit:10;stroke-dasharray:none;stroke-opacity:1"
   id="path78"
   inkscape:connector-curvature="0" /><path
   d="M 200.71,33.52 V 263.57"
   style="fill:none;stroke:#dedede;stroke-width:0.27000001;stroke-linecap:butt;stroke-linejoin:round;stroke-miterlimit:10;stroke-dasharray:none;stroke-opacity:1"
   id="path80"
   inkscape:connector-curvature="0" /><path
   d="M 35.57,43.98 H 210.23"
   style="fill:none;stroke:#dedede;stroke-width:0.52999997;stroke-linecap:butt;stroke-linejoin:round;stroke-miterlimit:10;stroke-dasharray:none;stroke-opacity:1"
   id="path82"
   inkscape:connector-curvature="0" /><path
   d="M 35.57,88.19 H 210.23"
   style="fill:none;stroke:#dedede;stroke-width:0.52999997;stroke-linecap:butt;stroke-linejoin:round;stroke-miterlimit:10;stroke-dasharray:none;stroke-opacity:1"
   id="path84"
   inkscape:connector-curvature="0" /><path
   d="M 35.57,132.41 H 210.23"
   style="fill:none;stroke:#dedede;stroke-width:0.52999997;stroke-linecap:butt;stroke-linejoin:round;stroke-miterlimit:10;stroke-dasharray:none;stroke-opacity:1"
   id="path86"
   inkscape:connector-curvature="0" /><path
   d="M 35.57,176.62 H 210.23"
   style="fill:none;stroke:#dedede;stroke-width:0.52999997;stroke-linecap:butt;stroke-linejoin:round;stroke-miterlimit:10;stroke-dasharray:none;stroke-opacity:1"
   id="path88"
   inkscape:connector-curvature="0" /><path
   d="M 35.57,220.83 H 210.23"
   style="fill:none;stroke:#dedede;stroke-width:0.52999997;stroke-linecap:butt;stroke-linejoin:round;stroke-miterlimit:10;stroke-dasharray:none;stroke-opacity:1"
   id="path90"
   inkscape:connector-curvature="0" /><path
   d="M 73.93,33.52 V 263.57"
   style="fill:none;stroke:#dedede;stroke-width:0.52999997;stroke-linecap:butt;stroke-linejoin:round;stroke-miterlimit:10;stroke-dasharray:none;stroke-opacity:1"
   id="path92"
   inkscape:connector-curvature="0" /><path
   d="M 124.64,33.52 V 263.57"
   style="fill:none;stroke:#dedede;stroke-width:0.52999997;stroke-linecap:butt;stroke-linejoin:round;stroke-miterlimit:10;stroke-dasharray:none;stroke-opacity:1"
   id="path94"
   inkscape:connector-curvature="0" /><path
   d="M 175.35,33.52 V 263.57"
   style="fill:none;stroke:#dedede;stroke-width:0.52999997;stroke-linecap:butt;stroke-linejoin:round;stroke-miterlimit:10;stroke-dasharray:none;stroke-opacity:1"
   id="path96"
   inkscape:connector-curvature="0" /><path
   d="m 52.71,76.16 1.89,0.18 1.9,0.19 1.89,0.18 1.89,0.19 1.9,0.19 1.89,0.19 1.89,0.2 1.9,0.2 1.89,0.19 1.89,0.21 1.9,0.2 1.89,0.21 1.89,0.2 1.9,0.22 1.89,0.21 1.89,0.22 1.9,0.22 1.89,0.23 1.89,0.23 1.9,0.23 1.89,0.24 1.9,0.24 1.89,0.24 1.89,0.25 1.9,0.26 1.89,0.26 1.89,0.26 1.9,0.27 1.89,0.28 1.89,0.28 1.9,0.28 1.89,0.3 1.89,0.29 1.9,0.31 1.89,0.31 1.89,0.31 1.9,0.32 1.89,0.33 1.89,0.33 1.9,0.34 1.89,0.34 1.89,0.35 1.9,0.35 1.89,0.36 1.9,0.36 1.89,0.37 1.89,0.37 1.9,0.38 1.89,0.38 1.89,0.38 1.9,0.39 1.89,0.4 1.89,0.39 1.9,0.4 1.89,0.4 1.89,0.41 1.9,0.41 1.89,0.41 1.89,0.41 1.9,0.42 1.89,0.42 1.89,0.42 1.9,0.42 1.89,0.42 1.89,0.43 1.9,0.43 1.89,0.43 1.9,0.43 1.89,0.43 1.89,0.44 1.9,0.43 1.89,0.44 1.89,0.44 1.9,0.44 1.89,0.44 1.89,0.44 1.9,0.44 1.89,0.44 1.89,0.45 V 84.81 l -1.89,-0.18 -1.89,-0.17 -1.9,-0.17 -1.89,-0.18 -1.89,-0.17 -1.9,-0.18 -1.89,-0.18 -1.89,-0.18 -1.9,-0.18 -1.89,-0.18 -1.89,-0.18 -1.9,-0.19 -1.89,-0.18 -1.9,-0.19 -1.89,-0.19 -1.89,-0.19 -1.9,-0.2 -1.89,-0.19 -1.89,-0.2 -1.9,-0.2 -1.89,-0.21 -1.89,-0.2 -1.9,-0.21 -1.89,-0.21 -1.89,-0.21 -1.9,-0.22 -1.89,-0.22 -1.89,-0.22 -1.9,-0.23 -1.89,-0.23 -1.89,-0.24 -1.9,-0.24 -1.89,-0.24 -1.89,-0.25 -1.9,-0.25 -1.89,-0.26 -1.9,-0.27 -1.89,-0.26 -1.89,-0.28 -1.9,-0.28 -1.89,-0.28 -1.89,-0.29 -1.9,-0.3 -1.89,-0.3 -1.89,-0.3 -1.9,-0.32 -1.89,-0.32 -1.89,-0.32 -1.9,-0.33 -1.89,-0.34 -1.89,-0.34 -1.9,-0.34 -1.89,-0.35 -1.89,-0.36 -1.9,-0.36 -1.89,-0.37 -1.89,-0.37 -1.9,-0.37 -1.89,-0.38 -1.9,-0.39 -1.89,-0.38 -1.89,-0.4 -1.9,-0.39 -1.89,-0.4 -1.89,-0.4 -1.9,-0.4 -1.89,-0.41 -1.89,-0.41 -1.9,-0.41 -1.89,-0.42 -1.89,-0.42 -1.9,-0.42 -1.89,-0.42 -1.89,-0.42 -1.9,-0.43 -1.89,-0.42 -1.89,-0.43 -1.9,-0.43 -1.89,-0.44 z"
   style="fill:#999999;fill-opacity:0.4;fill-rule:nonzero;stroke:none"
   id="path98"
   inkscape:connector-curvature="0" /><path
   d="m 52.71,68.99 1.89,0.31 1.9,0.31 1.89,0.3 1.89,0.31 1.9,0.31 1.89,0.31 1.89,0.31 1.9,0.3 1.89,0.31 1.89,0.31 1.9,0.31 1.89,0.31 1.89,0.31 1.9,0.3 1.89,0.31 1.89,0.31 1.9,0.31 1.89,0.31 1.89,0.3 1.9,0.31 1.89,0.31 1.9,0.31 1.89,0.31 1.89,0.3 1.9,0.31 1.89,0.31 1.89,0.31 1.9,0.31 1.89,0.31 1.89,0.3 1.9,0.31 1.89,0.31 1.89,0.31 1.9,0.31 1.89,0.3 1.89,0.31 1.9,0.31 1.89,0.31 1.89,0.31 1.9,0.31 1.89,0.3 1.89,0.31 1.9,0.31 1.89,0.31 1.9,0.31 1.89,0.3 1.89,0.31 1.9,0.31 1.89,0.31 1.89,0.31 1.9,0.3 1.89,0.31 1.89,0.31 1.9,0.31 1.89,0.31 1.89,0.31 1.9,0.3 1.89,0.31 1.89,0.31 1.9,0.31 1.89,0.31 1.89,0.3 1.9,0.31 1.89,0.31 1.89,0.31 1.9,0.31 1.89,0.3 1.9,0.31 1.89,0.31 1.89,0.31 1.9,0.31 1.89,0.31 1.89,0.3 1.9,0.31 1.89,0.31 1.89,0.31 1.9,0.31 1.89,0.3 1.89,0.31"
   style="fill:none;stroke:#e78ac3;stroke-width:2.13000011;stroke-linecap:butt;stroke-linejoin:round;stroke-miterlimit:10;stroke-dasharray:none;stroke-opacity:1"
   id="path100"
   inkscape:connector-curvature="0" /><text
   transform="matrix(1,0,0,-1,43.51,235.71)"
   style="font-style:oblique;font-variant:normal;font-size:11px;font-family:Helvetica;-inkscape-font-specification:Helvetica-Oblique;writing-mode:lr-tb;fill:#e78ac3;fill-opacity:1;fill-rule:nonzero;stroke:none"
   id="text104"><tspan
     x="0"
     y="0"
     id="tspan102">R</tspan></text>
<text
   transform="matrix(1,0,0,-1,54.2,235.71)"
   style="font-variant:normal;font-weight:normal;font-size:11px;font-family:Helvetica;-inkscape-font-specification:Helvetica;writing-mode:lr-tb;fill:#e78ac3;fill-opacity:1;fill-rule:nonzero;stroke:none"
   id="text108"><tspan
     x="0"
     y="0"
     id="tspan106">=</tspan></text>
<text
   transform="matrix(1,0,0,-1,63.37,235.71)"
   style="font-variant:normal;font-weight:normal;font-size:11px;font-family:Helvetica;-inkscape-font-specification:Helvetica;writing-mode:lr-tb;fill:#e78ac3;fill-opacity:1;fill-rule:nonzero;stroke:none"
   id="text112"
   y="0"><tspan
     x="0 6.1160002 9.1739998 15.29"
     y="0"
     sodipodi:role="line"
     id="tspan110">0.23</tspan></text>
<text
   transform="matrix(1,0,0,-1,84.78,235.71)"
   style="font-variant:normal;font-weight:normal;font-size:11px;font-family:Helvetica;-inkscape-font-specification:Helvetica;writing-mode:lr-tb;fill:#e78ac3;fill-opacity:1;fill-rule:nonzero;stroke:none"
   id="text116"><tspan
     x="0"
     y="0"
     id="tspan114">,</tspan></text>
<text
   transform="matrix(1,0,0,-1,90.59,235.71)"
   style="font-style:oblique;font-variant:normal;font-size:11px;font-family:Helvetica;-inkscape-font-specification:Helvetica-Oblique;writing-mode:lr-tb;fill:#e78ac3;fill-opacity:1;fill-rule:nonzero;stroke:none"
   id="text120"><tspan
     x="0"
     y="0"
     id="tspan118">p</tspan></text>
<text
   transform="matrix(1,0,0,-1,99.45,235.71)"
   style="font-variant:normal;font-weight:normal;font-size:11px;font-family:Helvetica;-inkscape-font-specification:Helvetica;writing-mode:lr-tb;fill:#e78ac3;fill-opacity:1;fill-rule:nonzero;stroke:none"
   id="text124"><tspan
     x="0"
     y="0"
     id="tspan122">=</tspan></text>
<text
   transform="matrix(1,0,0,-1,108.63,235.71)"
   style="font-variant:normal;font-weight:normal;font-size:11px;font-family:Helvetica;-inkscape-font-specification:Helvetica;writing-mode:lr-tb;fill:#e78ac3;fill-opacity:1;fill-rule:nonzero;stroke:none"
   id="text128"
   y="0"><tspan
     x="0 6.1160002 9.1739998 15.29 21.406 27.521999 33.638"
     y="0"
     sodipodi:role="line"
     id="tspan126">0.00022</tspan></text>
<path
   d="m 202.29,119.22 -1.52,1.02 -1.52,0.87 -0.07,0.04 -1.45,0.84 -1.52,0.76 -1.52,0.66 -1.52,0.55 -0.15,0.05 -1.37,0.64 -1.53,0.6 -1.52,0.5 -1.52,0.41 -1.52,0.32 -1.52,0.23 -1.52,0.15 -0.17,0.01 -1.35,0.11 -1.52,-0.02 -0.75,-0.09 -0.78,-0.05 -1.52,-0.19 -1.52,-0.27 -1.52,-0.37 -1.52,-0.48 -1.52,-0.58 -1.52,-0.7 -0.41,-0.22 -1.11,-0.37 -1.53,-0.59 -1.52,-0.67 -1.52,-0.78 -0.79,-0.45 -0.73,-0.32 -1.52,-0.75 -1.52,-0.85 -1.49,-0.94 -0.03,-0.02 -1.52,-0.95 -1.53,-1.08 -1.02,-0.8 -0.5,-0.42 -1.52,-1.36 -1.1,-1.08 -0.42,-0.48 -1.52,-1.8 -0.47,-0.58 -1.05,-1.53 -0.91,-1.33 -0.61,-1.09 -1.05,-1.77 -0.47,-1.06 -0.9,-1.8 -0.62,-2.22 -0.21,-0.63 -0.15,-2.86 0.29,-2.86 0.07,-1.33 0.06,-1.53 -0.06,-0.73 -0.19,-2.13 -0.41,-2.86 -0.19,-2.85 0.3,-2.86 0.49,-1.93 0.23,-0.93 0.53,-2.86 -0.76,-2.66 -0.1,-0.2 -1.43,-1.13 -1.52,-0.72 -1.52,-0.32 -1.52,-0.01 -1.52,0.26 -1.52,0.45 -1.52,0.61 -1.52,0.73 -0.24,0.13 -1.29,0.74 -1.52,0.89 -1.52,0.88 -0.58,0.35 -0.94,0.65 -1.52,1.02 -1.52,0.93 -0.44,0.26 -1.08,0.81 -1.52,1.03 -1.53,0.91 -0.19,0.11 -1.33,1.02 -1.52,1.02 -1.38,0.82 -0.14,0.13 -1.52,1.34 -1.52,1.15 -0.33,0.23 -1.19,2.48 -0.21,0.38 0.21,0.37 1.52,2.48 0.01,0.01 1.51,1.2 1.52,1.2 0.6,0.46 0.92,0.98 1.52,1.61 0.27,0.27 -0.27,2.83 v 0.03 l -1.52,1.15 -1.52,1.11 -0.84,0.59 -0.68,0.3 -1.52,0.66 -1.52,0.62 -1.52,0.6 -1.53,0.55 -0.36,0.13 -1.16,0.42 -1.52,0.52 -1.52,0.48 -1.52,0.46 -1.52,0.43 -1.52,0.39 -0.64,0.16 -0.88,0.32 -1.52,0.51 -1.53,0.47 -1.52,0.43 -1.52,0.4 -1.52,0.37 -1.52,0.32 -0.19,0.04 -1.33,0.56 -1.52,0.58 -1.52,0.5 -1.53,0.44 -1.52,0.36 -1.52,0.29 -0.89,0.13 -0.63,0.23 -1.52,0.32 -1.52,0.09 -1.52,-0.14 -1.52,-0.38 -0.3,-0.12 -1.23,-0.23 -1.52,-0.41 -1.52,-0.57 -1.52,-0.75 -1.42,-0.9 -0.1,-0.03 -1.52,-0.52 -1.52,-0.63 -1.52,-0.78 -1.44,-0.9 -0.09,-0.03 -1.52,-0.66"
   style="fill:none;stroke:#e78ac3;stroke-width:1.07000005;stroke-linecap:butt;stroke-linejoin:round;stroke-miterlimit:10;stroke-dasharray:none;stroke-opacity:1"
   id="path130"
   inkscape:connector-curvature="0" /><path
   d="m 142.94,43.98 -0.86,2.86 -0.34,2.86 -0.29,1.09 -0.64,1.76 -0.89,1.1 -1.52,1.27 -0.98,0.49 -0.54,0.24 -1.52,0.33 -1.52,0.05 -1.52,-0.17 -1.52,-0.34 -0.33,-0.11 -1.19,-0.34 -1.53,-0.51 -1.52,-0.57 -1.52,-0.58 -1.52,-0.59 -0.66,-0.27 -0.86,-0.4 -1.52,-0.74 -1.52,-0.7 -1.52,-0.67 -0.81,-0.34 -0.72,-0.45 -1.52,-0.93 -1.52,-0.86 -1.16,-0.62 -0.36,-0.29 -1.52,-1.21 -1.52,-1.09 -0.39,-0.27"
   style="fill:none;stroke:#e78ac3;stroke-width:1.07000005;stroke-linecap:butt;stroke-linejoin:round;stroke-miterlimit:10;stroke-dasharray:none;stroke-opacity:1"
   id="path132"
   inkscape:connector-curvature="0" /><path
   d="m 202.29,105.45 -1.29,1.41 -0.23,0.3 -1.52,1.9 -0.57,0.66 -0.95,1.14 -1.52,1.63 -0.09,0.09 -1.43,1.19 -1.52,1.07 -1,0.6 -0.52,0.26 -1.53,0.65 -1.52,0.54 -1.52,0.42 -1.52,0.33 -1.52,0.24 -1.52,0.15 -1.52,0.07 h -1.52 l -1.53,-0.07 -1.52,-0.15 -1.52,-0.21 -1.52,-0.28 -1.52,-0.36 -1.52,-0.43 -1.52,-0.52 -1.52,-0.59 -0.12,-0.05 -1.41,-0.67 -1.52,-0.81 -1.52,-0.92 -0.7,-0.46 -0.82,-0.64 -1.52,-1.3 -0.98,-0.92 -0.54,-0.63 -1.52,-1.92 -0.23,-0.31 -1.29,-2.31 -0.3,-0.55 -1.04,-2.86 -0.19,-0.84 -0.43,-2.01 -0.36,-2.86 -0.4,-2.86 -0.33,-1.32 -0.37,-1.54 -0.95,-2.86 -0.2,-0.63 -0.67,-2.23 -0.34,-2.85 0.49,-2.86 0.52,-1.2 0.76,-1.66 0.76,-1.39 0.89,-1.47 0.63,-1.61 0.55,-1.25 -0.01,-2.85 -0.54,-1.77 -0.36,-1.09 -0.67,-2.86 0.21,-2.86 0.58,-2.86 0.11,-2.86 -0.44,-2.85 -0.27,-2.86 0.84,-2.72 0.05,-0.14"
   style="fill:none;stroke:#e78ac3;stroke-width:1.07000005;stroke-linecap:butt;stroke-linejoin:round;stroke-miterlimit:10;stroke-dasharray:none;stroke-opacity:1"
   id="path134"
   inkscape:connector-curvature="0" /><path
   d="m 97.51,43.98 1.34,0.76 1.52,0.98 1.52,1.12 h 0.01 l 1.51,0.78 1.53,0.88 1.52,0.97 0.34,0.23 1.18,0.54 1.52,0.76 1.52,0.84 1.2,0.71 0.32,0.17 1.52,0.78 1.52,0.86 1.53,0.93 0.19,0.12 1.33,0.94 1.52,1.14 0.99,0.78 0.53,0.77 1.43,2.09 -0.11,2.86 -1.32,1.99 -0.56,0.87 -0.96,0.9 -1.52,1.39 -0.64,0.56 -0.88,0.71 -1.53,1.13 -1.52,1.02 v 0 l -1.52,1.09 -1.52,0.97 -1.43,0.8 -0.09,0.06 -1.52,1 -1.52,0.88 -1.52,0.78 -0.28,0.14 -1.25,0.8 -1.52,0.88 -1.52,0.79 -0.8,0.39 -0.72,0.52 -1.52,1.02 -1.52,0.91 -0.71,0.4 -0.81,0.96 -1.52,1.61 -0.3,0.29 0.3,2.61 0.03,0.25 1.49,1.69 1.06,1.17 0.46,0.65 1.52,2.12 0.06,0.09 -0.06,0.27 -0.59,2.59 -0.93,0.65 -1.52,0.98 -1.52,0.89 -0.62,0.33 -0.9,0.33 -1.53,0.5 -1.52,0.46 -1.52,0.4 -1.52,0.35 -1.52,0.3 -1.52,0.26 -1.52,0.22 -0.4,0.04 -1.12,0.15 -1.53,0.14 -1.52,0.11 -1.52,0.05 -1.52,0.01 -1.52,-0.04 -1.52,-0.09 -1.52,-0.15 -1.29,-0.18 -0.23,-0.02 -1.53,-0.24 -1.52,-0.29 -1.52,-0.36 -1.52,-0.43 -1.52,-0.51 -1.52,-0.6 -0.9,-0.41 -0.62,-0.35 -1.52,-0.95 -1.53,-1.1 -0.57,-0.45 -0.95,-1.28"
   style="fill:none;stroke:#e78ac3;stroke-width:1.07000005;stroke-linecap:butt;stroke-linejoin:round;stroke-miterlimit:10;stroke-dasharray:none;stroke-opacity:1"
   id="path136"
   inkscape:connector-curvature="0" /><path
   d="m 202.29,95.74 -1.52,2.1 -0.34,0.45 -1.18,1.26 -1.52,1.53 -0.07,0.06 -1.45,1.34 -1.52,1.3 -0.28,0.22 -1.24,1.09 -1.52,1.21 -0.78,0.56 -0.75,0.59 -1.52,1.05 -1.52,0.89 -0.69,0.33 -0.83,0.38 -1.52,0.54 -1.52,0.38 -1.52,0.24 -1.52,0.11 -1.53,-0.02 -1.52,-0.15 -1.52,-0.27 -1.52,-0.39 -1.52,-0.52 -0.72,-0.3 -0.8,-0.39 -1.52,-0.9 -1.52,-1.07 -0.62,-0.5 -0.91,-0.91 -1.52,-1.77 -0.13,-0.18 -1.39,-2.47 -0.19,-0.39 -0.99,-2.85 -0.34,-1.3 -0.38,-1.56 -0.83,-2.86 -0.31,-0.71 -0.87,-2.15 -0.65,-1.23 -0.79,-1.63 -0.73,-1.68 -0.48,-1.18 -0.49,-2.85 0.57,-2.86 0.4,-0.73 1.25,-2.13 0.27,-0.37 1.52,-1.89 0.54,-0.6 0.98,-1.43 1.13,-1.43 0.39,-1.21 0.6,-1.64 -0.15,-2.86 -0.29,-2.86 0.25,-2.86 0.37,-2.86 -0.35,-2.86 -0.43,-1.15 -0.57,-1.7 -0.52,-2.86 1.09,-2.2 0.36,-0.66"
   style="fill:none;stroke:#e78ac3;stroke-width:1.07000005;stroke-linecap:butt;stroke-linejoin:round;stroke-miterlimit:10;stroke-dasharray:none;stroke-opacity:1"
   id="path138"
   inkscape:connector-curvature="0" /><path
   d="m 89.23,43.98 0.49,0.19 1.53,0.64 1.52,0.73 1.52,0.84 0.74,0.46 0.78,0.33 1.52,0.7 1.52,0.79 1.52,0.88 0.25,0.16 1.27,0.54 1.52,0.71 1.53,0.8 1.39,0.8 0.13,0.06 1.52,0.77 1.52,0.84 1.52,0.93 0.41,0.26 1.11,0.8 1.52,1.17 1.07,0.89 0.45,0.67 1.43,2.19 v 2.86 l -1.43,2.38 -0.28,0.48 -1.24,1.21 -1.52,1.37 -0.32,0.27 -1.2,0.93 -1.52,1.05 -1.43,0.88 -0.09,0.06 -1.52,0.99 -1.52,0.87 -1.53,0.76 -0.37,0.18 -1.15,0.67 -1.52,0.81 -1.52,0.73 -1.52,0.65 v 0 l -1.52,0.83 -1.52,0.76 -1.52,0.69 -1.38,0.58 -0.14,0.09 -1.53,0.88 -1.52,0.79 -1.52,0.72 -0.84,0.37 -0.68,0.54 -1.52,1.08 -1.52,0.93 -0.6,0.31 -0.92,2.13 -0.42,0.73 0.42,0.55 1.52,1.94 0.29,0.37 1.23,1.71 0.83,1.15 -0.83,1.27 -1.28,1.59 -0.24,0.08 -1.52,0.44 -1.52,0.34 -1.53,0.26 -1.52,0.18 -1.52,0.09 H 72.99 L 71.47,99.61 69.95,99.44 68.43,99.2 66.91,98.86 65.38,98.43 64.97,98.29 63.86,97.49 62.34,96.25 61.44,95.43 60.82,93.62 60.46,92.57 59.3,90.7 58.68,89.71 57.78,89.19 56.26,88.23 54.74,87.17 54.32,86.85 53.21,86.3 51.69,85.44"
   style="fill:none;stroke:#e78ac3;stroke-width:1.07000005;stroke-linecap:butt;stroke-linejoin:round;stroke-miterlimit:10;stroke-dasharray:none;stroke-opacity:1"
   id="path140"
   inkscape:connector-curvature="0" /><path
   d="m 194.57,43.98 0.12,0.19 1.52,2.61 0.03,0.06 -0.03,0.38 -0.2,2.48 -0.53,2.85 0.41,2.86 0.32,0.62 1.1,2.24 0.42,0.69 1.23,2.17 0.29,0.61 1.01,2.25 0.51,1.29 0.58,1.57 0.94,2.07"
   style="fill:none;stroke:#e78ac3;stroke-width:1.07000005;stroke-linecap:butt;stroke-linejoin:round;stroke-miterlimit:10;stroke-dasharray:none;stroke-opacity:1"
   id="path142"
   inkscape:connector-curvature="0" /><path
   d="m 51.69,45.63 1.52,-0.71 1.53,-0.63 0.87,-0.31"
   style="fill:none;stroke:#e78ac3;stroke-width:1.07000005;stroke-linecap:butt;stroke-linejoin:round;stroke-miterlimit:10;stroke-dasharray:none;stroke-opacity:1"
   id="path144"
   inkscape:connector-curvature="0" /><path
   d="m 181,102.88 -1.52,0.07 -1.53,-0.12 -1.52,-0.32 -1.52,-0.57 -1.45,-0.8 -0.07,-0.05 -1.52,-1.35 -1.24,-1.45 -0.28,-0.4 -1.43,-2.46 -0.09,-0.15 -1.51,-2.71 -0.01,-0.02 -1.53,-2.25 -0.35,-0.59 -1.17,-1.53 -0.89,-1.33 -0.63,-1.02 -1.02,-1.84 -0.5,-2.06 -0.18,-0.79 0.18,-0.79 0.49,-2.07 1.03,-1.46 1.09,-1.4 0.43,-0.44 1.52,-1.39 1.31,-1.03 0.22,-0.21 1.52,-1.33 1.52,-1.11 0.32,-0.21 1.2,-1.42 1.52,-1.43 h 0.01 l 1.44,-2.86 0.07,-0.21 1.29,-2.65 0.23,-0.3 1.52,-1.3 1.53,-0.63 1.52,-0.11 1.52,0.28 1.52,0.61 1.52,0.87 0.78,0.58 0.74,0.58 1.52,1.45 0.73,0.83 0.79,0.75 1.53,1.77 0.24,0.34 1.28,1.13 1.52,1.69 0.02,0.03 1.5,1.4 1.27,1.46 0.25,0.27 1.52,1.93 0.46,0.66 1.06,2.17 0.31,0.69 0.45,2.86 -0.39,2.85 -0.37,1.06 -0.69,1.8 -0.83,1.7 -0.64,1.16 -0.88,1.51 -0.9,1.35 -0.62,0.88 -1.52,1.9 -0.07,0.08 -1.45,1.42 -1.52,1.33 -0.14,0.11 -1.39,0.96 -1.52,0.95 -1.52,0.82 -0.27,0.12 -1.25,0.56 -1.52,0.54 -1.52,0.39 -1.52,0.25"
   style="fill:none;stroke:#e78ac3;stroke-width:1.07000005;stroke-linecap:butt;stroke-linejoin:round;stroke-miterlimit:10;stroke-dasharray:none;stroke-opacity:1"
   id="path146"
   inkscape:connector-curvature="0" /><path
   d="m 78.58,43.98 0.5,0.06 1.52,0.26 1.52,0.32 1.52,0.39 1.52,0.46 1.52,0.54 1.52,0.63 0.43,0.2 1.09,0.35 1.53,0.55 1.52,0.62 1.52,0.71 1.2,0.63 0.32,0.11 1.52,0.59 1.52,0.66 1.52,0.74 1.41,0.75 0.11,0.06 1.52,0.71 1.53,0.8 1.52,0.89 0.66,0.4 0.86,0.6 1.52,1.13 1.39,1.13 0.13,0.19 1.52,2.25 0.27,0.42 0.02,2.86 -0.29,0.49 -1.44,2.37 -0.08,0.07 -1.52,1.43 -1.52,1.27 -0.1,0.08 -1.42,1.02 -1.52,0.96 -1.53,0.85 -0.06,0.03 -1.46,0.85 -1.52,0.8 -1.52,0.7 -1.21,0.51 -0.31,0.16 -1.52,0.76 -1.52,0.68 -1.52,0.62 -1.52,0.56 -0.24,0.08 -1.29,0.6 -1.52,0.66 -1.52,0.6 -1.52,0.55 -1.34,0.45 -0.18,0.08 -1.52,0.66 -1.52,0.59 -1.52,0.52 -1.53,0.46 -1.52,0.4 -0.66,0.14 -0.86,0.3 -1.52,0.43 -1.52,0.31 -1.52,0.21 -1.52,0.11 -1.52,0.02 -1.53,-0.08 -1.52,-0.17 -1.52,-0.26 -1.52,-0.37 -1.52,-0.46 -0.1,-0.04 -1.42,-0.43 -1.52,-0.57 -1.52,-0.7 -1.53,-0.84 -0.5,-0.31 -1.02,-0.66"
   style="fill:none;stroke:#e78ac3;stroke-width:1.07000005;stroke-linecap:butt;stroke-linejoin:round;stroke-miterlimit:10;stroke-dasharray:none;stroke-opacity:1"
   id="path148"
   inkscape:connector-curvature="0" /><path
   d="m 181,50.07 -1.52,0.37 -1.53,-0.12 -1.52,-0.56 -0.1,-0.06 -1.42,-2.01 -0.43,-0.85 0.43,-0.23 1.52,-0.52 1.52,-0.26 1.53,-0.02 1.52,0.24 1.52,0.47 0.67,0.32 -0.67,1.59 -0.87,1.27 -0.65,0.37"
   style="fill:none;stroke:#e78ac3;stroke-width:1.07000005;stroke-linecap:butt;stroke-linejoin:round;stroke-miterlimit:10;stroke-dasharray:none;stroke-opacity:1"
   id="path150"
   inkscape:connector-curvature="0" /><path
   d="m 66.18,43.98 -0.8,0.11 -1.52,0.25 -1.52,0.32 -1.52,0.37 -1.52,0.45 -1.52,0.52 -1.52,0.61 -0.51,0.23 -1.01,0.32 -1.53,0.55 -1.52,0.63"
   style="fill:none;stroke:#e78ac3;stroke-width:1.07000005;stroke-linecap:butt;stroke-linejoin:round;stroke-miterlimit:10;stroke-dasharray:none;stroke-opacity:1"
   id="path152"
   inkscape:connector-curvature="0" /><path
   d="m 185.56,92.62 -1.52,0.43 -1.52,0.19 -1.52,-0.05 -1.52,-0.3 -0.85,-0.32 -0.68,-0.2 -1.52,-0.66 -1.52,-0.88 -1.5,-1.12 -0.02,-0.01 -1.52,-1.08 -1.52,-1.3 -0.47,-0.47 -1.05,-1.11 -1.42,-1.75 -0.1,-0.27 -0.87,-2.58 0.84,-2.86 0.03,-0.03 1.52,-1.55 1.45,-1.28 0.07,-0.05 1.52,-0.93 1.52,-0.78 1.52,-0.65 1.3,-0.45 0.22,-0.09 1.52,-0.49 1.53,-0.35 1.52,-0.21 1.52,-0.07 1.52,0.07 1.52,0.22 1.52,0.39 1.43,0.53 0.09,0.03 1.52,0.68 1.53,0.89 1.52,1.13 0.15,0.13 1.37,1.66 0.83,1.2 0.63,2.86 -0.71,2.85 -0.75,1.29 -1.09,1.57 -0.43,0.52 -1.52,1.54 -0.99,0.8 -0.54,0.46 -1.52,1.07 -1.52,0.8 -1.4,0.53 -0.12,0.05"
   style="fill:none;stroke:#e78ac3;stroke-width:1.07000005;stroke-linecap:butt;stroke-linejoin:round;stroke-miterlimit:10;stroke-dasharray:none;stroke-opacity:1"
   id="path154"
   inkscape:connector-curvature="0" /><path
   d="m 51.69,50.36 1.52,-0.54 0.38,-0.12 1.15,-0.51 1.52,-0.58 1.52,-0.51 1.52,-0.43 1.52,-0.37 1.52,-0.31 0.89,-0.15 0.63,-0.16 1.52,-0.31 1.53,-0.24 1.52,-0.18 1.52,-0.12 1.52,-0.06 h 1.52 l 1.52,0.07 1.52,0.12 1.52,0.19 1.53,0.25 1.52,0.33 0.41,0.11 1.11,0.19 1.52,0.33 1.52,0.38 1.52,0.44 1.52,0.51 1.52,0.6 0.95,0.41 0.58,0.17 1.52,0.5 1.52,0.57 1.52,0.64 1.52,0.71 0.52,0.26 1,0.43 1.52,0.7 1.52,0.78 1.52,0.88 0.13,0.07 1.4,0.93 1.52,1.11 1.03,0.82 0.49,0.69 1.47,2.17 0.02,2.86 -1.49,2.4 -0.3,0.46 -1.22,1.1 -1.52,1.23 -0.7,0.52 -0.83,0.55 -1.52,0.94 -1.52,0.82 -1.14,0.55 -0.38,0.21 -1.52,0.77 -1.52,0.69 -1.52,0.61 -1.52,0.55 -0.09,0.03 -1.43,0.63 -1.53,0.6 -1.52,0.55 -1.52,0.5 -1.52,0.45 -0.48,0.13 -1.04,0.39 -1.52,0.52 -1.52,0.46 -1.52,0.42 -1.53,0.37 -1.52,0.32 -1.52,0.27 -0.72,0.11 -0.8,0.15 -1.52,0.23 -1.52,0.15 -1.52,0.07 -1.52,-0.01 -1.53,-0.09 -1.52,-0.17 -1.52,-0.28 -0.22,-0.05 -1.3,-0.28 -1.52,-0.44 -1.52,-0.56 -1.52,-0.71 -1.51,-0.87 -0.01,-0.01 -1.53,-0.87 -1.52,-1.07"
   style="fill:none;stroke:#e78ac3;stroke-width:1.07000005;stroke-linecap:butt;stroke-linejoin:round;stroke-miterlimit:10;stroke-dasharray:none;stroke-opacity:1"
   id="path156"
   inkscape:connector-curvature="0" /><path
   d="m 182.52,85.93 -1.52,0.02 -1.52,-0.2 -1.53,-0.41 -1.52,-0.62 -1.31,-0.73 -0.21,-0.23 -1.52,-2.19 -0.25,-0.43 0.25,-0.54 1.26,-2.32 0.26,-0.16 1.52,-0.72 1.52,-0.54 1.53,-0.36 1.52,-0.18 1.52,0.01 1.52,0.21 1.52,0.42 1.52,0.66 1.09,0.66 0.43,0.85 0.81,2.01 -0.81,1.53 -0.89,1.32 -0.63,0.44 -1.52,0.76 -1.52,0.49 -1.52,0.25"
   style="fill:none;stroke:#e78ac3;stroke-width:1.07000005;stroke-linecap:butt;stroke-linejoin:round;stroke-miterlimit:10;stroke-dasharray:none;stroke-opacity:1"
   id="path158"
   inkscape:connector-curvature="0" /><path
   d="m 51.69,51.95 1.52,-0.65 1.53,-0.55 1.52,-0.48 1.52,-0.41 0.67,-0.16 0.85,-0.29 1.52,-0.43 1.52,-0.37 1.52,-0.3 1.52,-0.25 1.53,-0.19 1.52,-0.14 1.52,-0.09 1.52,-0.04 h 1.52 l 1.52,0.06 1.52,0.1 1.52,0.15 1.53,0.21 1.52,0.26 1.52,0.32 1.52,0.39 1.52,0.45 0.46,0.16 1.06,0.24 1.52,0.41 1.52,0.46 1.53,0.52 1.52,0.59 1.44,0.63 0.08,0.03 1.52,0.59 1.52,0.66 1.52,0.74 1.52,0.82 0.03,0.02 1.49,0.94 1.52,1.06 1.14,0.86 0.39,0.52 1.52,2.14 0.13,0.2 0.02,2.86 -0.15,0.23 -1.52,2.3 -0.23,0.33 -1.3,1.09 -1.52,1.14 -0.9,0.62 -0.62,0.38 -1.52,0.87 -1.52,0.77 -1.52,0.67 -0.41,0.17 -1.11,0.52 -1.52,0.65 -1.52,0.57 -1.53,0.52 -1.52,0.46 -0.51,0.14 -1.01,0.37 -1.52,0.5 -1.52,0.46 -1.52,0.4 -1.52,0.36 -1.52,0.32 -1.53,0.28 -1.07,0.17 -0.45,0.09 -1.52,0.27 -1.52,0.21 -1.52,0.14 -1.52,0.08 -1.52,0.01 -1.52,-0.07 -1.53,-0.16 -1.52,-0.25 -1.41,-0.32 -0.11,-0.02 -1.52,-0.37 -1.52,-0.47 -1.52,-0.6 -1.52,-0.75 -1.08,-0.65 -0.44,-0.19 -1.53,-0.76 -1.52,-0.92"
   style="fill:none;stroke:#e78ac3;stroke-width:1.07000005;stroke-linecap:butt;stroke-linejoin:round;stroke-miterlimit:10;stroke-dasharray:none;stroke-opacity:1"
   id="path160"
   inkscape:connector-curvature="0" /><path
   d="m 51.69,53.36 1.52,-0.61 0.54,-0.2 0.99,-0.41 1.52,-0.55 1.52,-0.48 1.52,-0.41 1.52,-0.35 1.52,-0.29 1.52,-0.24 0.99,-0.12 0.53,-0.1 1.53,-0.22 1.52,-0.16 1.52,-0.1 1.52,-0.05 1.52,0.01 1.52,0.07 1.52,0.12 1.52,0.18 1.53,0.24 0.01,0.01 1.51,0.2 1.52,0.25 1.52,0.29 1.52,0.35 1.52,0.41 1.52,0.46 1.52,0.53 0.95,0.36 0.58,0.19 1.52,0.53 1.52,0.61 1.52,0.67 1.52,0.76 0.2,0.1 1.32,0.77 1.52,0.98 1.52,1.1 0.02,0.01 1.5,1.97 0.65,0.89 v 2.86 l -0.65,0.94 -1.39,1.92 -0.13,0.09 -1.52,1.18 -1.52,1.04 -0.88,0.54 -0.64,0.36 -1.52,0.79 -1.52,0.69 -1.52,0.61 -1.14,0.41 -0.38,0.16 -1.53,0.59 -1.52,0.52 -1.52,0.47 -1.52,0.41 -1.52,0.36 -1.52,0.32 -0.17,0.03 -1.35,0.34 -1.52,0.34 -1.53,0.28 -1.52,0.23 -1.52,0.19 -1.52,0.13 -1.52,0.07 -1.52,0.02 -1.52,-0.04 -1.52,-0.12 -1.53,-0.19 -1.52,-0.28 -1.52,-0.37 -1.52,-0.5 -0.26,-0.1 -1.26,-0.35 -1.52,-0.53 -1.52,-0.63 -1.52,-0.78 -0.96,-0.57 -0.57,-0.25 -1.52,-0.78"
   style="fill:none;stroke:#e78ac3;stroke-width:1.07000005;stroke-linecap:butt;stroke-linejoin:round;stroke-miterlimit:10;stroke-dasharray:none;stroke-opacity:1"
   id="path162"
   inkscape:connector-curvature="0" /><path
   d="m 51.69,54.66 1.52,-0.7 1.53,-0.6 1.52,-0.52 0.96,-0.29 0.56,-0.19 1.52,-0.47 1.52,-0.39 1.52,-0.33 1.52,-0.27 1.52,-0.22 1.53,-0.17 1.52,-0.12 1.52,-0.08 1.52,-0.04 1.52,0.01 1.52,0.05 1.52,0.1 1.52,0.14 1.53,0.18 1.52,0.23 1.52,0.28 1.52,0.34 1.52,0.39 1.52,0.46 0.32,0.1 1.2,0.33 1.52,0.47 1.53,0.54 1.52,0.6 1.52,0.68 0.5,0.24 1.02,0.54 1.52,0.89 1.52,0.99 0.64,0.44 0.88,1.09 1.35,1.77 -0.02,2.86 -1.33,1.8 -0.85,1.06 -0.67,0.49 -1.52,1.04 -1.52,0.92 -0.75,0.4 -0.77,0.39 -1.52,0.7 -1.52,0.62 -1.53,0.54 -1.52,0.47 -0.49,0.14 -1.03,0.35 -1.52,0.45 -1.52,0.4 -1.52,0.35 -1.52,0.3 -1.52,0.25 -1.53,0.21 -1.52,0.17 -1.52,0.12 -1.52,0.07 -1.52,0.04 -1.52,-0.02 -1.52,-0.07 -1.52,-0.12 -1.53,-0.18 -1.52,-0.26 -1.52,-0.33 -1.52,-0.41 -1.52,-0.52 -1.52,-0.63 -0.34,-0.17 -1.18,-0.43 -1.52,-0.65 -1.53,-0.77 -1.52,-0.9"
   style="fill:none;stroke:#e78ac3;stroke-width:1.07000005;stroke-linecap:butt;stroke-linejoin:round;stroke-miterlimit:10;stroke-dasharray:none;stroke-opacity:1"
   id="path164"
   inkscape:connector-curvature="0" /><path
   d="m 51.69,56.01 1.04,-0.6 0.48,-0.24 1.53,-0.67 1.52,-0.59 1.52,-0.49 1.52,-0.43 1.52,-0.36 0.37,-0.08 1.15,-0.27 1.52,-0.31 1.52,-0.24 1.53,-0.19 1.52,-0.14 1.52,-0.09 1.52,-0.04 1.52,0.01 1.52,0.06 1.52,0.11 1.52,0.15 1.53,0.2 1.52,0.26 1.52,0.32 0.73,0.17 0.79,0.16 1.52,0.35 1.52,0.4 1.52,0.46 1.52,0.52 1.53,0.6 0.87,0.37 0.65,0.31 1.52,0.79 1.52,0.87 1.38,0.89 0.14,0.16 1.52,1.82 0.7,0.88 -0.05,2.86 -0.65,0.84 -1.52,1.8 -0.2,0.22 -1.32,0.88 -1.52,0.91 -1.52,0.79 -0.59,0.27 -0.93,0.42 -1.53,0.61 -1.52,0.53 -1.52,0.46 -1.52,0.41 -1.52,0.34 -0.44,0.09 -1.08,0.27 -1.52,0.32 -1.52,0.27 -1.53,0.22 -1.52,0.16 -1.52,0.12 -1.52,0.07 -1.52,0.02 -1.52,-0.04 -1.52,-0.1 -1.52,-0.17 -1.53,-0.23 -1.52,-0.31 -1.52,-0.4 -0.63,-0.2 -0.89,-0.21 -1.52,-0.44 -1.52,-0.53 -1.52,-0.63 -1.52,-0.74 -0.55,-0.31 -0.98,-0.51 -1.52,-0.91"
   style="fill:none;stroke:#e78ac3;stroke-width:1.07000005;stroke-linecap:butt;stroke-linejoin:round;stroke-miterlimit:10;stroke-dasharray:none;stroke-opacity:1"
   id="path166"
   inkscape:connector-curvature="0" /><path
   d="m 51.69,57.43 1.52,-0.95 1.53,-0.82 0.5,-0.25 1.02,-0.42 1.52,-0.56 1.52,-0.47 1.52,-0.4 1.52,-0.33 1.52,-0.28 1.52,-0.22 1.53,-0.17 0.1,-0.01 1.42,-0.14 1.52,-0.09 1.52,-0.05 1.52,0.01 1.52,0.07 1.52,0.11 0.83,0.09 0.69,0.07 1.53,0.18 1.52,0.22 1.52,0.28 1.52,0.33 1.52,0.38 1.52,0.44 1.52,0.51 1.22,0.45 0.3,0.13 1.53,0.68 1.52,0.77 1.52,0.86 0.68,0.42 0.84,0.91 1.52,1.78 0.14,0.17 -0.08,2.86 -0.06,0.07 -1.52,1.76 -1,1.03 -0.52,0.33 -1.52,0.88 -1.52,0.77 -1.53,0.67 -0.5,0.2 -1.02,0.39 -1.52,0.51 -1.52,0.45 -1.52,0.38 -1.52,0.33 -1.52,0.28 -1.52,0.22 -1.53,0.18 -1.41,0.12 -0.11,0.01 -1.52,0.12 -1.52,0.06 -1.52,-0.01 -1.52,-0.06 -1.39,-0.12 -0.13,-0.01 -1.52,-0.15 -1.53,-0.2 -1.52,-0.27 -1.52,-0.34 -1.52,-0.41 -1.52,-0.5 -1.52,-0.6 -0.83,-0.38 -0.69,-0.3 -1.52,-0.74 -1.53,-0.87 -1.41,-0.94 -0.11,-0.11"
   style="fill:none;stroke:#e78ac3;stroke-width:1.07000005;stroke-linecap:butt;stroke-linejoin:round;stroke-miterlimit:10;stroke-dasharray:none;stroke-opacity:1"
   id="path168"
   inkscape:connector-curvature="0" /><path
   d="m 51.69,59.35 0.81,-1.08 0.71,-0.47 1.53,-0.9 1.52,-0.78 1.52,-0.66 0.12,-0.05 1.4,-0.47 1.52,-0.44 1.52,-0.37 1.52,-0.31 1.52,-0.24 1.53,-0.19 1.52,-0.13 1.52,-0.09 1.52,-0.04 1.52,0.01 1.52,0.06 1.52,0.1 1.52,0.14 1.53,0.2 1.52,0.25 1.52,0.3 1.52,0.35 1.52,0.42 1.44,0.45 0.08,0.03 1.52,0.58 1.52,0.66 1.53,0.74 1.52,0.83 0.02,0.02 1.5,1.54 1.17,1.32 -0.11,2.86 -1.06,1.15 -1.52,1.47 -0.27,0.24 -1.25,0.69 -1.53,0.75 -1.52,0.64 -1.52,0.56 -0.66,0.21 -0.86,0.27 -1.52,0.42 -1.52,0.36 -1.52,0.3 -1.52,0.24 -1.53,0.19 -1.52,0.14 -1.52,0.09 -1.52,0.04 -1.52,-0.01 -1.52,-0.06 -1.52,-0.11 -1.52,-0.18 -1.53,-0.23 -1.52,-0.31 -1.52,-0.38 -1.52,-0.46 -0.85,-0.31 -0.67,-0.23 -1.52,-0.6 -1.52,-0.7 -1.52,-0.83 -0.82,-0.49 -0.71,-0.62 -1.52,-1.48"
   style="fill:none;stroke:#e78ac3;stroke-width:1.07000005;stroke-linecap:butt;stroke-linejoin:round;stroke-miterlimit:10;stroke-dasharray:none;stroke-opacity:1"
   id="path170"
   inkscape:connector-curvature="0" /><path
   d="m 82.12,69.74 -1.52,0.32 -1.52,0.26 -1.53,0.2 -1.52,0.15 -1.52,0.09 -1.52,0.04 -1.52,-0.01 -1.52,-0.08 -1.52,-0.13 -1.52,-0.19 -1.53,-0.27 -1.52,-0.34 -0.28,-0.08 -1.24,-0.31 -1.52,-0.47 -1.52,-0.55 -1.52,-0.66 -1.52,-0.77 -0.16,-0.09 -1.36,-1.08 -1.53,-1.39 -0.38,-0.39 -0.55,-2.86 0.93,-1.28 1.3,-1.58 0.23,-0.13 1.52,-0.85 1.52,-0.72 1.52,-0.62 1.52,-0.52 0.06,-0.02 1.46,-0.38 1.52,-0.33 1.52,-0.27 1.53,-0.2 1.52,-0.15 1.52,-0.1 1.52,-0.04 1.52,0.01 1.52,0.05 1.52,0.11 1.52,0.16 1.53,0.21 1.52,0.27 1.52,0.32 1.35,0.34 0.17,0.05 1.52,0.47 1.52,0.55 1.52,0.62 1.52,0.71 0.89,0.46 0.64,0.58 1.52,1.51 0.71,0.77 -0.15,2.86 -0.56,0.57 -1.52,1.4 -1.1,0.89 -0.43,0.22 -1.52,0.7 -1.52,0.62 -1.52,0.52 -1.52,0.45 -1.39,0.34 -0.13,0.04"
   style="fill:none;stroke:#e78ac3;stroke-width:1.07000005;stroke-linecap:butt;stroke-linejoin:round;stroke-miterlimit:10;stroke-dasharray:none;stroke-opacity:1"
   id="path172"
   inkscape:connector-curvature="0" /><path
   d="m 69.95,69.75 -0.44,-0.05 -1.08,-0.1 -1.52,-0.2 -1.53,-0.27 -1.52,-0.34 -1.52,-0.42 -1.52,-0.51 -1.52,-0.6 -0.89,-0.41 -0.63,-0.41 -1.52,-1.11 -1.52,-1.3 -0.05,-0.04 -0.59,-2.86 0.64,-0.8 1.52,-1.71 0.35,-0.35 1.17,-0.6 1.52,-0.67 1.52,-0.56 1.52,-0.47 1.52,-0.39 0.81,-0.17 0.71,-0.13 1.53,-0.22 1.52,-0.17 1.52,-0.1 1.52,-0.05 1.52,0.01 1.52,0.06 1.52,0.12 1.52,0.17 1.53,0.22 0.47,0.09 1.05,0.21 1.52,0.37 1.52,0.44 1.52,0.5 1.52,0.59 1.52,0.67 0.17,0.08 1.35,1.15 1.53,1.45 0.25,0.26 -0.19,2.86 -0.06,0.05 -1.53,1.33 -1.52,1.14 -0.5,0.34 -1.02,0.43 -1.52,0.57 -1.52,0.49 -1.52,0.41 -1.52,0.34 -1.52,0.27 -1.53,0.21 -1.34,0.13 -0.18,0.02 -1.52,0.1 -1.52,0.03 -1.52,-0.02 -1.52,-0.08"
   style="fill:none;stroke:#e78ac3;stroke-width:1.07000005;stroke-linecap:butt;stroke-linejoin:round;stroke-miterlimit:10;stroke-dasharray:none;stroke-opacity:1"
   id="path174"
   inkscape:connector-curvature="0" /><path
   d="m 83.64,67.32 -1.52,0.45 -1.52,0.36 -1.52,0.3 -1.53,0.22 -1.52,0.16 -1.52,0.1 -1.52,0.04 -1.52,-0.02 -1.52,-0.09 -1.52,-0.15 -1.52,-0.22 -1.53,-0.29 -1.52,-0.37 -1.52,-0.46 -1.41,-0.5 -0.11,-0.06 -1.52,-0.88 -1.52,-1.02 -1.16,-0.9 -0.36,-1.54 -0.3,-1.32 0.3,-0.34 1.52,-1.57 1.06,-0.95 0.46,-0.21 1.52,-0.61 1.52,-0.51 1.52,-0.42 1.52,-0.33 1.53,-0.27 1.52,-0.18 1.52,-0.13 1.52,-0.05 1.52,0.01 1.52,0.06 1.52,0.13 1.52,0.2 1.53,0.25 1.52,0.33 1.52,0.39 1.52,0.46 1.52,0.54 0.83,0.34 0.69,0.49 1.52,1.22 1.29,1.15 -0.26,2.86 -1.03,0.82 -1.52,1.06 -1.52,0.91 -0.13,0.07 -1.39,0.47"
   style="fill:none;stroke:#e78ac3;stroke-width:1.07000005;stroke-linecap:butt;stroke-linejoin:round;stroke-miterlimit:10;stroke-dasharray:none;stroke-opacity:1"
   id="path176"
   inkscape:connector-curvature="0" /><path
   d="m 80.6,67.18 -1.52,0.31 -1.53,0.25 -1.52,0.17 -1.52,0.11 -1.52,0.04 -1.52,-0.03 -1.52,-0.09 -1.52,-0.17 -1.52,-0.23 -1.53,-0.32 -1.44,-0.37 -0.08,-0.03 -1.52,-0.66 -1.52,-0.79 -1.52,-0.94 -0.63,-0.44 -0.75,-2.86 1.38,-1.3 1.52,-1.21 0.52,-0.35 1,-0.36 1.52,-0.45 1.52,-0.36 1.53,-0.28 1.52,-0.2 1.52,-0.14 1.52,-0.06 1.52,0.01 1.52,0.07 1.52,0.13 1.52,0.21 1.53,0.27 1.52,0.34 1.52,0.41 1.26,0.41 0.26,0.15 1.52,0.99 1.52,1.13 0.71,0.59 -0.34,2.86 -0.37,0.27 -1.52,0.98 -1.52,0.83 -1.52,0.68 -0.24,0.1 -1.28,0.33"
   style="fill:none;stroke:#e78ac3;stroke-width:1.07000005;stroke-linecap:butt;stroke-linejoin:round;stroke-miterlimit:10;stroke-dasharray:none;stroke-opacity:1"
   id="path178"
   inkscape:connector-curvature="0" /><path
   d="m 72.99,67.16 -1.52,-0.03 -1.52,-0.1 -1.52,-0.17 -0.07,-0.01 -1.45,-0.34 -1.53,-0.45 -1.52,-0.57 -1.52,-0.7 -1.45,-0.8 -0.07,-0.23 -0.77,-2.63 0.77,-0.65 1.52,-1.08 1.52,-0.88 0.52,-0.25 1,-0.25 1.53,-0.3 1.52,-0.22 1.52,-0.15 1.52,-0.07 1.52,0.01 1.52,0.07 1.52,0.14 1.52,0.22 1.53,0.28 1.14,0.27 0.38,0.16 1.52,0.76 1.52,0.9 1.52,1.04 v 0 0.01 l -0.47,2.85 -1.05,0.6 -1.52,0.75 -1.52,0.61 -1.52,0.49 -1.53,0.37 -0.22,0.04 -1.3,0.15 -1.52,0.12 -1.52,0.04"
   style="fill:none;stroke:#e78ac3;stroke-width:1.07000005;stroke-linecap:butt;stroke-linejoin:round;stroke-miterlimit:10;stroke-dasharray:none;stroke-opacity:1"
   id="path180"
   inkscape:connector-curvature="0" /><path
   d="m 80.6,64.58 -1.52,0.53 -1.53,0.4 -1.52,0.28 -1.52,0.18 -1.52,0.07 -1.52,-0.04 -1.52,-0.14 -1.52,-0.26 -1.52,-0.36 -1.53,-0.48 -1.52,-0.6 -0.35,-0.17 -1.07,-2.86 1.42,-0.89 1.52,-0.76 1.53,-0.59 1.52,-0.43 1.05,-0.19 0.47,-0.05 1.52,-0.07 h 1.52 l 1.52,0.07 0.5,0.05 1.02,0.18 1.52,0.39 1.53,0.53 1.52,0.65 1.52,0.8 0.51,0.31 -0.51,2.33 -0.14,0.53 -1.38,0.59"
   style="fill:none;stroke:#e78ac3;stroke-width:1.07000005;stroke-linecap:butt;stroke-linejoin:round;stroke-miterlimit:10;stroke-dasharray:none;stroke-opacity:1"
   id="path182"
   inkscape:connector-curvature="0" /><path
   d="m 77.55,64.21 -1.52,0.31 -1.52,0.19 -1.52,0.08 -1.52,-0.03 -1.52,-0.15 -1.52,-0.26 -1.45,-0.36 -0.07,-0.11 -1.47,-2.75 1.47,-0.61 1.52,-0.46 1.52,-0.31 1.52,-0.15 1.52,-0.01 1.52,0.13 1.52,0.27 1.52,0.4 1.53,0.55 0.43,0.19 -0.43,1.26 -0.72,1.6 -0.81,0.22"
   style="fill:none;stroke:#e78ac3;stroke-width:1.07000005;stroke-linecap:butt;stroke-linejoin:round;stroke-miterlimit:10;stroke-dasharray:none;stroke-opacity:1"
   id="path184"
   inkscape:connector-curvature="0" /><path
   d="M 35.57,33.52 H 210.23 V 263.56 H 35.57 Z"
   style="fill:none;stroke:#b3b3b3;stroke-width:1.07000005;stroke-linecap:round;stroke-linejoin:round;stroke-miterlimit:10;stroke-dasharray:none;stroke-opacity:1"
   id="path186"
   inkscape:connector-curvature="0" /></g></g><g
       id="g188" /><g
       id="g190"><g
         id="g192"
         clip-path="url(#clipPath196)"><path
   d="M 215.71,33.52 H 390.37 V 263.56 H 215.71 Z"
   style="fill:#ffffff;fill-opacity:1;fill-rule:nonzero;stroke:none"
   id="path198"
   inkscape:connector-curvature="0" /><path
   d="M 215.71,66.09 H 390.38"
   style="fill:none;stroke:#dedede;stroke-width:0.27000001;stroke-linecap:butt;stroke-linejoin:round;stroke-miterlimit:10;stroke-dasharray:none;stroke-opacity:1"
   id="path200"
   inkscape:connector-curvature="0" /><path
   d="M 215.71,110.3 H 390.38"
   style="fill:none;stroke:#dedede;stroke-width:0.27000001;stroke-linecap:butt;stroke-linejoin:round;stroke-miterlimit:10;stroke-dasharray:none;stroke-opacity:1"
   id="path202"
   inkscape:connector-curvature="0" /><path
   d="M 215.71,154.51 H 390.38"
   style="fill:none;stroke:#dedede;stroke-width:0.27000001;stroke-linecap:butt;stroke-linejoin:round;stroke-miterlimit:10;stroke-dasharray:none;stroke-opacity:1"
   id="path204"
   inkscape:connector-curvature="0" /><path
   d="M 215.71,198.73 H 390.38"
   style="fill:none;stroke:#dedede;stroke-width:0.27000001;stroke-linecap:butt;stroke-linejoin:round;stroke-miterlimit:10;stroke-dasharray:none;stroke-opacity:1"
   id="path206"
   inkscape:connector-curvature="0" /><path
   d="M 215.71,242.94 H 390.38"
   style="fill:none;stroke:#dedede;stroke-width:0.27000001;stroke-linecap:butt;stroke-linejoin:round;stroke-miterlimit:10;stroke-dasharray:none;stroke-opacity:1"
   id="path208"
   inkscape:connector-curvature="0" /><path
   d="M 228.72,33.52 V 263.57"
   style="fill:none;stroke:#dedede;stroke-width:0.27000001;stroke-linecap:butt;stroke-linejoin:round;stroke-miterlimit:10;stroke-dasharray:none;stroke-opacity:1"
   id="path210"
   inkscape:connector-curvature="0" /><path
   d="M 279.43,33.52 V 263.57"
   style="fill:none;stroke:#dedede;stroke-width:0.27000001;stroke-linecap:butt;stroke-linejoin:round;stroke-miterlimit:10;stroke-dasharray:none;stroke-opacity:1"
   id="path212"
   inkscape:connector-curvature="0" /><path
   d="M 330.14,33.52 V 263.57"
   style="fill:none;stroke:#dedede;stroke-width:0.27000001;stroke-linecap:butt;stroke-linejoin:round;stroke-miterlimit:10;stroke-dasharray:none;stroke-opacity:1"
   id="path214"
   inkscape:connector-curvature="0" /><path
   d="M 380.85,33.52 V 263.57"
   style="fill:none;stroke:#dedede;stroke-width:0.27000001;stroke-linecap:butt;stroke-linejoin:round;stroke-miterlimit:10;stroke-dasharray:none;stroke-opacity:1"
   id="path216"
   inkscape:connector-curvature="0" /><path
   d="M 215.71,43.98 H 390.38"
   style="fill:none;stroke:#dedede;stroke-width:0.52999997;stroke-linecap:butt;stroke-linejoin:round;stroke-miterlimit:10;stroke-dasharray:none;stroke-opacity:1"
   id="path218"
   inkscape:connector-curvature="0" /><path
   d="M 215.71,88.19 H 390.38"
   style="fill:none;stroke:#dedede;stroke-width:0.52999997;stroke-linecap:butt;stroke-linejoin:round;stroke-miterlimit:10;stroke-dasharray:none;stroke-opacity:1"
   id="path220"
   inkscape:connector-curvature="0" /><path
   d="M 215.71,132.41 H 390.38"
   style="fill:none;stroke:#dedede;stroke-width:0.52999997;stroke-linecap:butt;stroke-linejoin:round;stroke-miterlimit:10;stroke-dasharray:none;stroke-opacity:1"
   id="path222"
   inkscape:connector-curvature="0" /><path
   d="M 215.71,176.62 H 390.38"
   style="fill:none;stroke:#dedede;stroke-width:0.52999997;stroke-linecap:butt;stroke-linejoin:round;stroke-miterlimit:10;stroke-dasharray:none;stroke-opacity:1"
   id="path224"
   inkscape:connector-curvature="0" /><path
   d="M 215.71,220.83 H 390.38"
   style="fill:none;stroke:#dedede;stroke-width:0.52999997;stroke-linecap:butt;stroke-linejoin:round;stroke-miterlimit:10;stroke-dasharray:none;stroke-opacity:1"
   id="path226"
   inkscape:connector-curvature="0" /><path
   d="M 254.08,33.52 V 263.57"
   style="fill:none;stroke:#dedede;stroke-width:0.52999997;stroke-linecap:butt;stroke-linejoin:round;stroke-miterlimit:10;stroke-dasharray:none;stroke-opacity:1"
   id="path228"
   inkscape:connector-curvature="0" /><path
   d="M 304.79,33.52 V 263.57"
   style="fill:none;stroke:#dedede;stroke-width:0.52999997;stroke-linecap:butt;stroke-linejoin:round;stroke-miterlimit:10;stroke-dasharray:none;stroke-opacity:1"
   id="path230"
   inkscape:connector-curvature="0" /><path
   d="M 355.5,33.52 V 263.57"
   style="fill:none;stroke:#dedede;stroke-width:0.52999997;stroke-linecap:butt;stroke-linejoin:round;stroke-miterlimit:10;stroke-dasharray:none;stroke-opacity:1"
   id="path232"
   inkscape:connector-curvature="0" /><path
   d="m 231.84,112.13 1.84,-0.2 1.84,-0.2 1.85,-0.2 1.84,-0.19 1.84,-0.2 1.85,-0.19 1.84,-0.19 1.84,-0.18 1.85,-0.19 1.84,-0.18 1.84,-0.18 1.85,-0.17 1.84,-0.18 1.84,-0.17 1.85,-0.16 1.84,-0.16 1.84,-0.16 1.85,-0.16 1.84,-0.14 1.84,-0.15 1.85,-0.13 1.84,-0.14 1.84,-0.12 1.85,-0.12 1.84,-0.11 1.84,-0.1 1.85,-0.09 1.84,-0.08 1.84,-0.08 1.85,-0.06 1.84,-0.05 1.84,-0.04 1.85,-0.02 1.84,-0.01 h 1.84 l 1.85,0.01 1.84,0.03 1.84,0.05 1.85,0.06 1.84,0.08 1.84,0.09 1.85,0.11 1.84,0.12 1.84,0.14 1.85,0.15 1.84,0.16 1.85,0.18 1.84,0.19 1.84,0.2 1.85,0.21 1.84,0.23 1.84,0.23 1.85,0.24 1.84,0.25 1.84,0.25 1.85,0.27 1.84,0.27 1.84,0.28 1.85,0.28 1.84,0.29 1.84,0.29 1.85,0.3 1.84,0.3 1.84,0.31 1.85,0.31 1.84,0.31 1.84,0.32 1.85,0.32 1.84,0.32 1.84,0.33 1.85,0.32 1.84,0.33 1.84,0.34 1.85,0.33 1.84,0.33 1.84,0.34 1.85,0.34 1.84,0.34 1.84,0.34 V 90.91 l -1.84,0.2 -1.84,0.2 -1.85,0.19 -1.84,0.2 -1.84,0.2 -1.85,0.19 -1.84,0.19 -1.84,0.19 -1.85,0.18 -1.84,0.19 -1.84,0.18 -1.85,0.18 -1.84,0.17 -1.84,0.18 -1.85,0.16 -1.84,0.17 -1.84,0.16 -1.85,0.16 -1.84,0.15 -1.84,0.15 -1.85,0.14 -1.84,0.14 -1.84,0.13 -1.85,0.12 -1.84,0.12 -1.84,0.11 -1.85,0.1 -1.84,0.09 -1.84,0.08 -1.85,0.07 -1.84,0.06 -1.84,0.05 -1.85,0.03 -1.84,0.03 -1.85,0.01 -1.84,-0.01 -1.84,-0.02 -1.85,-0.03 -1.84,-0.05 -1.84,-0.06 -1.85,-0.08 -1.84,-0.1 -1.84,-0.11 -1.85,-0.12 -1.84,-0.14 -1.84,-0.15 -1.85,-0.17 -1.84,-0.18 -1.84,-0.19 -1.85,-0.2 -1.84,-0.22 -1.84,-0.22 -1.85,-0.23 -1.84,-0.25 -1.84,-0.25 -1.85,-0.26 -1.84,-0.26 -1.84,-0.27 -1.85,-0.28 -1.84,-0.29 -1.84,-0.28 -1.85,-0.3 -1.84,-0.3 -1.84,-0.3 -1.85,-0.31 -1.84,-0.31 -1.84,-0.31 -1.85,-0.32 -1.84,-0.32 -1.84,-0.32 -1.85,-0.33 -1.84,-0.33 -1.84,-0.33 -1.85,-0.33 -1.84,-0.33 -1.84,-0.34 -1.85,-0.33 -1.84,-0.34 -1.84,-0.34 z"
   style="fill:#999999;fill-opacity:0.4;fill-rule:nonzero;stroke:none"
   id="path234"
   inkscape:connector-curvature="0" /><path
   d="m 231.84,98.85 1.84,0.07 1.84,0.07 1.85,0.07 1.84,0.07 1.84,0.07 1.85,0.07 1.84,0.07 1.84,0.07 1.85,0.07 1.84,0.07 1.84,0.07 1.85,0.07 1.84,0.07 1.84,0.07 1.85,0.07 1.84,0.07 1.84,0.07 1.85,0.08 1.84,0.07 1.84,0.07 1.85,0.07 1.84,0.07 1.84,0.07 1.85,0.07 1.84,0.07 1.84,0.07 1.85,0.07 1.84,0.07 1.84,0.07 1.85,0.07 1.84,0.07 1.84,0.07 1.85,0.07 1.84,0.07 1.84,0.07 1.85,0.07 1.84,0.07 1.84,0.07 1.85,0.08 1.84,0.07 1.84,0.07 1.85,0.07 1.84,0.07 1.84,0.07 1.85,0.07 1.84,0.07 1.85,0.07 1.84,0.07 1.84,0.07 1.85,0.07 1.84,0.07 1.84,0.07 1.85,0.07 1.84,0.07 1.84,0.07 1.85,0.07 1.84,0.07 1.84,0.07 1.85,0.08 1.84,0.07 1.84,0.07 1.85,0.07 1.84,0.07 1.84,0.07 1.85,0.07 1.84,0.07 1.84,0.07 1.85,0.07 1.84,0.07 1.84,0.07 1.85,0.07 1.84,0.07 1.84,0.07 1.85,0.07 1.84,0.07 1.84,0.07 1.85,0.07 1.84,0.07 1.84,0.07"
   style="fill:none;stroke:#8da0cb;stroke-width:2.13000011;stroke-linecap:butt;stroke-linejoin:round;stroke-miterlimit:10;stroke-dasharray:none;stroke-opacity:1"
   id="path236"
   inkscape:connector-curvature="0" /><text
   transform="matrix(1,0,0,-1,223.65,235.71)"
   style="font-style:oblique;font-variant:normal;font-size:11px;font-family:Helvetica;-inkscape-font-specification:Helvetica-Oblique;writing-mode:lr-tb;fill:#8da0cb;fill-opacity:1;fill-rule:nonzero;stroke:none"
   id="text240"><tspan
     x="0"
     y="0"
     id="tspan238">R</tspan></text>
<text
   transform="matrix(1,0,0,-1,234.34,235.71)"
   style="font-variant:normal;font-weight:normal;font-size:11px;font-family:Helvetica;-inkscape-font-specification:Helvetica;writing-mode:lr-tb;fill:#8da0cb;fill-opacity:1;fill-rule:nonzero;stroke:none"
   id="text244"><tspan
     x="0"
     y="0"
     id="tspan242">=</tspan></text>
<text
   transform="matrix(1,0,0,-1,243.52,235.71)"
   style="font-variant:normal;font-weight:normal;font-size:11px;font-family:Helvetica;-inkscape-font-specification:Helvetica;writing-mode:lr-tb;fill:#8da0cb;fill-opacity:1;fill-rule:nonzero;stroke:none"
   id="text248"
   y="0"><tspan
     x="0 6.1160002 9.1739998 15.29 21.406"
     y="0"
     sodipodi:role="line"
     id="tspan246">0.022</tspan></text>
<text
   transform="matrix(1,0,0,-1,271.04,235.71)"
   style="font-variant:normal;font-weight:normal;font-size:11px;font-family:Helvetica;-inkscape-font-specification:Helvetica;writing-mode:lr-tb;fill:#8da0cb;fill-opacity:1;fill-rule:nonzero;stroke:none"
   id="text252"><tspan
     x="0"
     y="0"
     id="tspan250">,</tspan></text>
<text
   transform="matrix(1,0,0,-1,276.85,235.71)"
   style="font-style:oblique;font-variant:normal;font-size:11px;font-family:Helvetica;-inkscape-font-specification:Helvetica-Oblique;writing-mode:lr-tb;fill:#8da0cb;fill-opacity:1;fill-rule:nonzero;stroke:none"
   id="text256"><tspan
     x="0"
     y="0"
     id="tspan254">p</tspan></text>
<text
   transform="matrix(1,0,0,-1,285.71,235.71)"
   style="font-variant:normal;font-weight:normal;font-size:11px;font-family:Helvetica;-inkscape-font-specification:Helvetica;writing-mode:lr-tb;fill:#8da0cb;fill-opacity:1;fill-rule:nonzero;stroke:none"
   id="text260"><tspan
     x="0"
     y="0"
     id="tspan258">=</tspan></text>
<text
   transform="matrix(1,0,0,-1,294.89,235.71)"
   style="font-variant:normal;font-weight:normal;font-size:11px;font-family:Helvetica;-inkscape-font-specification:Helvetica;writing-mode:lr-tb;fill:#8da0cb;fill-opacity:1;fill-rule:nonzero;stroke:none"
   id="text264"
   y="0"><tspan
     x="0 6.1160002 9.1739998 15.29"
     y="0"
     sodipodi:role="line"
     id="tspan262">0.65</tspan></text>
<path
   d="m 372.58,43.98 0.73,2.64 0.06,0.22 0.6,2.86 0.38,2.85 0.19,2.86 0.05,2.86 -0.08,2.86 -0.19,2.86 -0.28,2.86 -0.37,2.85 -0.36,2.39 -0.07,0.47 -0.44,2.86 -0.5,2.86 -0.51,2.69 -0.03,0.17 -0.55,2.85 -0.59,2.86 -0.35,1.57 -0.29,1.29 -0.66,2.86 -0.57,2.34 -0.13,0.52 -0.7,2.86 -0.69,2.74 -0.03,0.11 -0.67,2.86 -0.63,2.86 -0.2,1.04 -0.34,1.82 -0.45,2.86 -0.36,2.86 -0.27,2.85 -0.1,1.32 -0.12,1.54 -0.21,2.86 -0.25,2.86 -0.34,2.86 -0.46,2.86 -0.14,0.68 -0.5,2.17 -0.82,2.86 -0.2,0.6 -0.85,2.26 -0.67,1.61 -0.59,1.25 -0.93,1.92 -0.52,0.94 -1,1.9 -0.57,0.95 -0.95,1.73 -0.7,1.13 -0.83,1.49 -0.85,1.37 -0.67,1.16 -1.1,1.7 -0.42,0.67 -1.52,2.05 -0.13,0.14 -1.39,1.41 -1.52,1.04 -1.45,0.41 -0.07,0.01 -0.12,-0.01 -1.4,-0.27 -1.53,-1.04 -1.33,-1.55 -0.19,-0.24 -1.52,-2.48 -0.07,-0.14 -1.45,-2.68 -0.09,-0.18 -1.43,-2.58 -0.16,-0.28 -1.36,-2.19 -0.44,-0.67 -1.08,-1.46 -1.12,-1.39 -0.4,-0.46 -1.52,-1.62 -0.79,-0.78 -0.74,-0.69 -1.52,-1.36 -0.93,-0.81 -0.59,-0.48 -1.52,-1.23 -1.48,-1.15 -0.04,-0.03 -1.52,-1.09 -1.52,-1.03 -1.12,-0.71 -0.4,-0.23 -1.53,-0.81 -1.52,-0.71 -1.52,-0.62 -1.46,-0.48 -0.06,-0.02 -1.52,-0.37 -1.52,-0.27 -1.52,-0.14 -1.52,-0.02 -1.53,0.13 -1.52,0.3 -1.19,0.39 -0.33,0.1 -1.52,0.71 -1.52,0.9 -1.52,1.12 -0.03,0.02 -1.49,1.26 -1.52,1.42 -0.18,0.18 -1.35,1.31 -1.52,1.53 -0.02,0.02 -1.5,1.45 -1.49,1.41 -0.03,0.02 -1.52,1.31 -1.52,1.21 -0.45,0.32 -1.07,0.73 -1.52,0.91 -1.52,0.74 -1.36,0.47 -0.17,0.06 -1.52,0.29 -1.52,0.01 -1.52,-0.31 -0.11,-0.05 -1.41,-0.69 -1.52,-1.22 -0.85,-0.94 -0.67,-0.88 -1.22,-1.98 -0.3,-0.55 -1.1,-2.31 -0.43,-0.92 -0.81,-1.94 -0.71,-1.57 -0.55,-1.29 -0.97,-1.91 -0.46,-0.94 -1.06,-1.73 -0.66,-1.13 -0.86,-1.15 -1.2,-1.71 -0.32,-0.37 -1.52,-1.85 -0.48,-0.64 -1.04,-1.15 -1.35,-1.71 -0.18,-0.19 -1.52,-1.84 -0.59,-0.83 -0.93,-1.15 -1.18,-1.7 -0.34,-0.45 -1.52,-2.3 -0.07,-0.11 -1.45,-2.32 -0.31,-0.54 -1.21,-2.12 -0.39,-0.74 -1.13,-2.19 -0.33,-0.67 -1.2,-2.57 -0.12,-0.29 -1.21,-2.85 -0.19,-0.49 -0.91,-2.37 -0.61,-1.75 -0.38,-1.11 -0.91,-2.86 -0.23,-0.8 -0.61,-2.06 -0.75,-2.86 -0.16,-0.68 -0.54,-2.17 -0.62,-2.86 -0.36,-1.96 -0.18,-0.9 -0.47,-2.86 -0.36,-2.86 -0.24,-2.85 -0.12,-2.86 0.01,-2.86 0.16,-2.86 0.32,-2.86 0.5,-2.86 0.38,-1.54 0.31,-1.31 0.88,-2.86 0.33,-0.85 0.78,-2.01"
   style="fill:none;stroke:#8da0cb;stroke-width:1.07000005;stroke-linecap:butt;stroke-linejoin:round;stroke-miterlimit:10;stroke-dasharray:none;stroke-opacity:1"
   id="path266"
   inkscape:connector-curvature="0" /><path
   d="m 364.12,43.98 0.06,0.13 1.24,2.73 0.28,0.87 0.63,1.99 0.6,2.85 0.3,2.41 0.05,0.45 0.14,2.86 -0.04,2.86 -0.15,2.05 -0.06,0.81 -0.33,2.86 -0.46,2.85 -0.56,2.86 -0.12,0.54 -0.51,2.32 -0.73,2.86 -0.28,1.03 -0.51,1.83 -0.87,2.85 -0.14,0.44 -0.8,2.42 -0.72,2.02 -0.32,0.84 -1.12,2.86 -0.08,0.21 -1.14,2.65 -0.38,0.86 -0.97,2 -0.55,1.12 -0.96,1.73 -0.56,1.03 -1.18,1.83 -0.35,0.55 -1.52,1.98 -0.32,0.33 -1.2,1.29 -1.52,1.2 -0.66,0.37 -0.86,0.51 -1.52,0.6 -1.52,0.35 -1.52,0.14 h -1.53 l -1.52,-0.13 -1.52,-0.22 -1.52,-0.29 -1.52,-0.34 -1.52,-0.37 -0.94,-0.25 -0.58,-0.14 -1.52,-0.37 -1.52,-0.38 -1.53,-0.38 -1.52,-0.37 -1.52,-0.37 -1.52,-0.37 -1.52,-0.38 -0.38,-0.1 -1.14,-0.28 -1.52,-0.41 -1.52,-0.47 -1.53,-0.53 -1.52,-0.61 -1.2,-0.56 -0.32,-0.14 -1.52,-0.78 -1.52,-0.89 -1.52,-1 -0.08,-0.05 -1.44,-0.93 -1.52,-1.01 -1.43,-0.91 -0.1,-0.06 -1.52,-0.76 -1.52,-0.59 -1.52,-0.36 -1.52,-0.1 -1.52,0.2 -1.52,0.49 -1.52,0.77 -0.6,0.41 -0.93,0.71 -1.52,1.39 -0.75,0.75 -0.77,0.85 -1.52,1.72 -0.26,0.29 -1.26,1.49 -1.27,1.37 -0.25,0.27 -1.52,1.54 -1.28,1.05 -0.24,0.21 -1.52,1.08 -1.53,0.81 -1.52,0.55 -0.87,0.21 -0.65,0.16 -1.52,0.19 h -1.52 l -1.52,-0.17 -0.87,-0.18 -0.65,-0.12 -1.52,-0.4 -1.53,-0.53 -1.52,-0.66 -1.52,-0.8 -0.57,-0.35 -0.95,-0.54 -1.52,-1.02 -1.52,-1.19 -0.12,-0.11 -1.4,-1.21 -1.52,-1.54 -0.1,-0.11 -1.43,-1.62 -0.95,-1.24 -0.57,-0.77 -1.37,-2.08 -0.15,-0.24 -1.48,-2.62 -0.04,-0.08 -1.35,-2.78 -0.17,-0.4 -1.02,-2.46 -0.5,-1.36 -0.54,-1.5 -0.9,-2.86 -0.08,-0.29 -0.72,-2.56 -0.68,-2.86 -0.12,-0.61 -0.48,-2.25 -0.48,-2.86 -0.37,-2.86 -0.2,-2.18 -0.06,-0.67 -0.12,-2.86 0.03,-2.86 0.15,-2.2 0.05,-0.66 0.38,-2.86 0.6,-2.86 0.5,-1.68 0.34,-1.17 1.13,-2.86 0.05,-0.09 1.42,-2.77"
   style="fill:none;stroke:#8da0cb;stroke-width:1.07000005;stroke-linecap:butt;stroke-linejoin:round;stroke-miterlimit:10;stroke-dasharray:none;stroke-opacity:1"
   id="path268"
   inkscape:connector-curvature="0" /><path
   d="m 355.57,43.98 1.01,0.94 1.52,1.78 0.1,0.14 1.42,2.49 0.18,0.37 1.01,2.85 0.33,1.51 0.27,1.35 0.28,2.86 0.01,2.86 -0.21,2.86 -0.35,2.47 -0.06,0.39 -0.58,2.85 -0.73,2.86 -0.15,0.51 -0.73,2.35 -0.79,2.25 -0.23,0.61 -1.17,2.86 -0.12,0.29 -1.21,2.56 -0.31,0.64 -1.22,2.22 -0.31,0.53 -1.51,2.33 -0.01,0.01 -1.52,1.99 -0.8,0.86 -0.72,0.77 -1.52,1.3 -1.19,0.79 -0.33,0.21 -1.52,0.75 -1.52,0.51 -1.53,0.3 -1.52,0.12 -1.52,-0.03 -1.52,-0.15 -1.52,-0.26 -1.52,-0.33 -1.52,-0.4 -1.52,-0.46 -0.81,-0.26 -0.71,-0.23 -1.53,-0.52 -1.52,-0.56 -1.52,-0.58 -1.52,-0.62 -0.81,-0.35 -0.71,-0.31 -1.52,-0.69 -1.52,-0.75 -1.52,-0.79 -0.59,-0.32 -0.94,-0.5 -1.52,-0.85 -1.52,-0.85 -1.16,-0.66 -0.36,-0.19 -1.52,-0.77 -1.52,-0.72 -1.52,-0.64 -1.48,-0.54 -0.04,-0.01 -1.53,-0.41 -1.52,-0.29 -1.52,-0.16 -1.52,-0.03 -1.52,0.13 -1.52,0.28 -1.52,0.44 -0.14,0.05 -1.38,0.6 -1.53,0.83 -1.52,0.99 -0.58,0.44 -0.94,0.77 -1.52,1.37 -0.75,0.72 -0.77,0.8 -1.52,1.6 -0.43,0.46 -1.09,1.2 -1.52,1.57 -0.1,0.09 -1.42,1.39 -1.53,1.27 -0.27,0.2 -1.25,0.88 -1.52,0.84 -1.52,0.6 -1.52,0.38 -1.4,0.15 -0.12,0.02 -0.69,-0.02 -0.83,-0.01 -1.52,-0.22 -1.53,-0.42 -1.52,-0.61 -1.52,-0.81 -1.16,-0.78 -0.36,-0.25 -1.52,-1.26 -1.35,-1.35 -0.17,-0.18 -1.52,-1.85 -0.6,-0.83 -0.92,-1.41 -0.86,-1.45 -0.67,-1.25 -0.78,-1.61 -0.74,-1.72 -0.45,-1.14 -1,-2.85 -0.07,-0.22 -0.77,-2.64 -0.69,-2.86 -0.06,-0.31 -0.5,-2.55 -0.41,-2.86 -0.27,-2.85 -0.11,-2.86 0.08,-2.86 0.27,-2.86 0.52,-2.86 0.42,-1.54 0.38,-1.32 1.14,-2.82 0.02,-0.03 1.5,-2.66 0.13,-0.2 1.39,-1.8 0.95,-1.06"
   style="fill:none;stroke:#8da0cb;stroke-width:1.07000005;stroke-linecap:butt;stroke-linejoin:round;stroke-miterlimit:10;stroke-dasharray:none;stroke-opacity:1"
   id="path270"
   inkscape:connector-curvature="0" /><path
   d="m 287.46,43.98 0.66,0.14 1.52,0.36 1.52,0.38 1.53,0.41 1.52,0.43 1.52,0.43 1.52,0.44 0.92,0.27 0.6,0.2 1.52,0.52 1.52,0.51 1.52,0.5 1.53,0.49 1.52,0.49 0.47,0.15 1.05,0.4 1.52,0.56 1.52,0.52 1.52,0.47 1.52,0.4 1.52,0.32 1.31,0.18 0.22,0.04 1.52,0.15 1.52,-0.01 1.52,-0.13 0.25,-0.05 1.27,-0.17 1.52,-0.3 1.52,-0.37 1.52,-0.42 1.53,-0.46 1.52,-0.47 1.52,-0.48 0.59,-0.18 0.93,-0.26 1.52,-0.39 1.52,-0.37 1.52,-0.32 1.52,-0.27 1.52,-0.21 1.53,-0.12 h 1.52 l 1.52,0.12 1.52,0.29 1.52,0.5 1.52,0.74 0.43,0.29 1.09,0.92 1.52,1.75 0.13,0.18 1.34,2.86 0.06,0.2 0.58,2.66 0.17,2.86 -0.18,2.86 -0.49,2.86 -0.08,0.32 -0.71,2.53 -0.82,2.27 -0.23,0.59 -1.29,2.77 -0.04,0.09 -1.48,2.52 -0.23,0.34 -1.29,1.77 -0.94,1.09 -0.58,0.63 -1.52,1.35 -1.26,0.87 -0.26,0.18 -1.52,0.75 -1.53,0.49 -1.52,0.27 -1.52,0.06 -1.52,-0.11 -1.52,-0.28 -1.52,-0.41 -1.52,-0.53 -0.99,-0.42 -0.53,-0.23 -1.52,-0.77 -1.53,-0.84 -1.52,-0.9 -0.19,-0.11 -1.33,-0.88 -1.52,-1.01 -1.49,-0.97 -0.03,-0.02 -1.52,-1.02 -1.52,-0.92 -1.52,-0.79 -0.24,-0.11 -1.29,-0.62 -1.52,-0.59 -1.52,-0.46 -1.52,-0.35 -1.52,-0.26 -1.52,-0.18 -1.52,-0.12 -1.52,-0.05 -1.53,0.01 -1.52,0.07 -1.52,0.16 -1.52,0.23 -1.52,0.33 -1.52,0.43 -1.52,0.54 -1.52,0.67 -0.38,0.19 -1.15,0.58 -1.52,0.89 -1.52,1.03 -0.47,0.36 -1.05,0.79 -1.52,1.26 -0.91,0.81 -0.61,0.56 -1.52,1.43 -0.91,0.86 -0.61,0.6 -1.52,1.44 -0.94,0.82 -0.59,0.53 -1.52,1.21 -1.52,1.02 -0.2,0.1 -1.32,0.69 -1.52,0.54 -1.52,0.29 -1.52,0.03 -1.52,-0.24 -1.53,-0.51 -1.52,-0.8 v 0 l -1.52,-1.14 -1.52,-1.49 -0.2,-0.23 -1.32,-1.72 -0.74,-1.14 -0.78,-1.36 -0.76,-1.49 -0.76,-1.79 -0.42,-1.07 -0.93,-2.86 -0.17,-0.67 -0.54,-2.19 -0.5,-2.86 -0.3,-2.85 -0.09,-2.86 0.16,-2.86 0.44,-2.86 0.78,-2.86 0.05,-0.1 1.22,-2.76 0.3,-0.5 1.52,-2.21 0.11,-0.14 1.41,-1.43 1.52,-1.29 0.2,-0.14 1.32,-0.82 1.52,-0.77 1.52,-0.64 1.53,-0.51 0.44,-0.12"
   style="fill:none;stroke:#8da0cb;stroke-width:1.07000005;stroke-linecap:butt;stroke-linejoin:round;stroke-miterlimit:10;stroke-dasharray:none;stroke-opacity:1"
   id="path272"
   inkscape:connector-curvature="0" /><path
   d="m 274.43,79.09 -1.52,0.75 -1.52,0.49 -1.52,0.19 -1.52,-0.15 -1.52,-0.56 -1.53,-0.98 -0.58,-0.55 -0.94,-1.04 -1.23,-1.82 -0.29,-0.54 -1.01,-2.32 -0.51,-1.65 -0.32,-1.21 -0.43,-2.85 -0.08,-2.86 0.34,-2.86 0.49,-1.78 0.34,-1.08 1.18,-2.23 0.39,-0.63 1.13,-1.29 1.52,-1.42 0.2,-0.15 1.33,-0.79 1.52,-0.73 1.52,-0.56 1.52,-0.43 1.52,-0.29 0.46,-0.05 1.06,-0.11 1.52,-0.05 1.52,0.03 1.53,0.11 0.15,0.02 1.37,0.2 1.52,0.33 1.52,0.42 1.52,0.5 1.52,0.58 1.52,0.65 0.38,0.17 1.14,0.79 1.52,1.11 1.28,0.96 0.25,0.4 1.5,2.46 -0.24,2.86 -1.26,1.78 -0.7,1.08 -0.83,0.72 -1.52,1.48 -0.6,0.66 -0.92,0.74 -1.52,1.36 -0.77,0.75 -0.75,0.62 -1.52,1.36 -0.94,0.88 -0.58,0.51 -1.52,1.34 -1.13,1.01 -0.39,0.34 -1.53,1.23 -1.52,1.15 -0.21,0.14 -1.31,0.81"
   style="fill:none;stroke:#8da0cb;stroke-width:1.07000005;stroke-linecap:butt;stroke-linejoin:round;stroke-miterlimit:10;stroke-dasharray:none;stroke-opacity:1"
   id="path274"
   inkscape:connector-curvature="0" /><path
   d="m 342.89,70.62 -1.53,0.89 -1.52,0.45 -1.52,0.02 -1.52,-0.42 -1.52,-0.84 -1.25,-1.02 -0.27,-0.42 -1.23,-2.43 0.09,-2.86 1.14,-1.91 0.64,-0.95 0.88,-0.66 1.52,-0.95 1.52,-0.75 1.49,-0.5 0.03,-0.01 1.52,-0.12 1.44,0.13 0.09,0.01 1.52,0.81 1.52,1.67 0.21,0.37 0.34,2.86 -0.55,2.42 -0.12,0.44 -1.4,2.28 -0.45,0.57 -1.07,0.92"
   style="fill:none;stroke:#8da0cb;stroke-width:1.07000005;stroke-linecap:butt;stroke-linejoin:round;stroke-miterlimit:10;stroke-dasharray:none;stroke-opacity:1"
   id="path276"
   inkscape:connector-curvature="0" /><path
   d="M 215.71,33.52 H 390.37 V 263.56 H 215.71 Z"
   style="fill:none;stroke:#b3b3b3;stroke-width:1.07000005;stroke-linecap:round;stroke-linejoin:round;stroke-miterlimit:10;stroke-dasharray:none;stroke-opacity:1"
   id="path278"
   inkscape:connector-curvature="0" /></g></g><g
       id="g280" /><g
       id="g282"><g
         id="g284"
         clip-path="url(#clipPath288)"><path
   d="M 395.86,33.52 H 570.52 V 263.56 H 395.86 Z"
   style="fill:#ffffff;fill-opacity:1;fill-rule:nonzero;stroke:none"
   id="path290"
   inkscape:connector-curvature="0" /><path
   d="M 395.86,66.09 H 570.52"
   style="fill:none;stroke:#dedede;stroke-width:0.27000001;stroke-linecap:butt;stroke-linejoin:round;stroke-miterlimit:10;stroke-dasharray:none;stroke-opacity:1"
   id="path292"
   inkscape:connector-curvature="0" /><path
   d="M 395.86,110.3 H 570.52"
   style="fill:none;stroke:#dedede;stroke-width:0.27000001;stroke-linecap:butt;stroke-linejoin:round;stroke-miterlimit:10;stroke-dasharray:none;stroke-opacity:1"
   id="path294"
   inkscape:connector-curvature="0" /><path
   d="M 395.86,154.51 H 570.52"
   style="fill:none;stroke:#dedede;stroke-width:0.27000001;stroke-linecap:butt;stroke-linejoin:round;stroke-miterlimit:10;stroke-dasharray:none;stroke-opacity:1"
   id="path296"
   inkscape:connector-curvature="0" /><path
   d="M 395.86,198.73 H 570.52"
   style="fill:none;stroke:#dedede;stroke-width:0.27000001;stroke-linecap:butt;stroke-linejoin:round;stroke-miterlimit:10;stroke-dasharray:none;stroke-opacity:1"
   id="path298"
   inkscape:connector-curvature="0" /><path
   d="M 395.86,242.94 H 570.52"
   style="fill:none;stroke:#dedede;stroke-width:0.27000001;stroke-linecap:butt;stroke-linejoin:round;stroke-miterlimit:10;stroke-dasharray:none;stroke-opacity:1"
   id="path300"
   inkscape:connector-curvature="0" /><path
   d="M 408.87,33.52 V 263.57"
   style="fill:none;stroke:#dedede;stroke-width:0.27000001;stroke-linecap:butt;stroke-linejoin:round;stroke-miterlimit:10;stroke-dasharray:none;stroke-opacity:1"
   id="path302"
   inkscape:connector-curvature="0" /><path
   d="M 459.58,33.52 V 263.57"
   style="fill:none;stroke:#dedede;stroke-width:0.27000001;stroke-linecap:butt;stroke-linejoin:round;stroke-miterlimit:10;stroke-dasharray:none;stroke-opacity:1"
   id="path304"
   inkscape:connector-curvature="0" /><path
   d="M 510.29,33.52 V 263.57"
   style="fill:none;stroke:#dedede;stroke-width:0.27000001;stroke-linecap:butt;stroke-linejoin:round;stroke-miterlimit:10;stroke-dasharray:none;stroke-opacity:1"
   id="path306"
   inkscape:connector-curvature="0" /><path
   d="M 561,33.52 V 263.57"
   style="fill:none;stroke:#dedede;stroke-width:0.27000001;stroke-linecap:butt;stroke-linejoin:round;stroke-miterlimit:10;stroke-dasharray:none;stroke-opacity:1"
   id="path308"
   inkscape:connector-curvature="0" /><path
   d="M 395.86,43.98 H 570.52"
   style="fill:none;stroke:#dedede;stroke-width:0.52999997;stroke-linecap:butt;stroke-linejoin:round;stroke-miterlimit:10;stroke-dasharray:none;stroke-opacity:1"
   id="path310"
   inkscape:connector-curvature="0" /><path
   d="M 395.86,88.19 H 570.52"
   style="fill:none;stroke:#dedede;stroke-width:0.52999997;stroke-linecap:butt;stroke-linejoin:round;stroke-miterlimit:10;stroke-dasharray:none;stroke-opacity:1"
   id="path312"
   inkscape:connector-curvature="0" /><path
   d="M 395.86,132.41 H 570.52"
   style="fill:none;stroke:#dedede;stroke-width:0.52999997;stroke-linecap:butt;stroke-linejoin:round;stroke-miterlimit:10;stroke-dasharray:none;stroke-opacity:1"
   id="path314"
   inkscape:connector-curvature="0" /><path
   d="M 395.86,176.62 H 570.52"
   style="fill:none;stroke:#dedede;stroke-width:0.52999997;stroke-linecap:butt;stroke-linejoin:round;stroke-miterlimit:10;stroke-dasharray:none;stroke-opacity:1"
   id="path316"
   inkscape:connector-curvature="0" /><path
   d="M 395.86,220.83 H 570.52"
   style="fill:none;stroke:#dedede;stroke-width:0.52999997;stroke-linecap:butt;stroke-linejoin:round;stroke-miterlimit:10;stroke-dasharray:none;stroke-opacity:1"
   id="path318"
   inkscape:connector-curvature="0" /><path
   d="M 434.22,33.52 V 263.57"
   style="fill:none;stroke:#dedede;stroke-width:0.52999997;stroke-linecap:butt;stroke-linejoin:round;stroke-miterlimit:10;stroke-dasharray:none;stroke-opacity:1"
   id="path320"
   inkscape:connector-curvature="0" /><path
   d="M 484.93,33.52 V 263.57"
   style="fill:none;stroke:#dedede;stroke-width:0.52999997;stroke-linecap:butt;stroke-linejoin:round;stroke-miterlimit:10;stroke-dasharray:none;stroke-opacity:1"
   id="path322"
   inkscape:connector-curvature="0" /><path
   d="M 535.64,33.52 V 263.57"
   style="fill:none;stroke:#dedede;stroke-width:0.52999997;stroke-linecap:butt;stroke-linejoin:round;stroke-miterlimit:10;stroke-dasharray:none;stroke-opacity:1"
   id="path324"
   inkscape:connector-curvature="0" /><path
   d="m 416.64,177.72 1.77,-0.67 1.77,-0.67 1.77,-0.67 1.78,-0.66 1.77,-0.67 1.77,-0.66 1.77,-0.66 1.77,-0.66 1.77,-0.66 1.77,-0.66 1.77,-0.65 1.77,-0.65 1.77,-0.65 1.78,-0.64 1.77,-0.65 1.77,-0.64 1.77,-0.64 1.77,-0.63 1.77,-0.63 1.77,-0.63 1.77,-0.62 1.77,-0.62 1.77,-0.61 1.78,-0.61 1.77,-0.6 1.77,-0.59 1.77,-0.6 1.77,-0.58 1.77,-0.58 1.77,-0.57 1.77,-0.56 1.77,-0.55 1.77,-0.54 1.78,-0.54 1.77,-0.52 1.77,-0.51 1.77,-0.5 1.77,-0.49 1.77,-0.48 1.77,-0.46 1.77,-0.45 1.77,-0.44 1.77,-0.42 1.78,-0.4 1.77,-0.39 1.77,-0.38 1.77,-0.36 1.77,-0.34 1.77,-0.33 1.77,-0.32 1.77,-0.3 1.77,-0.28 1.77,-0.27 1.78,-0.26 1.77,-0.24 1.77,-0.23 1.77,-0.22 1.77,-0.21 1.77,-0.2 1.77,-0.19 1.77,-0.17 1.77,-0.17 1.77,-0.16 1.78,-0.15 1.77,-0.15 1.77,-0.14 1.77,-0.13 1.77,-0.12 1.77,-0.12 1.77,-0.12 1.77,-0.1 1.77,-0.11 1.77,-0.1 1.77,-0.09 1.78,-0.1 1.77,-0.08 1.77,-0.09 1.77,-0.08 1.77,-0.08 V 117.9 l -1.77,0.65 -1.77,0.64 -1.77,0.64 -1.77,0.63 -1.78,0.63 -1.77,0.63 -1.77,0.62 -1.77,0.62 -1.77,0.61 -1.77,0.61 -1.77,0.6 -1.77,0.6 -1.77,0.59 -1.77,0.59 -1.77,0.58 -1.78,0.57 -1.77,0.56 -1.77,0.55 -1.77,0.55 -1.77,0.53 -1.77,0.53 -1.77,0.51 -1.77,0.51 -1.77,0.49 -1.77,0.48 -1.78,0.46 -1.77,0.46 -1.77,0.43 -1.77,0.43 -1.77,0.41 -1.77,0.39 -1.77,0.38 -1.77,0.36 -1.77,0.35 -1.77,0.33 -1.78,0.32 -1.77,0.3 -1.77,0.28 -1.77,0.28 -1.77,0.26 -1.77,0.24 -1.77,0.24 -1.77,0.22 -1.77,0.21 -1.77,0.2 -1.78,0.19 -1.77,0.18 -1.77,0.17 -1.77,0.16 -1.77,0.15 -1.77,0.15 -1.77,0.14 -1.77,0.13 -1.77,0.12 -1.77,0.12 -1.78,0.12 -1.77,0.11 -1.77,0.1 -1.77,0.1 -1.77,0.1 -1.77,0.09 -1.77,0.09 -1.77,0.09 -1.77,0.08 -1.77,0.08 -1.78,0.08 -1.77,0.07 -1.77,0.07 -1.77,0.07 -1.77,0.07 -1.77,0.06 -1.77,0.07 -1.77,0.06 -1.77,0.06 -1.77,0.05 -1.78,0.06 -1.77,0.06 -1.77,0.05 -1.77,0.05 z"
   style="fill:#999999;fill-opacity:0.4;fill-rule:nonzero;stroke:none"
   id="path326"
   inkscape:connector-curvature="0" /><path
   d="m 416.64,160.02 1.77,-0.36 1.77,-0.36 1.77,-0.36 1.78,-0.36 1.77,-0.37 1.77,-0.36 1.77,-0.36 1.77,-0.36 1.77,-0.36 1.77,-0.36 1.77,-0.36 1.77,-0.36 1.77,-0.37 1.78,-0.36 1.77,-0.36 1.77,-0.36 1.77,-0.36 1.77,-0.36 1.77,-0.36 1.77,-0.37 1.77,-0.36 1.77,-0.36 1.77,-0.36 1.78,-0.36 1.77,-0.36 1.77,-0.36 1.77,-0.36 1.77,-0.37 1.77,-0.36 1.77,-0.36 1.77,-0.36 1.77,-0.36 1.77,-0.36 1.78,-0.36 1.77,-0.37 1.77,-0.36 1.77,-0.36 1.77,-0.36 1.77,-0.36 1.77,-0.36 1.77,-0.36 1.77,-0.36 1.77,-0.37 1.78,-0.36 1.77,-0.36 1.77,-0.36 1.77,-0.36 1.77,-0.36 1.77,-0.36 1.77,-0.37 1.77,-0.36 1.77,-0.36 1.77,-0.36 1.78,-0.36 1.77,-0.36 1.77,-0.36 1.77,-0.36 1.77,-0.37 1.77,-0.36 1.77,-0.36 1.77,-0.36 1.77,-0.36 1.77,-0.36 1.78,-0.36 1.77,-0.36 1.77,-0.37 1.77,-0.36 1.77,-0.36 1.77,-0.36 1.77,-0.36 1.77,-0.36 1.77,-0.36 1.77,-0.37 1.77,-0.36 1.78,-0.36 1.77,-0.36 1.77,-0.36 1.77,-0.36 1.77,-0.36"
   style="fill:none;stroke:#a6d854;stroke-width:2.13000011;stroke-linecap:butt;stroke-linejoin:round;stroke-miterlimit:10;stroke-dasharray:none;stroke-opacity:1"
   id="path328"
   inkscape:connector-curvature="0" /><text
   transform="matrix(1,0,0,-1,403.8,235.71)"
   style="font-style:oblique;font-variant:normal;font-size:11px;font-family:Helvetica;-inkscape-font-specification:Helvetica-Oblique;writing-mode:lr-tb;fill:#a6d854;fill-opacity:1;fill-rule:nonzero;stroke:none"
   id="text332"><tspan
     x="0"
     y="0"
     id="tspan330">R</tspan></text>
<text
   transform="matrix(1,0,0,-1,414.49,235.71)"
   style="font-variant:normal;font-weight:normal;font-size:11px;font-family:Helvetica;-inkscape-font-specification:Helvetica;writing-mode:lr-tb;fill:#a6d854;fill-opacity:1;fill-rule:nonzero;stroke:none"
   id="text336"><tspan
     x="0"
     y="0"
     id="tspan334">=</tspan></text>
<text
   transform="matrix(1,0,0,-1,423.66,235.71)"
   style="font-variant:normal;font-weight:normal;font-size:11px;font-family:Symbol;-inkscape-font-specification:Symbol;writing-mode:lr-tb;fill:#a6d854;fill-opacity:1;fill-rule:nonzero;stroke:none"
   id="text340"><tspan
     x="0"
     y="0"
     id="tspan338">-</tspan></text>
<text
   transform="matrix(1,0,0,-1,431.23,235.71)"
   style="font-variant:normal;font-weight:normal;font-size:11px;font-family:Helvetica;-inkscape-font-specification:Helvetica;writing-mode:lr-tb;fill:#a6d854;fill-opacity:1;fill-rule:nonzero;stroke:none"
   id="text344"
   y="0"><tspan
     x="0 6.1160002 9.1739998 15.29"
     y="0"
     sodipodi:role="line"
     id="tspan342">0.13</tspan></text>
<text
   transform="matrix(1,0,0,-1,452.63,235.71)"
   style="font-variant:normal;font-weight:normal;font-size:11px;font-family:Helvetica;-inkscape-font-specification:Helvetica;writing-mode:lr-tb;fill:#a6d854;fill-opacity:1;fill-rule:nonzero;stroke:none"
   id="text348"><tspan
     x="0"
     y="0"
     id="tspan346">,</tspan></text>
<text
   transform="matrix(1,0,0,-1,458.44,235.71)"
   style="font-style:oblique;font-variant:normal;font-size:11px;font-family:Helvetica;-inkscape-font-specification:Helvetica-Oblique;writing-mode:lr-tb;fill:#a6d854;fill-opacity:1;fill-rule:nonzero;stroke:none"
   id="text352"><tspan
     x="0"
     y="0"
     id="tspan350">p</tspan></text>
<text
   transform="matrix(1,0,0,-1,467.31,235.71)"
   style="font-variant:normal;font-weight:normal;font-size:11px;font-family:Helvetica;-inkscape-font-specification:Helvetica;writing-mode:lr-tb;fill:#a6d854;fill-opacity:1;fill-rule:nonzero;stroke:none"
   id="text356"><tspan
     x="0"
     y="0"
     id="tspan354">=</tspan></text>
<text
   transform="matrix(1,0,0,-1,476.48,235.71)"
   style="font-variant:normal;font-weight:normal;font-size:11px;font-family:Helvetica;-inkscape-font-specification:Helvetica;writing-mode:lr-tb;fill:#a6d854;fill-opacity:1;fill-rule:nonzero;stroke:none"
   id="text360"
   y="0"><tspan
     x="0 6.1160002 9.1739998 15.29"
     y="0"
     sodipodi:role="line"
     id="tspan358">0.04</tspan></text>
<path
   d="m 562.58,118.86 -0.35,2.29 -0.52,2.86 -0.59,2.86 -0.06,0.25 -0.58,2.61 -0.72,2.86 -0.22,0.82 -0.54,2.03 -0.84,2.86 -0.14,0.46 -0.74,2.4 -0.78,2.41 -0.15,0.45 -0.95,2.86 -0.42,1.25 -0.55,1.6 -0.97,2.86 -0.01,0.02 -0.92,2.84 -0.6,1.89 -0.3,0.97 -0.84,2.86 -0.38,1.42 -0.38,1.44 -0.68,2.85 -0.46,2.25 -0.12,0.61 -0.49,2.86 -0.38,2.86 -0.28,2.86 -0.17,2.86 -0.07,2.85 0.03,2.86 0.13,2.86 0.2,2.86 0.28,2.86 0.33,2.85 0.36,2.86 0.18,1.39 0.2,1.47 0.36,2.86 0.34,2.86 0.28,2.86 0.22,2.85 0.12,2.82 v 0.04 l 0.03,2.86 -0.03,0.74 -0.07,2.12 -0.24,2.86 -0.4,2.86 -0.59,2.85 -0.22,0.81 -0.6,2.05 -0.92,2.45 -0.17,0.41 -1.35,2.66 -0.11,0.2 -1.41,2.11 -0.59,0.75 -0.93,1.08 -1.53,1.46 -0.39,0.32 -1.13,0.86 -1.52,0.95 -1.52,0.76 -0.71,0.28 -0.81,0.33 -1.52,0.48 -1.52,0.37 -1.52,0.29 -1.53,0.22 -1.52,0.17 -1.52,0.14 -1.52,0.12 -1.52,0.11 -1.52,0.12 -1.52,0.12 -1.52,0.12 -1.53,0.14 -1.5,0.13 h -0.02 l -1.52,0.14 -1.52,0.13 -1.52,0.11 -1.52,0.07 -1.52,0.03 -1.52,-0.03 -1.52,-0.1 -1.53,-0.18 -0.91,-0.17 -0.61,-0.11 -1.52,-0.39 -1.52,-0.52 -1.52,-0.7 -1.52,-0.88 -0.36,-0.26 -1.16,-0.84 -1.52,-1.37 -0.61,-0.64 -0.92,-1.05 -1.33,-1.81 -0.19,-0.28 -1.51,-2.58 -0.01,-0.02 -1.33,-2.84 -0.19,-0.46 -0.92,-2.4 -0.6,-1.86 -0.32,-1 -0.78,-2.85 -0.42,-1.82 -0.25,-1.04 -0.6,-2.86 -0.51,-2.86 -0.16,-1.03 -0.32,-1.83 -0.45,-2.86 -0.42,-2.85 -0.33,-2.48 -0.07,-0.38 -0.44,-2.86 -0.45,-2.86 -0.46,-2.86 -0.11,-0.67 -0.47,-2.19 -0.65,-2.85 -0.4,-1.68 -0.42,-1.18 -1.02,-2.86 -0.08,-0.21 -1.52,-2.64 -0.02,-0.01 -1.5,-1.25 -1.52,0.66 -0.26,0.59 -1.26,2.63 -0.06,0.23 -1.05,2.86 -0.41,0.81 -0.78,2.05 -0.75,1.42 -0.61,1.43 -0.91,1.56 -0.65,1.3 -0.87,1.33 -0.91,1.53 -0.61,0.83 -1.4,2.03 -0.12,0.14 -1.52,1.95 -0.58,0.77 -0.94,1.08 -1.52,1.75 -0.02,0.03 -1.5,1.59 -1.22,1.26 -0.31,0.31 -1.52,1.47 -1.16,1.08 -0.36,0.33 -1.52,1.34 -1.43,1.19 -0.09,0.08 -1.52,1.2 -1.52,1.11 -0.7,0.47 -0.82,0.56 -1.53,0.92 -1.52,0.79 -1.37,0.59 -0.15,0.06 -1.52,0.5 -1.52,0.31 -1.52,0.09 -1.52,-0.14 -1.52,-0.4 -0.94,-0.42 -0.59,-0.27 -1.52,-1.02 -1.52,-1.38 -0.17,-0.19 -1.35,-1.65 -0.81,-1.21 -0.71,-1.21 -0.83,-1.65 -0.69,-1.65 -0.45,-1.21 -0.84,-2.85 -0.23,-1.1 -0.36,-1.76 -0.36,-2.86 -0.17,-2.86 0.02,-2.86 0.2,-2.86 0.36,-2.85 0.31,-1.69 0.21,-1.17 0.67,-2.86 0.64,-2.29 0.16,-0.57 0.91,-2.86 0.45,-1.33 0.53,-1.52 0.99,-2.76 0.04,-0.1 1.04,-2.86 0.44,-1.32 0.55,-1.54 0.9,-2.86 0.07,-0.3 0.69,-2.56 0.52,-2.85 0.23,-2.86 -0.14,-2.86 -0.56,-2.86 -0.74,-2.09 -0.25,-0.77 -1.27,-2.73 -0.05,-0.13 -1.47,-2.76 -0.05,-0.09 -1.47,-2.66 -0.1,-0.2 -1.42,-2.64 -0.11,-0.22 -1.41,-2.86 v 0 l -1.25,-2.86 -0.27,-0.68 -0.81,-2.17 -0.72,-2.23 -0.19,-0.63 -0.73,-2.86 -0.57,-2.86 -0.03,-0.16 -0.39,-2.7 -0.26,-2.86 -0.12,-2.85 0.01,-2.86 0.14,-2.86 0.27,-2.86 0.35,-2.53 0.05,-0.33 0.52,-2.86 0.66,-2.85 0.29,-1.11 0.51,-1.75 0.95,-2.86 0.07,-0.18 1.08,-2.68 0.44,-0.98 0.95,-1.88 0.57,-1.06 1.13,-1.8 0.39,-0.59 1.52,-1.94 0.31,-0.32 1.21,-1.25 1.52,-1.21 0.69,-0.4 0.83,-0.5 1.53,-0.62 1.52,-0.34 1.52,-0.07 1.52,0.18 1.52,0.42 1.52,0.65 0.48,0.28 1.04,0.59 1.52,1.07 1.41,1.2 0.12,0.1 1.52,1.49 1.14,1.26 0.38,0.45 1.52,1.95 0.35,0.46 1.17,1.76 0.71,1.1 0.81,1.45 0.79,1.41 0.73,1.55 0.65,1.31 0.87,2.17 0.31,0.69 1.04,2.85 0.18,0.59 0.83,2.27 0.69,2.29 0.25,0.57 1.12,2.86 0.15,0.42 1.52,1.76 1.52,-0.41 1.39,-1.77 0.13,-0.14 1.48,-2.72 0.04,-0.07 1.25,-2.79 0.27,-0.53 0.94,-2.33 0.58,-1.34 0.57,-1.51 0.96,-2.41 0.16,-0.45 1.05,-2.86 0.31,-0.79 0.72,-2.07 0.8,-2.17 0.23,-0.69 1.02,-2.86 0.27,-0.71 0.77,-2.14 0.75,-1.95 0.35,-0.91 1.17,-2.86 v 0 l 1.3,-2.86 0.22,-0.45 1.26,-2.41 0.26,-0.45 1.49,-2.4 0.04,-0.05 1.52,-2.07 0.59,-0.74 0.93,-1.05 1.52,-1.54 0.29,-0.27 1.23,-1.05 1.52,-1.17 0.92,-0.64 0.6,-0.4 1.52,-0.93 1.53,-0.87 1.18,-0.66 0.34,-0.17 1.52,-0.81 1.52,-0.81 1.52,-0.84 0.38,-0.23 1.14,-0.65 1.52,-0.91 1.52,-0.97 0.47,-0.32 1.06,-0.71 1.52,-1.08 1.46,-1.07 0.06,-0.05 1.52,-1.17 1.52,-1.19 0.56,-0.45"
   style="fill:none;stroke:#a6d854;stroke-width:1.07000005;stroke-linecap:butt;stroke-linejoin:round;stroke-miterlimit:10;stroke-dasharray:none;stroke-opacity:1"
   id="path362"
   inkscape:connector-curvature="0" /><path
   d="m 552.72,43.98 0.73,1.89 0.36,0.97 0.93,2.86 0.24,0.76 0.61,2.09 0.77,2.86 0.14,0.5 0.61,2.36 0.72,2.86 0.19,0.74 0.53,2.12 0.7,2.86 0.29,1.22 0.39,1.63 0.67,2.86 0.46,2.14 0.16,0.72 0.59,2.86 0.53,2.86 0.24,1.52"
   style="fill:none;stroke:#a6d854;stroke-width:1.07000005;stroke-linecap:butt;stroke-linejoin:round;stroke-miterlimit:10;stroke-dasharray:none;stroke-opacity:1"
   id="path364"
   inkscape:connector-curvature="0" /><path
   d="m 516.94,228.06 -1.52,0.43 -1.52,0.37 -1.52,0.27 -1.52,0.16 -1.52,0.02 -1.52,-0.15 -1.52,-0.38 -1.52,-0.65 -1.53,-0.97 -0.29,-0.25 -1.23,-1.34 -1.05,-1.52 -0.47,-0.91 -0.8,-1.95 -0.72,-2.63 -0.05,-0.23 -0.39,-2.86 -0.12,-2.85 0.09,-2.86 0.28,-2.86 0.19,-1.29 0.26,-1.57 0.59,-2.86 0.67,-2.76 0.03,-0.1 0.8,-2.85 0.69,-2.45 0.13,-0.41 0.81,-2.86 0.58,-2.52 0.09,-0.34 0.49,-2.86 0.2,-2.85 -0.13,-2.86 -0.5,-2.86 -0.15,-0.5 -0.68,-2.36 -0.84,-2.03 -0.33,-0.83 -1.19,-2.27 -0.3,-0.59 -1.22,-1.98 -0.54,-0.87 -0.98,-1.41 -1.01,-1.45 -0.51,-0.67 -1.52,-2.03 -0.12,-0.16 -1.4,-1.82 -0.78,-1.04 -0.75,-0.98 -1.36,-1.88 -0.16,-0.21 -1.52,-2.23 -0.26,-0.42 -1.26,-2.06 -0.45,-0.79 -1.07,-2.08 -0.38,-0.78 -1.14,-2.72 -0.06,-0.14 -0.93,-2.86 -0.53,-2.13 -0.18,-0.73 -0.47,-2.85 -0.26,-2.86 -0.06,-2.86 0.13,-2.86 0.31,-2.86 0.49,-2.86 0.04,-0.17 0.63,-2.68 0.84,-2.86 0.05,-0.13 0.99,-2.73 0.53,-1.29 0.69,-1.57 0.83,-1.71 0.6,-1.15 0.92,-1.66 0.72,-1.2 0.8,-1.28 1.07,-1.57 0.45,-0.67 1.53,-2.05 0.1,-0.14 1.42,-1.82 0.84,-1.04 0.68,-0.85 1.52,-1.87 0.11,-0.14 1.41,-1.8 0.8,-1.06 0.72,-0.97 1.32,-1.89 0.2,-0.29 1.52,-2.36 0.12,-0.2 1.41,-2.34 0.29,-0.52 1.23,-2.14 0.38,-0.72 1.14,-2 0.45,-0.86 1.07,-1.84 0.56,-1.02 0.96,-1.58 0.75,-1.27 0.77,-1.18 1.08,-1.68 0.44,-0.62 1.52,-2.13 0.08,-0.11 1.44,-1.83 0.85,-1.03 0.68,-0.77 1.52,-1.64 0.44,-0.45 1.08,-1.03 1.52,-1.34 0.62,-0.49 0.9,-0.69 1.52,-1.03 1.52,-0.86 0.6,-0.27 0.92,-0.43 1.53,-0.5 1.52,-0.31 1.52,-0.09 1.52,0.15 1.52,0.42 1.52,0.73 0.05,0.03 1.47,1.04 1.52,1.47 0.29,0.34 1.24,1.59 0.82,1.27 0.7,1.15 0.9,1.71 0.62,1.24 0.72,1.62 0.8,1.85 0.4,1.01 1.09,2.86 0.03,0.08 0.98,2.77 0.54,1.62 0.4,1.24 0.87,2.86 0.25,0.89 0.55,1.97 0.71,2.86 0.26,1.21 0.36,1.64 0.52,2.86 0.42,2.86 0.23,2.09 0.08,0.77 0.21,2.86 0.11,2.86 v 2.85 l -0.09,2.86 -0.18,2.86 -0.13,1.39 -0.15,1.47 -0.35,2.86 -0.44,2.86 -0.53,2.85 -0.06,0.27 -0.54,2.59 -0.69,2.86 -0.29,1.08 -0.48,1.78 -0.84,2.86 -0.2,0.61 -0.73,2.25 -0.79,2.26 -0.21,0.59 -1.08,2.86 -0.23,0.6 -0.91,2.26 -0.61,1.49 -0.59,1.37 -0.93,2.2 -0.3,0.66 -1.22,2.8 -0.03,0.05 -1.26,2.86 -0.24,0.57 -1.01,2.29 -0.51,1.24 -0.71,1.62 -0.81,2 -0.37,0.86 -1.14,2.86 -0.01,0.03 -1.09,2.82 -0.43,1.26 -0.61,1.6 -0.91,2.78 -0.03,0.08 -0.89,2.86 -0.6,2.43 -0.12,0.43 -0.61,2.86 -0.41,2.85 -0.23,2.86 -0.06,2.86 0.08,2.86 0.18,2.86 0.23,2.85 0.26,2.86 0.22,2.86 0.14,2.86 v 2.86 l -0.21,2.86 -0.51,2.85 -0.48,1.55 -0.49,1.31 -1.04,1.88 -0.65,0.98 -0.87,0.98 -1.52,1.42 -0.56,0.46 -0.96,0.63 -1.52,0.87 -1.52,0.77 -1.29,0.59 -0.23,0.09 -1.52,0.56 -1.53,0.5"
   style="fill:none;stroke:#a6d854;stroke-width:1.07000005;stroke-linecap:butt;stroke-linejoin:round;stroke-miterlimit:10;stroke-dasharray:none;stroke-opacity:1"
   id="path366"
   inkscape:connector-curvature="0" /><path
   d="m 524.55,147.5 -1.52,0.11 -1.52,-0.18 -1.52,-0.46 -0.2,-0.09 -1.32,-0.65 -1.53,-0.98 -1.52,-1.21 -0.03,-0.02 -1.49,-1.39 -1.44,-1.47 -0.08,-0.09 -1.52,-1.75 -0.86,-1.02 -0.66,-0.89 -1.45,-1.97 -0.07,-0.11 -1.52,-2.5 -0.15,-0.24 -1.27,-2.86 -0.1,-0.38 -0.65,-2.48 -0.23,-2.86 0.25,-2.86 0.63,-2.73 0.02,-0.13 0.93,-2.85 0.57,-1.37 0.55,-1.49 0.97,-2.24 0.24,-0.62 1.23,-2.86 0.05,-0.1 1.15,-2.76 0.37,-0.85 0.79,-2.01 0.73,-1.81 0.39,-1.04 1.06,-2.86 0.07,-0.2 0.94,-2.66 0.58,-1.64 0.42,-1.22 1,-2.86 0.1,-0.28 0.94,-2.58 0.59,-1.53 0.52,-1.32 1,-2.33 0.24,-0.53 1.28,-2.56 0.17,-0.3 1.35,-2.22 0.44,-0.64 1.08,-1.4 1.34,-1.46 0.18,-0.17 1.52,-1.21 1.52,-0.86 1.53,-0.5 1.26,-0.11 0.26,-0.03 0.14,0.03 1.38,0.22 1.52,0.64 1.52,1.04 1,0.95 0.52,0.52 1.52,1.94 0.26,0.4 1.26,2.05 0.43,0.81 1.1,2.2 0.28,0.66 1.16,2.86 0.08,0.22 0.86,2.63 0.66,2.38 0.12,0.48 0.61,2.86 0.46,2.86 0.31,2.86 0.02,0.39 0.13,2.47 0.02,2.85 -0.11,2.86 -0.04,0.51 -0.2,2.35 -0.37,2.86 -0.48,2.86 -0.47,2.32 -0.12,0.54 -0.72,2.85 -0.68,2.38 -0.15,0.48 -0.97,2.86 -0.4,1.09 -0.71,1.77 -0.82,1.9 -0.44,0.96 -1.08,2.19 -0.36,0.67 -1.16,2.08 -0.48,0.77 -1.04,1.66 -0.85,1.2 -0.67,0.96 -1.52,1.9 v 0 l -1.52,1.68 -1.27,1.18 -0.25,0.25 -1.53,1.2 -1.52,0.94 -1.05,0.47 -0.47,0.21 -1.52,0.41"
   style="fill:none;stroke:#a6d854;stroke-width:1.07000005;stroke-linecap:butt;stroke-linejoin:round;stroke-miterlimit:10;stroke-dasharray:none;stroke-opacity:1"
   id="path368"
   inkscape:connector-curvature="0" /><path
   d="M 395.86,33.52 H 570.52 V 263.56 H 395.86 Z"
   style="fill:none;stroke:#b3b3b3;stroke-width:1.07000005;stroke-linecap:round;stroke-linejoin:round;stroke-miterlimit:10;stroke-dasharray:none;stroke-opacity:1"
   id="path370"
   inkscape:connector-curvature="0" /></g></g><g
       id="g372" /><g
       id="g374"><g
         id="g376"
         clip-path="url(#clipPath380)" /></g><g
       id="g382"><g
         id="g384"
         clip-path="url(#clipPath388)"><path
   d="m 35.57,263.57 h 174.66 v 18.95 H 35.57 Z"
   style="fill:#b3b3b3;fill-opacity:1;fill-rule:nonzero;stroke:none"
   id="path390"
   inkscape:connector-curvature="0" /><text
   transform="matrix(1,0,0,-1,111.28,269.11)"
   style="font-variant:normal;font-weight:normal;font-size:11px;font-family:Arial;-inkscape-font-specification:ArialMT;writing-mode:lr-tb;fill:#000000;fill-opacity:1;fill-rule:nonzero;stroke:none"
   id="text394"
   y="0"><tspan
     x="0 6.1160002 14.674"
     y="0"
     sodipodi:role="line"
     id="tspan392">LGG</tspan></text>
</g></g><g
       id="g396"><g
         id="g398"
         clip-path="url(#clipPath402)" /></g><g
       id="g404"><g
         id="g406"
         clip-path="url(#clipPath410)" /></g><g
       id="g412" /><g
       id="g414"><g
         id="g416"
         clip-path="url(#clipPath420)" /></g><g
       id="g422"><g
         id="g424"
         clip-path="url(#clipPath428)"><path
   d="m 215.71,263.57 h 174.66 v 18.95 H 215.71 Z"
   style="fill:#b3b3b3;fill-opacity:1;fill-rule:nonzero;stroke:none"
   id="path430"
   inkscape:connector-curvature="0" /><text
   transform="matrix(1,0,0,-1,289.91,269.11)"
   style="font-variant:normal;font-weight:normal;font-size:11px;font-family:Arial;-inkscape-font-specification:ArialMT;writing-mode:lr-tb;fill:#000000;fill-opacity:1;fill-rule:nonzero;stroke:none"
   id="text434"
   y="0"><tspan
     x="0 7.3369999 10.395 18.337"
     y="0"
     sodipodi:role="line"
     id="tspan432">KIRC</tspan></text>
</g></g><g
       id="g436"><g
         id="g438"
         clip-path="url(#clipPath442)" /></g><g
       id="g444"><g
         id="g446"
         clip-path="url(#clipPath450)" /></g><g
       id="g452" /><g
       id="g454"><g
         id="g456"
         clip-path="url(#clipPath460)" /></g><g
       id="g462"><g
         id="g464"
         clip-path="url(#clipPath468)"><path
   d="m 395.86,263.57 h 174.66 v 18.95 H 395.86 Z"
   style="fill:#b3b3b3;fill-opacity:1;fill-rule:nonzero;stroke:none"
   id="path470"
   inkscape:connector-curvature="0" /><text
   transform="matrix(1,0,0,-1,467.3,269.11)"
   style="font-variant:normal;font-weight:normal;font-size:11px;font-family:Arial;-inkscape-font-specification:ArialMT;writing-mode:lr-tb;fill:#000000;fill-opacity:1;fill-rule:nonzero;stroke:none"
   id="text474"
   y="0"><tspan
     x="0 7.3369999 14.674 22.615999"
     y="0"
     sodipodi:role="line"
     id="tspan472">SKCM</tspan></text>
</g></g><g
       id="g476"><g
         id="g478"
         clip-path="url(#clipPath482)" /></g><g
       id="g484"><g
         id="g486"
         clip-path="url(#clipPath490)" /></g><g
       id="g492" /><g
       id="g494" /><g
       id="g496" /><g
       id="g498" /><g
       id="g500" /><g
       id="g502" /><g
       id="g504" /><g
       id="g506" /><g
       id="g508" /><g
       id="g510" /><g
       id="g512" /><g
       id="g514"><path
         d="m 73.93,30.78 v 2.74"
         style="fill:none;stroke:#b3b3b3;stroke-width:0.52999997;stroke-linecap:butt;stroke-linejoin:round;stroke-miterlimit:10;stroke-dasharray:none;stroke-opacity:1"
         id="path516"
         inkscape:connector-curvature="0" /><path
         d="m 124.64,30.78 v 2.74"
         style="fill:none;stroke:#b3b3b3;stroke-width:0.52999997;stroke-linecap:butt;stroke-linejoin:round;stroke-miterlimit:10;stroke-dasharray:none;stroke-opacity:1"
         id="path518"
         inkscape:connector-curvature="0" /><path
         d="m 175.35,30.78 v 2.74"
         style="fill:none;stroke:#b3b3b3;stroke-width:0.52999997;stroke-linecap:butt;stroke-linejoin:round;stroke-miterlimit:10;stroke-dasharray:none;stroke-opacity:1"
         id="path520"
         inkscape:connector-curvature="0" /></g><g
       id="g522" /><g
       id="g524"><text
   transform="matrix(1,0,0,-1,63.08,19.56)"
   style="font-variant:normal;font-weight:normal;font-size:11px;font-family:Arial;-inkscape-font-specification:ArialMT;writing-mode:lr-tb;fill:#333333;fill-opacity:1;fill-rule:nonzero;stroke:none"
   id="text528"
   y="0"><tspan
     x="0 6.4239998 12.54 15.598"
     y="0"
     sodipodi:role="line"
     id="tspan526">0.5</tspan></text>
<text
   transform="matrix(1,0,0,-1,117,19.56)"
   style="font-variant:normal;font-weight:normal;font-size:11px;font-family:Arial;-inkscape-font-specification:ArialMT;writing-mode:lr-tb;fill:#333333;fill-opacity:1;fill-rule:nonzero;stroke:none"
   id="text532"
   y="0"><tspan
     x="0 6.1160002 9.1739998"
     y="0"
     sodipodi:role="line"
     id="tspan530">0.0</tspan></text>
<text
   transform="matrix(1,0,0,-1,167.71,19.56)"
   style="font-variant:normal;font-weight:normal;font-size:11px;font-family:Arial;-inkscape-font-specification:ArialMT;writing-mode:lr-tb;fill:#333333;fill-opacity:1;fill-rule:nonzero;stroke:none"
   id="text536"
   y="0"><tspan
     x="0 6.1160002 9.1739998"
     y="0"
     sodipodi:role="line"
     id="tspan534">0.5</tspan></text>
</g><g
       id="g538" /><g
       id="g540" /><g
       id="g542" /><g
       id="g544" /><g
       id="g546" /><g
       id="g548" /><g
       id="g550" /><g
       id="g552"><path
         d="m 254.08,30.78 v 2.74"
         style="fill:none;stroke:#b3b3b3;stroke-width:0.52999997;stroke-linecap:butt;stroke-linejoin:round;stroke-miterlimit:10;stroke-dasharray:none;stroke-opacity:1"
         id="path554"
         inkscape:connector-curvature="0" /><path
         d="m 304.79,30.78 v 2.74"
         style="fill:none;stroke:#b3b3b3;stroke-width:0.52999997;stroke-linecap:butt;stroke-linejoin:round;stroke-miterlimit:10;stroke-dasharray:none;stroke-opacity:1"
         id="path556"
         inkscape:connector-curvature="0" /><path
         d="m 355.5,30.78 v 2.74"
         style="fill:none;stroke:#b3b3b3;stroke-width:0.52999997;stroke-linecap:butt;stroke-linejoin:round;stroke-miterlimit:10;stroke-dasharray:none;stroke-opacity:1"
         id="path558"
         inkscape:connector-curvature="0" /></g><g
       id="g560" /><g
       id="g562"><text
   transform="matrix(1,0,0,-1,243.22,19.56)"
   style="font-variant:normal;font-weight:normal;font-size:11px;font-family:Arial;-inkscape-font-specification:ArialMT;writing-mode:lr-tb;fill:#333333;fill-opacity:1;fill-rule:nonzero;stroke:none"
   id="text566"
   y="0"><tspan
     x="0 6.4239998 12.54 15.598"
     y="0"
     sodipodi:role="line"
     id="tspan564">0.5</tspan></text>
<text
   transform="matrix(1,0,0,-1,297.14,19.56)"
   style="font-variant:normal;font-weight:normal;font-size:11px;font-family:Arial;-inkscape-font-specification:ArialMT;writing-mode:lr-tb;fill:#333333;fill-opacity:1;fill-rule:nonzero;stroke:none"
   id="text570"
   y="0"><tspan
     x="0 6.1160002 9.1739998"
     y="0"
     sodipodi:role="line"
     id="tspan568">0.0</tspan></text>
<text
   transform="matrix(1,0,0,-1,347.85,19.56)"
   style="font-variant:normal;font-weight:normal;font-size:11px;font-family:Arial;-inkscape-font-specification:ArialMT;writing-mode:lr-tb;fill:#333333;fill-opacity:1;fill-rule:nonzero;stroke:none"
   id="text574"
   y="0"><tspan
     x="0 6.1160002 9.1739998"
     y="0"
     sodipodi:role="line"
     id="tspan572">0.5</tspan></text>
</g><g
       id="g576" /><g
       id="g578" /><g
       id="g580" /><g
       id="g582" /><g
       id="g584" /><g
       id="g586" /><g
       id="g588" /><g
       id="g590"><path
         d="m 434.22,30.78 v 2.74"
         style="fill:none;stroke:#b3b3b3;stroke-width:0.52999997;stroke-linecap:butt;stroke-linejoin:round;stroke-miterlimit:10;stroke-dasharray:none;stroke-opacity:1"
         id="path592"
         inkscape:connector-curvature="0" /><path
         d="m 484.93,30.78 v 2.74"
         style="fill:none;stroke:#b3b3b3;stroke-width:0.52999997;stroke-linecap:butt;stroke-linejoin:round;stroke-miterlimit:10;stroke-dasharray:none;stroke-opacity:1"
         id="path594"
         inkscape:connector-curvature="0" /><path
         d="m 535.64,30.78 v 2.74"
         style="fill:none;stroke:#b3b3b3;stroke-width:0.52999997;stroke-linecap:butt;stroke-linejoin:round;stroke-miterlimit:10;stroke-dasharray:none;stroke-opacity:1"
         id="path596"
         inkscape:connector-curvature="0" /></g><g
       id="g598" /><g
       id="g600"><text
   transform="matrix(1,0,0,-1,423.36,19.56)"
   style="font-variant:normal;font-weight:normal;font-size:11px;font-family:Arial;-inkscape-font-specification:ArialMT;writing-mode:lr-tb;fill:#333333;fill-opacity:1;fill-rule:nonzero;stroke:none"
   id="text604"
   y="0"><tspan
     x="0 6.4239998 12.54 15.598"
     y="0"
     sodipodi:role="line"
     id="tspan602">0.5</tspan></text>
<text
   transform="matrix(1,0,0,-1,477.29,19.56)"
   style="font-variant:normal;font-weight:normal;font-size:11px;font-family:Arial;-inkscape-font-specification:ArialMT;writing-mode:lr-tb;fill:#333333;fill-opacity:1;fill-rule:nonzero;stroke:none"
   id="text608"
   y="0"><tspan
     x="0 6.1160002 9.1739998"
     y="0"
     sodipodi:role="line"
     id="tspan606">0.0</tspan></text>
<text
   transform="matrix(1,0,0,-1,528,19.56)"
   style="font-variant:normal;font-weight:normal;font-size:11px;font-family:Arial;-inkscape-font-specification:ArialMT;writing-mode:lr-tb;fill:#333333;fill-opacity:1;fill-rule:nonzero;stroke:none"
   id="text612"
   y="0"><tspan
     x="0 6.1160002 9.1739998"
     y="0"
     sodipodi:role="line"
     id="tspan610">0.5</tspan></text>
</g><g
       id="g614" /><g
       id="g616" /><g
       id="g618" /><g
       id="g620" /><g
       id="g622" /><g
       id="g624" /><g
       id="g626" /><g
       id="g628" /><g
       id="g630" /><g
       id="g632" /><g
       id="g634" /><g
       id="g636"><text
   transform="matrix(1,0,0,-1,24.52,43.98)"
   style="font-variant:normal;font-weight:normal;font-size:11px;font-family:Arial;-inkscape-font-specification:ArialMT;writing-mode:lr-tb;fill:#333333;fill-opacity:1;fill-rule:nonzero;stroke:none"
   id="text640"><tspan
     x="0"
     y="0"
     id="tspan638">0</tspan></text>
<text
   transform="matrix(1,0,0,-1,24.52,88.19)"
   style="font-variant:normal;font-weight:normal;font-size:11px;font-family:Arial;-inkscape-font-specification:ArialMT;writing-mode:lr-tb;fill:#333333;fill-opacity:1;fill-rule:nonzero;stroke:none"
   id="text644"><tspan
     x="0"
     y="0"
     id="tspan642">5</tspan></text>
<text
   transform="matrix(1,0,0,-1,18.41,132.41)"
   style="font-variant:normal;font-weight:normal;font-size:11px;font-family:Arial;-inkscape-font-specification:ArialMT;writing-mode:lr-tb;fill:#333333;fill-opacity:1;fill-rule:nonzero;stroke:none"
   id="text648"
   y="0"><tspan
     x="0 6.1160002"
     y="0"
     sodipodi:role="line"
     id="tspan646">10</tspan></text>
<text
   transform="matrix(1,0,0,-1,18.41,176.62)"
   style="font-variant:normal;font-weight:normal;font-size:11px;font-family:Arial;-inkscape-font-specification:ArialMT;writing-mode:lr-tb;fill:#333333;fill-opacity:1;fill-rule:nonzero;stroke:none"
   id="text652"
   y="0"><tspan
     x="0 6.1160002"
     y="0"
     sodipodi:role="line"
     id="tspan650">15</tspan></text>
<text
   transform="matrix(1,0,0,-1,18.41,220.83)"
   style="font-variant:normal;font-weight:normal;font-size:11px;font-family:Arial;-inkscape-font-specification:ArialMT;writing-mode:lr-tb;fill:#333333;fill-opacity:1;fill-rule:nonzero;stroke:none"
   id="text656"
   y="0"><tspan
     x="0 6.1160002"
     y="0"
     sodipodi:role="line"
     id="tspan654">20</tspan></text>
</g><g
       id="g658" /><g
       id="g660"><path
         d="m 32.83,43.98 h 2.74"
         style="fill:none;stroke:#b3b3b3;stroke-width:0.52999997;stroke-linecap:butt;stroke-linejoin:round;stroke-miterlimit:10;stroke-dasharray:none;stroke-opacity:1"
         id="path662"
         inkscape:connector-curvature="0" /><path
         d="m 32.83,88.19 h 2.74"
         style="fill:none;stroke:#b3b3b3;stroke-width:0.52999997;stroke-linecap:butt;stroke-linejoin:round;stroke-miterlimit:10;stroke-dasharray:none;stroke-opacity:1"
         id="path664"
         inkscape:connector-curvature="0" /><path
         d="m 32.83,132.41 h 2.74"
         style="fill:none;stroke:#b3b3b3;stroke-width:0.52999997;stroke-linecap:butt;stroke-linejoin:round;stroke-miterlimit:10;stroke-dasharray:none;stroke-opacity:1"
         id="path666"
         inkscape:connector-curvature="0" /><path
         d="m 32.83,176.62 h 2.74"
         style="fill:none;stroke:#b3b3b3;stroke-width:0.52999997;stroke-linecap:butt;stroke-linejoin:round;stroke-miterlimit:10;stroke-dasharray:none;stroke-opacity:1"
         id="path668"
         inkscape:connector-curvature="0" /><path
         d="m 32.83,220.83 h 2.74"
         style="fill:none;stroke:#b3b3b3;stroke-width:0.52999997;stroke-linecap:butt;stroke-linejoin:round;stroke-miterlimit:10;stroke-dasharray:none;stroke-opacity:1"
         id="path670"
         inkscape:connector-curvature="0" /></g><g
       id="g672" /><g
       id="g674" /><g
       id="g676" /><g
       id="g678" /><g
       id="g680" /><g
       id="g682" /><g
       id="g684" /><g
       id="g686" /><g
       id="g688" /><g
       id="g690" /><g
       id="g692" /><g
       id="g694"><text
   transform="matrix(1,0,0,-1,258.42,5.48)"
   style="font-variant:normal;font-weight:normal;font-size:11px;font-family:Arial;-inkscape-font-specification:ArialMT;writing-mode:lr-tb;fill:#333333;fill-opacity:1;fill-rule:nonzero;stroke:none"
   id="text698"
   y="0"><tspan
     x="0 7.3369999 14.674 22.615999 28.732 34.848 37.905998 44.021999 49.521999 51.964001 57.464001 60.521999 67.859001 73.359001 79.474998 83.138"
     y="0"
     sodipodi:role="line"
     id="tspan696">PANoptosis Score</tspan></text>
</g><g
       id="g700" /><g
       id="g702"><text
   transform="matrix(0,1,1,0,14.51,105.44)"
   style="font-variant:normal;font-weight:normal;font-size:11px;font-family:Arial;-inkscape-font-specification:ArialMT;writing-mode:lr-tb;fill:#333333;fill-opacity:1;fill-rule:nonzero;stroke:none"
   id="text706"
   y="0"><tspan
     x="0 7.3369999 13.453 19.569 25.684999 31.801001 34.243 40.359001 42.800999 48.917 54.417 57.474998 64.811996 70.311996 76.428001 80.091003"
     y="0"
     sodipodi:role="line"
     id="tspan704">Aneuploidy Score</tspan></text>
</g><g
       id="g708" /><g
       id="g710" /><g
       id="g712" /><g
       id="g714" /><g
       id="g716" /><g
       id="g718" /><g
       id="g720" /><g
       id="g722" /><g
       id="g724" /><g
       id="g726" /><g
       id="g728" /><g
       id="g730" /></g></svg>
