<?xml version="1.0" encoding="UTF-8" standalone="no"?>
<!-- Created with Inkscape (http://www.inkscape.org/) -->

<svg
   xmlns:dc="http://purl.org/dc/elements/1.1/"
   xmlns:cc="http://creativecommons.org/ns#"
   xmlns:rdf="http://www.w3.org/1999/02/22-rdf-syntax-ns#"
   xmlns:svg="http://www.w3.org/2000/svg"
   xmlns="http://www.w3.org/2000/svg"
   xmlns:sodipodi="http://sodipodi.sourceforge.net/DTD/sodipodi-0.dtd"
   xmlns:inkscape="http://www.inkscape.org/namespaces/inkscape"
   version="1.1"
   id="svg2"
   xml:space="preserve"
   width="382"
   height="150"
   viewBox="0 0 382 150"
   sodipodi:docname="LGG_PAN_High_Top_Mut_Genes_Uni_Model.svg"
   inkscape:version="0.92.5 (2060ec1f9f, 2020-04-08)"><metadata
     id="metadata8"><rdf:RDF><cc:Work
         rdf:about=""><dc:format>image/svg+xml</dc:format><dc:type
           rdf:resource="http://purl.org/dc/dcmitype/StillImage" /><dc:title></dc:title></cc:Work></rdf:RDF></metadata><defs
     id="defs6" /><sodipodi:namedview
     pagecolor="#ffffff"
     bordercolor="#666666"
     borderopacity="1"
     objecttolerance="10"
     gridtolerance="10"
     guidetolerance="10"
     inkscape:pageopacity="0"
     inkscape:pageshadow="2"
     inkscape:window-width="2486"
     inkscape:window-height="1376"
     id="namedview4"
     showgrid="false"
     inkscape:zoom="1"
     inkscape:cx="189.42712"
     inkscape:cy="72.866202"
     inkscape:window-x="74"
     inkscape:window-y="27"
     inkscape:window-maximized="1"
     inkscape:current-layer="g278" /><g
     id="g10"
     inkscape:groupmode="layer"
     inkscape:label="LGG_PAN_High_Top_Mut_Genes_Uni_Model"
     transform="matrix(1.3333333,0,0,-1.3333333,-2.5728787,317.1338)"><g
       id="g12" /><g
       id="g14"
       transform="translate(1.5,1.5)"><text
         transform="matrix(1,0,0,-1,2.31,227.02)"
         style="font-variant:normal;font-weight:normal;font-size:11px;font-family:Arial;-inkscape-font-specification:ArialMT;writing-mode:lr-tb;fill:#000000;fill-opacity:1;fill-rule:nonzero;stroke:none"
         id="text18"><tspan
           x="0 8.5579996 14.674 20.790001"
           y="0"
           sodipodi:role="line"
           id="tspan16">Gene</tspan></text>
</g><g
       id="g20"
       transform="translate(1.5,1.5)"><text
         transform="matrix(1,0,0,-1,2.31,215.55)"
         style="font-variant:normal;font-weight:normal;font-size:11px;font-family:Arial;-inkscape-font-specification:ArialMT;writing-mode:lr-tb;fill:#000000;fill-opacity:1;fill-rule:nonzero;stroke:none"
         id="text24"><tspan
           x="0 3.0580001 11 18.941999"
           y="0"
           sodipodi:role="line"
           id="tspan22">IDH1</tspan></text>
</g><g
       id="g26"
       transform="translate(1.5,1.5)"><text
         transform="matrix(1,0,0,-1,2.31,204.07)"
         style="font-variant:normal;font-weight:normal;font-size:11px;font-family:Arial;-inkscape-font-specification:ArialMT;writing-mode:lr-tb;fill:#000000;fill-opacity:1;fill-rule:nonzero;stroke:none"
         id="text30"><tspan
           x="0 6.7210002 14.058 20.174"
           y="0"
           sodipodi:role="line"
           id="tspan28">TP53</tspan></text>
</g><g
       id="g32"
       transform="translate(1.5,1.5)"><text
         transform="matrix(1,0,0,-1,2.31,192.6)"
         style="font-variant:normal;font-weight:normal;font-size:11px;font-family:Arial;-inkscape-font-specification:ArialMT;writing-mode:lr-tb;fill:#000000;fill-opacity:1;fill-rule:nonzero;stroke:none"
         id="text36"><tspan
           x="0 6.5229998 13.244 21.186001"
           y="0"
           sodipodi:role="line"
           id="tspan34">ATRX</tspan></text>
</g><g
       id="g38"
       transform="translate(1.5,1.5)"><text
         transform="matrix(1,0,0,-1,2.31,181.13)"
         style="font-variant:normal;font-weight:normal;font-size:11px;font-family:Arial;-inkscape-font-specification:ArialMT;writing-mode:lr-tb;fill:#000000;fill-opacity:1;fill-rule:nonzero;stroke:none"
         id="text42"><tspan
           x="0 7.3369999 10.395 17.732 23.848 31.790001"
           y="0"
           sodipodi:role="line"
           id="tspan40">PIK3CA</tspan></text>
</g><g
       id="g44"
       transform="translate(1.5,1.5)"><text
         transform="matrix(1,0,0,-1,2.31,169.65)"
         style="font-variant:normal;font-weight:normal;font-size:11px;font-family:Arial;-inkscape-font-specification:ArialMT;writing-mode:lr-tb;fill:#000000;fill-opacity:1;fill-rule:nonzero;stroke:none"
         id="text48"><tspan
           x="0 7.3369999 15.895 22.615999"
           y="0"
           sodipodi:role="line"
           id="tspan46">EGFR</tspan></text>
</g><g
       id="g50"
       transform="translate(1.5,1.5)"><text
         transform="matrix(1,0,0,-1,2.31,158.18)"
         style="font-variant:normal;font-weight:normal;font-size:11px;font-family:Arial;-inkscape-font-specification:ArialMT;writing-mode:lr-tb;fill:#000000;fill-opacity:1;fill-rule:nonzero;stroke:none"
         id="text54"><tspan
           x="0 7.9419999 14.663"
           y="0"
           sodipodi:role="line"
           id="tspan52">NF1</tspan></text>
</g><g
       id="g56"
       transform="translate(1.5,1.5)"><text
         transform="matrix(1,0,0,-1,2.31,146.71)"
         style="font-variant:normal;font-weight:normal;font-size:11px;font-family:Arial;-inkscape-font-specification:ArialMT;writing-mode:lr-tb;fill:#000000;fill-opacity:1;fill-rule:nonzero;stroke:none"
         id="text60"><tspan
           x="0 7.3369999 14.058 21.395"
           y="0"
           sodipodi:role="line"
           id="tspan58">PTEN</tspan></text>
</g><g
       id="g62"
       transform="translate(1.5,1.5)"><text
         transform="matrix(1,0,0,-1,48.42,227.02)"
         style="font-variant:normal;font-weight:normal;font-size:11px;font-family:Arial;-inkscape-font-specification:ArialMT;writing-mode:lr-tb;fill:#000000;fill-opacity:1;fill-rule:nonzero;stroke:none"
         id="text66"><tspan
           x="0 7.3369999 13.453 16.511"
           y="0"
           sodipodi:role="line"
           id="tspan64">Beta</tspan></text>
</g><g
       id="g68"
       transform="translate(1.5,1.5)"><text
         transform="matrix(1,0,0,-1,48.88,215.55)"
         style="font-variant:normal;font-weight:normal;font-size:11px;font-family:Arial;-inkscape-font-specification:ArialMT;writing-mode:lr-tb;fill:#000000;fill-opacity:1;fill-rule:nonzero;stroke:none"
         id="text72"><tspan
           x="0 6.4239998 12.54 15.598"
           y="0"
           sodipodi:role="line"
           id="tspan70">−2.4</tspan></text>
</g><g
       id="g74"
       transform="translate(1.5,1.5)"><text
         transform="matrix(1,0,0,-1,48.88,204.07)"
         style="font-variant:normal;font-weight:normal;font-size:11px;font-family:Arial;-inkscape-font-specification:ArialMT;writing-mode:lr-tb;fill:#000000;fill-opacity:1;fill-rule:nonzero;stroke:none"
         id="text78"><tspan
           x="0 6.4239998 12.54 15.598"
           y="0"
           sodipodi:role="line"
           id="tspan76">−1.4</tspan></text>
</g><g
       id="g80"
       transform="translate(1.5,1.5)"><text
         transform="matrix(1,0,0,-1,48.88,192.6)"
         style="font-variant:normal;font-weight:normal;font-size:11px;font-family:Arial;-inkscape-font-specification:ArialMT;writing-mode:lr-tb;fill:#000000;fill-opacity:1;fill-rule:nonzero;stroke:none"
         id="text84"><tspan
           x="0 6.4239998 12.54 15.598"
           y="0"
           sodipodi:role="line"
           id="tspan82">−1.6</tspan></text>
</g><g
       id="g86"
       transform="translate(1.5,1.5)"><text
         transform="matrix(1,0,0,-1,49.03,181.13)"
         style="font-variant:normal;font-weight:normal;font-size:11px;font-family:Arial;-inkscape-font-specification:ArialMT;writing-mode:lr-tb;fill:#000000;fill-opacity:1;fill-rule:nonzero;stroke:none"
         id="text90"><tspan
           x="0 6.1160002 9.1739998 15.29"
           y="0"
           sodipodi:role="line"
           id="tspan88">0.17</tspan></text>
</g><g
       id="g92"
       transform="translate(1.5,1.5)"><text
         transform="matrix(1,0,0,-1,49.03,169.65)"
         style="font-variant:normal;font-weight:normal;font-size:11px;font-family:Arial;-inkscape-font-specification:ArialMT;writing-mode:lr-tb;fill:#000000;fill-opacity:1;fill-rule:nonzero;stroke:none"
         id="text96"><tspan
           x="0 6.1160002 9.1739998 15.29"
           y="0"
           sodipodi:role="line"
           id="tspan94">0.75</tspan></text>
</g><g
       id="g98"
       transform="translate(1.5,1.5)"><text
         transform="matrix(1,0,0,-1,49.03,158.18)"
         style="font-variant:normal;font-weight:normal;font-size:11px;font-family:Arial;-inkscape-font-specification:ArialMT;writing-mode:lr-tb;fill:#000000;fill-opacity:1;fill-rule:nonzero;stroke:none"
         id="text102"><tspan
           x="0 6.1160002 9.1739998 15.29"
           y="0"
           sodipodi:role="line"
           id="tspan100">0.88</tspan></text>
</g><g
       id="g104"
       transform="translate(1.5,1.5)"><text
         transform="matrix(1,0,0,-1,52.09,146.71)"
         style="font-variant:normal;font-weight:normal;font-size:11px;font-family:Arial;-inkscape-font-specification:ArialMT;writing-mode:lr-tb;fill:#000000;fill-opacity:1;fill-rule:nonzero;stroke:none"
         id="text108"><tspan
           x="0 6.1160002 9.1739998"
           y="0"
           sodipodi:role="line"
           id="tspan106">1.4</tspan></text>
</g><g
       id="g110"
       transform="translate(1.5,1.5)"><text
         transform="matrix(1,0,0,-1,78.72,227.02)"
         style="font-variant:normal;font-weight:normal;font-size:11px;font-family:Arial;-inkscape-font-specification:ArialMT;writing-mode:lr-tb;fill:#000000;fill-opacity:1;fill-rule:nonzero;stroke:none"
         id="text114"><tspan
           x="0 7.3369999 13.761 19.877001 25.993 28.434999 34.550999 40.050999"
           y="0"
           sodipodi:role="line"
           id="tspan112">P−adjust</tspan></text>
</g><g
       id="g116"
       transform="translate(1.5,1.5)"><text
         transform="matrix(1,0,0,-1,80.25,215.55)"
         style="font-variant:normal;font-weight:normal;font-size:11px;font-family:Arial;-inkscape-font-specification:ArialMT;writing-mode:lr-tb;fill:#000000;fill-opacity:1;fill-rule:nonzero;stroke:none"
         id="text120"><tspan
           x="0 6.1160002 9.1739998 15.29 21.406 27.83 33.945999"
           y="0"
           sodipodi:role="line"
           id="tspan118">2.8e−07</tspan></text>
</g><g
       id="g122"
       transform="translate(1.5,1.5)"><text
         transform="matrix(1,0,0,-1,80.25,204.07)"
         style="font-variant:normal;font-weight:normal;font-size:11px;font-family:Arial;-inkscape-font-specification:ArialMT;writing-mode:lr-tb;fill:#000000;fill-opacity:1;fill-rule:nonzero;stroke:none"
         id="text126"><tspan
           x="0 6.1160002 9.1739998 15.29 21.406 27.83 33.945999"
           y="0"
           sodipodi:role="line"
           id="tspan124">3.5e−05</tspan></text>
</g><g
       id="g128"
       transform="translate(1.5,1.5)"><text
         transform="matrix(1,0,0,-1,80.4,192.6)"
         style="font-variant:normal;font-weight:normal;font-size:11px;font-family:Arial;-inkscape-font-specification:ArialMT;writing-mode:lr-tb;fill:#000000;fill-opacity:1;fill-rule:nonzero;stroke:none"
         id="text132"><tspan
           x="0 6.1160002 9.1739998 15.29 21.406 27.521999 33.638"
           y="0"
           sodipodi:role="line"
           id="tspan130">0.00026</tspan></text>
</g><g
       id="g134"
       transform="translate(1.5,1.5)"><text
         transform="matrix(1,0,0,-1,92.63,181.13)"
         style="font-variant:normal;font-weight:normal;font-size:11px;font-family:Arial;-inkscape-font-specification:ArialMT;writing-mode:lr-tb;fill:#000000;fill-opacity:1;fill-rule:nonzero;stroke:none"
         id="text138"><tspan
           x="0 6.1160002 9.1739998"
           y="0"
           sodipodi:role="line"
           id="tspan136">0.7</tspan></text>
</g><g
       id="g140"
       transform="translate(1.5,1.5)"><text
         transform="matrix(1,0,0,-1,80.4,169.65)"
         style="font-variant:normal;font-weight:normal;font-size:11px;font-family:Arial;-inkscape-font-specification:ArialMT;writing-mode:lr-tb;fill:#000000;fill-opacity:1;fill-rule:nonzero;stroke:none"
         id="text144"><tspan
           x="0 6.1160002 9.1739998 15.29 21.406 27.521999 33.638"
           y="0"
           sodipodi:role="line"
           id="tspan142">0.00038</tspan></text>
</g><g
       id="g146"
       transform="translate(1.5,1.5)"><text
         transform="matrix(1,0,0,-1,80.4,158.18)"
         style="font-variant:normal;font-weight:normal;font-size:11px;font-family:Arial;-inkscape-font-specification:ArialMT;writing-mode:lr-tb;fill:#000000;fill-opacity:1;fill-rule:nonzero;stroke:none"
         id="text150"><tspan
           x="0 6.1160002 9.1739998 15.29 21.406 27.521999 33.638"
           y="0"
           sodipodi:role="line"
           id="tspan148">0.00064</tspan></text>
</g><g
       id="g152"
       transform="translate(1.5,1.5)"><text
         transform="matrix(1,0,0,-1,80.4,146.71)"
         style="font-variant:normal;font-weight:normal;font-size:11px;font-family:Arial;-inkscape-font-specification:ArialMT;writing-mode:lr-tb;fill:#000000;fill-opacity:1;fill-rule:nonzero;stroke:none"
         id="text156"><tspan
           x="0 6.1160002 9.1739998 15.29 21.406 27.521999 33.638"
           y="0"
           sodipodi:role="line"
           id="tspan154">0.00057</tspan></text>
</g><g
       id="g158"
       transform="translate(1.5,1.5)"><text
         transform="matrix(1,0,0,-1,209.95,227.02)"
         style="font-variant:normal;font-weight:normal;font-size:11px;font-family:Arial;-inkscape-font-specification:ArialMT;writing-mode:lr-tb;fill:#000000;fill-opacity:1;fill-rule:nonzero;stroke:none"
         id="text162"><tspan
           x="0 7.9419999 15.884 19.547001 25.663 31.778999 41.557999 49.5 52.557999"
           y="0"
           sodipodi:role="line"
           id="tspan160">HR(95%CI)</tspan></text>
</g><g
       id="g164"
       transform="translate(1.5,1.5)"><text
         transform="matrix(1,0,0,-1,194.49,215.55)"
         style="font-variant:normal;font-weight:normal;font-size:11px;font-family:Arial;-inkscape-font-specification:ArialMT;writing-mode:lr-tb;fill:#000000;fill-opacity:1;fill-rule:nonzero;stroke:none"
         id="text168"><tspan
           x="0 6.1160002 9.1739998 15.29 21.406 24.464001 28.127001 34.243 37.300999 43.417 49.533001 55.648998 62.073002 68.189003 71.247002 77.362999 83.478996"
           y="0"
           sodipodi:role="line"
           id="tspan166">0.09 (0.038−0.21)</tspan></text>
</g><g
       id="g170"
       transform="translate(1.5,1.5)"><text
         transform="matrix(1,0,0,-1,197.55,204.07)"
         style="font-variant:normal;font-weight:normal;font-size:11px;font-family:Arial;-inkscape-font-specification:ArialMT;writing-mode:lr-tb;fill:#000000;fill-opacity:1;fill-rule:nonzero;stroke:none"
         id="text174"><tspan
           x="0 6.1160002 9.1739998 15.29 21.406 24.464001 28.127001 34.243 37.300999 43.417 49.533001 55.957001 62.073002 65.130997 71.247002 77.362999"
           y="0"
           sodipodi:role="line"
           id="tspan172">0.25 (0.14−0.47)</tspan></text>
</g><g
       id="g176"
       transform="translate(1.5,1.5)"><text
         transform="matrix(1,0,0,-1,194.49,192.6)"
         style="font-variant:normal;font-weight:normal;font-size:11px;font-family:Arial;-inkscape-font-specification:ArialMT;writing-mode:lr-tb;fill:#000000;fill-opacity:1;fill-rule:nonzero;stroke:none"
         id="text180"><tspan
           x="0 6.1160002 9.1739998 15.29 21.406 24.464001 28.127001 34.243 37.300999 43.417 49.533001 55.648998 62.073002 68.189003 71.247002 77.362999 83.478996"
           y="0"
           sodipodi:role="line"
           id="tspan178">0.19 (0.085−0.45)</tspan></text>
</g><g
       id="g182"
       transform="translate(1.5,1.5)"><text
         transform="matrix(1,0,0,-1,206.72,181.13)"
         style="font-variant:normal;font-weight:normal;font-size:11px;font-family:Arial;-inkscape-font-specification:ArialMT;writing-mode:lr-tb;fill:#000000;fill-opacity:1;fill-rule:nonzero;stroke:none"
         id="text186"><tspan
           x="0 6.1160002 9.1739998 15.29 18.348 22.011 28.127001 31.184999 37.300999 43.724998 49.841 52.898998 59.014999"
           y="0"
           sodipodi:role="line"
           id="tspan184">1.2 (0.5−2.8)</tspan></text>
</g><g
       id="g188"
       transform="translate(1.5,1.5)"><text
         transform="matrix(1,0,0,-1,206.72,169.65)"
         style="font-variant:normal;font-weight:normal;font-size:11px;font-family:Arial;-inkscape-font-specification:ArialMT;writing-mode:lr-tb;fill:#000000;fill-opacity:1;fill-rule:nonzero;stroke:none"
         id="text192"><tspan
           x="0 6.1160002 9.1739998 15.29 18.348 22.011 28.127001 31.184999 37.300999 43.724998 49.841 52.898998 59.014999"
           y="0"
           sodipodi:role="line"
           id="tspan190">2.1 (1.4−3.1)</tspan></text>
</g><g
       id="g194"
       transform="translate(1.5,1.5)"><text
         transform="matrix(1,0,0,-1,211.31,158.18)"
         style="font-variant:normal;font-weight:normal;font-size:11px;font-family:Arial;-inkscape-font-specification:ArialMT;writing-mode:lr-tb;fill:#000000;fill-opacity:1;fill-rule:nonzero;stroke:none"
         id="text198"><tspan
           x="0 6.1160002 9.1739998 15.29 18.348 22.011 28.127001 31.184999 37.300999 43.724998 49.841"
           y="0"
           sodipodi:role="line"
           id="tspan196">2.4 (1.5−4)</tspan></text>
</g><g
       id="g200"
       transform="translate(1.5,1.5)"><text
         transform="matrix(1,0,0,-1,206.72,146.71)"
         style="font-variant:normal;font-weight:normal;font-size:11px;font-family:Arial;-inkscape-font-specification:ArialMT;writing-mode:lr-tb;fill:#000000;fill-opacity:1;fill-rule:nonzero;stroke:none"
         id="text204"><tspan
           x="0 6.1160002 9.1739998 15.29 18.348 22.011 28.127001 31.184999 37.300999 43.724998 49.841 52.898998 59.014999"
           y="0"
           sodipodi:role="line"
           id="tspan202">4.2 (1.9−9.2)</tspan></text>
</g><g
       id="g206"
       transform="translate(1.5,1.5)"><path
         d="m 2.31,225.22 h 39"
         style="fill:none;stroke:#000000;stroke-width:0.75;stroke-linecap:round;stroke-linejoin:round;stroke-miterlimit:10;stroke-dasharray:2.25, 3.75;stroke-dashoffset:0;stroke-opacity:1"
         id="path208"
         inkscape:connector-curvature="0" /></g><g
       id="g210"
       transform="translate(1.5,1.5)"><path
         d="m 41.31,225.22 h 5.67"
         style="fill:none;stroke:#000000;stroke-width:0.75;stroke-linecap:round;stroke-linejoin:round;stroke-miterlimit:10;stroke-dasharray:2.25, 3.75;stroke-dashoffset:0;stroke-opacity:1"
         id="path212"
         inkscape:connector-curvature="0" /></g><g
       id="g214"
       transform="translate(1.5,1.5)"><path
         d="m 46.98,225.22 h 25.5"
         style="fill:none;stroke:#000000;stroke-width:0.75;stroke-linecap:round;stroke-linejoin:round;stroke-miterlimit:10;stroke-dasharray:2.25, 3.75;stroke-dashoffset:0;stroke-opacity:1"
         id="path216"
         inkscape:connector-curvature="0" /></g><g
       id="g218"
       transform="translate(1.5,1.5)"><path
         d="m 72.48,225.22 h 5.67"
         style="fill:none;stroke:#000000;stroke-width:0.75;stroke-linecap:round;stroke-linejoin:round;stroke-miterlimit:10;stroke-dasharray:2.25, 3.75;stroke-dashoffset:0;stroke-opacity:1"
         id="path220"
         inkscape:connector-curvature="0" /></g><g
       id="g222"
       transform="translate(1.5,1.5)"><path
         d="M 78.15,225.22 H 122.4"
         style="fill:none;stroke:#000000;stroke-width:0.75;stroke-linecap:round;stroke-linejoin:round;stroke-miterlimit:10;stroke-dasharray:2.25, 3.75;stroke-dashoffset:0;stroke-opacity:1"
         id="path224"
         inkscape:connector-curvature="0" /></g><g
       id="g226"
       transform="translate(1.5,1.5)"><path
         d="m 122.4,225.22 h 5.67"
         style="fill:none;stroke:#000000;stroke-width:0.75;stroke-linecap:round;stroke-linejoin:round;stroke-miterlimit:10;stroke-dasharray:2.25, 3.75;stroke-dashoffset:0;stroke-opacity:1"
         id="path228"
         inkscape:connector-curvature="0" /></g><g
       id="g230"
       transform="translate(1.5,1.5)"><path
         d="m 128.07,225.22 h 56.7"
         style="fill:none;stroke:#000000;stroke-width:0.75;stroke-linecap:round;stroke-linejoin:round;stroke-miterlimit:10;stroke-dasharray:2.25, 3.75;stroke-dashoffset:0;stroke-opacity:1"
         id="path232"
         inkscape:connector-curvature="0" /></g><g
       id="g234"
       transform="translate(1.5,1.5)"><path
         d="m 184.77,225.22 h 5.67"
         style="fill:none;stroke:#000000;stroke-width:0.75;stroke-linecap:round;stroke-linejoin:round;stroke-miterlimit:10;stroke-dasharray:2.25, 3.75;stroke-dashoffset:0;stroke-opacity:1"
         id="path236"
         inkscape:connector-curvature="0" /></g><g
       id="g238"
       transform="translate(1.5,1.5)"><path
         d="m 190.44,225.22 h 95.25"
         style="fill:none;stroke:#000000;stroke-width:0.75;stroke-linecap:round;stroke-linejoin:round;stroke-miterlimit:10;stroke-dasharray:2.25, 3.75;stroke-dashoffset:0;stroke-opacity:1"
         id="path240"
         inkscape:connector-curvature="0" /></g><g
       id="g242"
       transform="translate(1.5,1.5)"><path
         d="m 2.31,190.8 h 39"
         style="fill:none;stroke:#000000;stroke-width:0.75;stroke-linecap:round;stroke-linejoin:round;stroke-miterlimit:10;stroke-dasharray:none;stroke-opacity:1"
         id="path244"
         inkscape:connector-curvature="0" /></g><g
       id="g246"
       transform="translate(1.5,1.5)"><path
         d="m 41.31,190.8 h 5.67"
         style="fill:none;stroke:#000000;stroke-width:0.75;stroke-linecap:round;stroke-linejoin:round;stroke-miterlimit:10;stroke-dasharray:none;stroke-opacity:1"
         id="path248"
         inkscape:connector-curvature="0" /></g><g
       id="g250"
       transform="translate(1.5,1.5)"><path
         d="m 46.98,190.8 h 25.5"
         style="fill:none;stroke:#000000;stroke-width:0.75;stroke-linecap:round;stroke-linejoin:round;stroke-miterlimit:10;stroke-dasharray:none;stroke-opacity:1"
         id="path252"
         inkscape:connector-curvature="0" /></g><g
       id="g254"
       transform="translate(1.5,1.5)"><path
         d="m 72.48,190.8 h 5.67"
         style="fill:none;stroke:#000000;stroke-width:0.75;stroke-linecap:round;stroke-linejoin:round;stroke-miterlimit:10;stroke-dasharray:none;stroke-opacity:1"
         id="path256"
         inkscape:connector-curvature="0" /></g><g
       id="g258"
       transform="translate(1.5,1.5)"><path
         d="M 78.15,190.8 H 122.4"
         style="fill:none;stroke:#000000;stroke-width:0.75;stroke-linecap:round;stroke-linejoin:round;stroke-miterlimit:10;stroke-dasharray:none;stroke-opacity:1"
         id="path260"
         inkscape:connector-curvature="0" /></g><g
       id="g262"
       transform="translate(1.5,1.5)"><path
         d="m 122.4,190.8 h 5.67"
         style="fill:none;stroke:#000000;stroke-width:0.75;stroke-linecap:round;stroke-linejoin:round;stroke-miterlimit:10;stroke-dasharray:none;stroke-opacity:1"
         id="path264"
         inkscape:connector-curvature="0" /></g><g
       id="g266"
       transform="translate(1.5,1.5)"><path
         d="m 128.07,190.8 h 56.7"
         style="fill:none;stroke:#000000;stroke-width:0.75;stroke-linecap:round;stroke-linejoin:round;stroke-miterlimit:10;stroke-dasharray:none;stroke-opacity:1"
         id="path268"
         inkscape:connector-curvature="0" /></g><g
       id="g270"
       transform="translate(1.5,1.5)"><path
         d="m 184.77,190.8 h 5.67"
         style="fill:none;stroke:#000000;stroke-width:0.75;stroke-linecap:round;stroke-linejoin:round;stroke-miterlimit:10;stroke-dasharray:none;stroke-opacity:1"
         id="path272"
         inkscape:connector-curvature="0" /></g><g
       id="g274"
       transform="translate(1.5,1.5)"><path
         d="m 190.44,190.8 h 95.25"
         style="fill:none;stroke:#000000;stroke-width:0.75;stroke-linecap:round;stroke-linejoin:round;stroke-miterlimit:10;stroke-dasharray:none;stroke-opacity:1"
         id="path276"
         inkscape:connector-curvature="0" /></g><g
       id="g278"
       transform="translate(1.5,1.5)"><path
         d="m 167.7,144.91 v 80.31"
         style="fill:none;stroke:#d3d3d3;stroke-width:0.75;stroke-linecap:round;stroke-linejoin:round;stroke-miterlimit:10;stroke-dasharray:none;stroke-opacity:1"
         id="path280"
         inkscape:connector-curvature="0" /><path
         d="m 129.25,144.91 h 55.52"
         style="fill:none;stroke:#000000;stroke-width:0.75;stroke-linecap:round;stroke-linejoin:round;stroke-miterlimit:10;stroke-dasharray:none;stroke-opacity:1"
         id="path282"
         inkscape:connector-curvature="0" /><path
         d="m 129.25,144.91 v -5.4"
         style="fill:none;stroke:#000000;stroke-width:0.75;stroke-linecap:round;stroke-linejoin:round;stroke-miterlimit:10;stroke-dasharray:none;stroke-opacity:1"
         id="path284"
         inkscape:connector-curvature="0" /><path
         d="m 150.63,144.91 v -5.4"
         style="fill:none;stroke:#000000;stroke-width:0.75;stroke-linecap:round;stroke-linejoin:round;stroke-miterlimit:10;stroke-dasharray:none;stroke-opacity:1"
         id="path294"
         inkscape:connector-curvature="0" /><path
         d="m 167.7,144.91 v -5.4"
         style="fill:none;stroke:#000000;stroke-width:0.75;stroke-linecap:round;stroke-linejoin:round;stroke-miterlimit:10;stroke-dasharray:none;stroke-opacity:1"
         id="path302"
         inkscape:connector-curvature="0" /><path
         d="m 184.77,144.91 v -5.4"
         style="fill:none;stroke:#000000;stroke-width:0.75;stroke-linecap:round;stroke-linejoin:round;stroke-miterlimit:10;stroke-dasharray:none;stroke-opacity:1"
         id="path306"
         inkscape:connector-curvature="0" /><text
         transform="matrix(1,0,0,-1,117.99,125.49)"
         style="font-variant:normal;font-weight:normal;font-size:9px;font-family:Arial;-inkscape-font-specification:ArialMT;writing-mode:lr-tb;fill:#000000;fill-opacity:1;fill-rule:nonzero;stroke:none"
         id="text310"><tspan
           sodipodi:role="line"
           id="tspan308"
           style="font-style:normal;font-variant:normal;font-weight:normal;font-stretch:normal;font-size:11px;font-family:Arial;-inkscape-font-specification:'Arial, Normal';font-variant-ligatures:normal;font-variant-caps:normal;font-variant-numeric:normal;font-feature-settings:normal;text-align:start;writing-mode:lr-tb;text-anchor:start"
           x="0"
           y="0">0.04</tspan></text>
<text
         transform="matrix(1,0,0,-1,143.66,125.49)"
         style="font-variant:normal;font-weight:normal;font-size:9px;font-family:Arial;-inkscape-font-specification:ArialMT;writing-mode:lr-tb;fill:#000000;fill-opacity:1;fill-rule:nonzero;stroke:none"
         id="text314"><tspan
           sodipodi:role="line"
           id="tspan312"
           x="0"
           y="0"
           style="font-style:normal;font-variant:normal;font-weight:normal;font-stretch:normal;font-size:11px;font-family:Arial;-inkscape-font-specification:'Arial, Normal';font-variant-ligatures:normal;font-variant-caps:normal;font-variant-numeric:normal;font-feature-settings:normal;text-align:start;writing-mode:lr-tb;text-anchor:start">0.35</tspan></text>
<text
         transform="matrix(1,0,0,-1,176.01,125.49)"
         style="font-variant:normal;font-weight:normal;font-size:9px;font-family:Arial;-inkscape-font-specification:ArialMT;writing-mode:lr-tb;fill:#000000;fill-opacity:1;fill-rule:nonzero;stroke:none"
         id="text318"><tspan
           sodipodi:role="line"
           id="tspan316"
           x="0"
           y="0"
           style="font-style:normal;font-variant:normal;font-weight:normal;font-stretch:normal;font-size:11px;font-family:Arial;-inkscape-font-specification:'Arial, Normal';font-variant-ligatures:normal;font-variant-caps:normal;font-variant-numeric:normal;font-feature-settings:normal;text-align:start;writing-mode:lr-tb;text-anchor:start">4.0</tspan></text>
</g><g
       id="g320" /><g
       id="g322"
       transform="translate(1.5,1.5)"><path
         d="m 128.07,219.48 h 19.82"
         style="fill:none;stroke:#0000ff;stroke-width:0.75;stroke-linecap:round;stroke-linejoin:round;stroke-miterlimit:10;stroke-dasharray:none;stroke-opacity:1"
         id="path324"
         inkscape:connector-curvature="0" /><path
         d="m 136.62,219.48 c 0,0.79 0.65,1.44 1.44,1.44 0.78,0 1.43,-0.65 1.43,-1.44 0,-0.79 -0.65,-1.43 -1.43,-1.43 -0.79,0 -1.44,0.64 -1.44,1.43"
         style="fill:#0000ff;fill-opacity:1;fill-rule:nonzero;stroke:#0000ff;stroke-width:0.75;stroke-linecap:round;stroke-linejoin:round;stroke-miterlimit:10;stroke-dasharray:none;stroke-opacity:1"
         id="path326"
         inkscape:connector-curvature="0" /></g><g
       id="g328"
       transform="translate(1.5,1.5)"><path
         d="m 139.35,208.01 h 19.82"
         style="fill:none;stroke:#0000ff;stroke-width:0.75;stroke-linecap:round;stroke-linejoin:round;stroke-miterlimit:10;stroke-dasharray:none;stroke-opacity:1"
         id="path330"
         inkscape:connector-curvature="0" /><path
         d="m 146.45,208.01 c 0,0.79 0.65,1.43 1.44,1.43 0.78,0 1.43,-0.64 1.43,-1.43 0,-0.79 -0.65,-1.43 -1.43,-1.43 -0.79,0 -1.44,0.64 -1.44,1.43"
         style="fill:#0000ff;fill-opacity:1;fill-rule:nonzero;stroke:#0000ff;stroke-width:0.75;stroke-linecap:round;stroke-linejoin:round;stroke-miterlimit:10;stroke-dasharray:none;stroke-opacity:1"
         id="path332"
         inkscape:connector-curvature="0" /></g><g
       id="g334"
       transform="translate(1.5,1.5)"><path
         d="m 136.61,196.54 h 19.81"
         style="fill:none;stroke:#0000ff;stroke-width:0.75;stroke-linecap:round;stroke-linejoin:round;stroke-miterlimit:10;stroke-dasharray:none;stroke-opacity:1"
         id="path336"
         inkscape:connector-curvature="0" /><path
         d="m 146.45,196.54 c 0,0.79 0.65,1.43 1.44,1.43 0.78,0 1.43,-0.64 1.43,-1.43 0,-0.79 -0.65,-1.44 -1.43,-1.44 -0.79,0 -1.44,0.65 -1.44,1.44"
         style="fill:#0000ff;fill-opacity:1;fill-rule:nonzero;stroke:#0000ff;stroke-width:0.75;stroke-linecap:round;stroke-linejoin:round;stroke-miterlimit:10;stroke-dasharray:none;stroke-opacity:1"
         id="path338"
         inkscape:connector-curvature="0" /></g><g
       id="g340"
       transform="translate(1.5,1.5)"><path
         d="m 159.17,185.06 h 22.05"
         style="fill:none;stroke:#ff0000;stroke-width:0.75;stroke-linecap:round;stroke-linejoin:round;stroke-miterlimit:10;stroke-dasharray:none;stroke-opacity:1"
         id="path342"
         inkscape:connector-curvature="0" /><path
         d="m 166.27,185.06 c 0,0.79 0.64,1.44 1.43,1.44 0.79,0 1.43,-0.65 1.43,-1.44 0,-0.79 -0.64,-1.43 -1.43,-1.43 -0.79,0 -1.43,0.64 -1.43,1.43"
         style="fill:#ff0000;fill-opacity:1;fill-rule:nonzero;stroke:#ff0000;stroke-width:0.75;stroke-linecap:round;stroke-linejoin:round;stroke-miterlimit:10;stroke-dasharray:none;stroke-opacity:1"
         id="path344"
         inkscape:connector-curvature="0" /></g><g
       id="g346"
       transform="translate(1.5,1.5)"><path
         d="m 167.7,173.59 h 13.52"
         style="fill:none;stroke:#ff0000;stroke-width:0.75;stroke-linecap:round;stroke-linejoin:round;stroke-miterlimit:10;stroke-dasharray:none;stroke-opacity:1"
         id="path348"
         inkscape:connector-curvature="0" /><path
         d="m 174.8,173.59 c 0,0.79 0.64,1.43 1.43,1.43 0.79,0 1.44,-0.64 1.44,-1.43 0,-0.79 -0.65,-1.43 -1.44,-1.43 -0.79,0 -1.43,0.64 -1.43,1.43"
         style="fill:#ff0000;fill-opacity:1;fill-rule:nonzero;stroke:#ff0000;stroke-width:0.75;stroke-linecap:round;stroke-linejoin:round;stroke-miterlimit:10;stroke-dasharray:none;stroke-opacity:1"
         id="path350"
         inkscape:connector-curvature="0" /></g><g
       id="g352"
       transform="translate(1.5,1.5)"><path
         d="m 176.23,162.12 h 8.54"
         style="fill:none;stroke:#ff0000;stroke-width:0.75;stroke-linecap:round;stroke-linejoin:round;stroke-miterlimit:10;stroke-dasharray:none;stroke-opacity:1"
         id="path354"
         inkscape:connector-curvature="0" /><path
         d="m 174.8,162.12 c 0,0.79 0.64,1.43 1.43,1.43 0.79,0 1.44,-0.64 1.44,-1.43 0,-0.79 -0.65,-1.44 -1.44,-1.44 -0.79,0 -1.43,0.65 -1.43,1.44"
         style="fill:#ff0000;fill-opacity:1;fill-rule:nonzero;stroke:#ff0000;stroke-width:0.75;stroke-linecap:round;stroke-linejoin:round;stroke-miterlimit:10;stroke-dasharray:none;stroke-opacity:1"
         id="path356"
         inkscape:connector-curvature="0" /></g><g
       id="g358"
       transform="translate(1.5,1.5)"><path
         d="m 176.23,150.64 h 8.54"
         style="fill:none;stroke:#ff0000;stroke-width:0.75;stroke-linecap:round;stroke-linejoin:round;stroke-miterlimit:10;stroke-dasharray:none;stroke-opacity:1"
         id="path360"
         inkscape:connector-curvature="0" /><path
         d="m 182.78,151.79 1.99,-1.15 -1.99,-1.14"
         style="fill:none;stroke:#ff0000;stroke-width:0.75;stroke-linecap:round;stroke-linejoin:round;stroke-miterlimit:10;stroke-dasharray:none;stroke-opacity:1"
         id="path362"
         inkscape:connector-curvature="0" /><path
         d="m 183.33,150.64 c 0,0.79 0.65,1.44 1.44,1.44 0.78,0 1.43,-0.65 1.43,-1.44 0,-0.79 -0.65,-1.43 -1.43,-1.43 -0.79,0 -1.44,0.64 -1.44,1.43"
         style="fill:#ff0000;fill-opacity:1;fill-rule:nonzero;stroke:#ff0000;stroke-width:0.75;stroke-linecap:round;stroke-linejoin:round;stroke-miterlimit:10;stroke-dasharray:none;stroke-opacity:1"
         id="path364"
         inkscape:connector-curvature="0" /></g><g
       id="g366" /><g
       id="g368" /><g
       id="g370" /><g
       id="g372" /></g></svg>