<?xml version="1.0" encoding="UTF-8" standalone="no"?>
<!-- Created with Inkscape (http://www.inkscape.org/) -->

<svg
   xmlns:dc="http://purl.org/dc/elements/1.1/"
   xmlns:cc="http://creativecommons.org/ns#"
   xmlns:rdf="http://www.w3.org/1999/02/22-rdf-syntax-ns#"
   xmlns:svg="http://www.w3.org/2000/svg"
   xmlns="http://www.w3.org/2000/svg"
   xmlns:sodipodi="http://sodipodi.sourceforge.net/DTD/sodipodi-0.dtd"
   xmlns:inkscape="http://www.inkscape.org/namespaces/inkscape"
   version="1.1"
   id="svg2"
   xml:space="preserve"
   width="485"
   height="350"
   viewBox="0 0 485 350"
   sodipodi:docname="LGG_MAF_ChiSq_plot.svg"
   inkscape:version="0.92.5 (2060ec1f9f, 2020-04-08)"><metadata
     id="metadata8"><rdf:RDF><cc:Work
         rdf:about=""><dc:format>image/svg+xml</dc:format><dc:type
           rdf:resource="http://purl.org/dc/dcmitype/StillImage" /><dc:title></dc:title></cc:Work></rdf:RDF></metadata><defs
     id="defs6"><clipPath
       clipPathUnits="userSpaceOnUse"
       id="clipPath62"><path
         d="M 53.66,42.44 H 374.4 V 257.93 H 53.66 Z"
         id="path60"
         inkscape:connector-curvature="0" /></clipPath></defs><sodipodi:namedview
     pagecolor="#ffffff"
     bordercolor="#666666"
     borderopacity="1"
     objecttolerance="10"
     gridtolerance="10"
     guidetolerance="10"
     inkscape:pageopacity="0"
     inkscape:pageshadow="2"
     inkscape:window-width="2486"
     inkscape:window-height="1376"
     id="namedview4"
     showgrid="false"
     inkscape:zoom="1"
     inkscape:cx="268.97107"
     inkscape:cy="172.80659"
     inkscape:window-x="74"
     inkscape:window-y="27"
     inkscape:window-maximized="1"
     inkscape:current-layer="g10" /><g
     id="g10"
     inkscape:groupmode="layer"
     inkscape:label="LGG_MAF_ChiSq_plot"
     transform="matrix(1.3333333,0,0,-1.3333333,-19.028932,369.19341)"><g
       id="g16" /><g
       id="g18" /><g
       id="g20" /><g
       id="g22" /><g
       id="g24" /><g
       id="g26" /><g
       id="g28" /><g
       id="g30" /><g
       id="g32" /><g
       id="g34" /><g
       id="g36" /><g
       id="g38" /><g
       id="g40" /><g
       id="g42" /><g
       id="g44" /><g
       id="g46" /><g
       id="g48" /><g
       id="g54" /><g
       id="g56"
       transform="translate(1.5)"><g
         id="g58"
         clip-path="url(#clipPath62)"><path
           d="M 53.66,42.44 H 374.4 V 257.93 H 53.66 Z"
           style="fill:#ffffff;fill-opacity:1;fill-rule:nonzero;stroke:none"
           id="path64"
           inkscape:connector-curvature="0" /><path
           d="m 68.24,230.73 0.57,3.23 0.57,2.95 0.57,2.67 0.57,2.23 0.58,1.93 0.57,1.62 0.57,1.28 0.57,0.82 0.57,0.5 0.57,0.18 0.57,-0.17 0.57,-0.62 0.57,-0.92 0.57,-1.22 0.57,-1.55 0.57,-1.93 0.57,-2.19 0.57,-2.44 0.57,-2.71 0.57,-3 0.57,-3.2 0.58,-3.37 0.57,-3.56 0.57,-3.74 0.57,-3.85 0.57,-3.96 0.57,-4.05 0.57,-4.12 0.57,-4.15 0.57,-4.18 0.57,-4.19 0.57,-4.16 0.57,-4.13 0.57,-4.08 0.57,-4.02 0.57,-3.92 0.57,-3.84 0.58,-3.75 0.57,-3.63 0.57,-3.5 0.57,-3.38 0.57,-3.27 0.57,-3.12 0.57,-2.97 0.57,-2.85 0.57,-2.73 0.57,-2.57 0.57,-2.44 0.57,-2.32 0.57,-2.21 0.57,-2.06 0.57,-1.95 0.57,-1.85 0.57,-1.76 0.58,-1.63 0.57,-1.55 0.57,-1.47 0.57,-1.4 0.57,-1.31 0.57,-1.24 0.57,-1.19 0.57,-1.13 0.57,-1.07 0.57,-1.03 0.57,-0.99 0.57,-0.96 0.57,-0.91 0.57,-0.88 0.57,-0.86 0.57,-0.83 0.58,-0.81 0.57,-0.79 0.57,-0.77 0.57,-0.75 0.57,-0.73 0.57,-0.72 0.57,-0.71 0.57,-0.7 0.57,-0.67 0.57,-0.67 0.57,-0.66 0.57,-0.64 0.57,-0.64 0.57,-0.62 0.57,-0.61 0.57,-0.61 0.57,-0.59 0.58,-0.59 0.57,-0.57 0.57,-0.57 0.57,-0.57 0.57,-0.55 0.57,-0.56 0.57,-0.54 0.57,-0.55 0.57,-0.54 0.57,-0.54 0.57,-0.54 0.57,-0.53 0.57,-0.54 0.57,-0.54 0.57,-0.55 0.57,-0.55 0.58,-0.55 0.57,-0.55 0.57,-0.56 0.57,-0.57 0.57,-0.57 0.57,-0.58 0.57,-0.58 0.57,-0.59 0.57,-0.59 0.57,-0.6 0.57,-0.6 0.57,-0.61 0.57,-0.61 0.57,-0.61 0.57,-0.61 0.57,-0.61 0.57,-0.6 0.58,-0.61 0.57,-0.59 0.57,-0.59 0.57,-0.58 0.57,-0.57 0.57,-0.56 0.57,-0.54 0.57,-0.53 0.57,-0.51 0.57,-0.49 0.57,-0.46 0.57,-0.45 0.57,-0.42 0.57,-0.39 0.57,-0.36 0.57,-0.34 0.57,-0.31 0.58,-0.27 0.57,-0.23 0.57,-0.21 0.57,-0.17 0.57,-0.13 0.57,-0.09 0.57,-0.06 0.57,-0.03 0.57,0.02 0.57,0.06 0.57,0.09 0.57,0.12 0.57,0.17 0.57,0.21 0.57,0.23 0.57,0.27 0.58,0.32 0.57,0.34 0.57,0.37 0.57,0.4 0.57,0.44 0.57,0.46 0.57,0.48 0.57,0.51 0.57,0.53 0.57,0.55 0.57,0.56 0.57,0.59 0.57,0.59 0.57,0.61 0.57,0.61 0.57,0.62 0.57,0.62 0.58,0.63 0.57,0.62 0.57,0.62 0.57,0.61 0.57,0.6 0.57,0.59 0.57,0.58 0.57,0.56 0.57,0.54 0.57,0.52 0.57,0.5 0.57,0.47 0.57,0.45 0.57,0.42 0.57,0.39 0.57,0.36 0.58,0.32 0.57,0.3 0.57,0.26 0.57,0.21 0.57,0.19 0.57,0.15 0.57,0.11 0.57,0.06 0.57,0.04 h 0.57 l 0.57,-0.05 0.57,-0.09 0.57,-0.12 0.57,-0.15 0.57,-0.2 0.57,-0.23 0.57,-0.27 0.58,-0.29 0.57,-0.34 0.57,-0.36 0.57,-0.39 0.57,-0.42 0.57,-0.44 0.57,-0.47 0.57,-0.49 0.57,-0.51 0.57,-0.53 0.57,-0.54 0.57,-0.55 0.57,-0.57 0.57,-0.57 0.57,-0.57 0.57,-0.58 0.58,-0.58 0.57,-0.57 0.57,-0.57 0.57,-0.56 0.57,-0.55 0.57,-0.53 0.57,-0.51 0.57,-0.5 0.57,-0.48 0.57,-0.45 0.57,-0.43 0.57,-0.41 0.57,-0.37 0.57,-0.34 0.57,-0.31 0.57,-0.29 0.57,-0.25 0.58,-0.2 0.57,-0.18 0.57,-0.14 0.57,-0.11 0.57,-0.07 0.57,-0.04 h 0.57 l 0.57,0.03 0.57,0.06 0.57,0.1 0.57,0.11 0.57,0.15 0.57,0.18 0.57,0.2 0.57,0.22 0.57,0.24 0.58,0.26 0.57,0.27 0.57,0.28 0.57,0.29 0.57,0.3 0.57,0.29 0.57,0.3 0.57,0.3 0.57,0.28 0.57,0.28 0.57,0.27 0.57,0.26 0.57,0.23 0.57,0.22 0.57,0.2 0.57,0.17 0.57,0.14 0.58,0.12 0.57,0.1 0.57,0.06 0.57,0.03 h 0.57 l 0.57,-0.03 0.57,-0.06 0.57,-0.1 0.57,-0.13 0.57,-0.15 0.57,-0.19 0.57,-0.22 0.57,-0.25 0.57,-0.27 0.57,-0.3 0.57,-0.33 0.58,-0.34 0.57,-0.36 0.57,-0.39 0.57,-0.4 0.57,-0.42 0.57,-0.42 0.57,-0.44 0.57,-0.45 0.57,-0.45 0.57,-0.45 0.57,-0.46 0.57,-0.45 0.57,-0.46 0.57,-0.45 0.57,-0.44 0.57,-0.44 0.57,-0.43 0.58,-0.42 0.57,-0.4 0.57,-0.4 0.57,-0.38 0.57,-0.37 0.57,-0.36 0.57,-0.34 0.57,-0.32 0.57,-0.31 0.57,-0.3 0.57,-0.28 0.57,-0.26 0.57,-0.25 0.57,-0.23 0.57,-0.22 0.57,-0.21 0.57,-0.19 0.58,-0.18 0.57,-0.16 0.57,-0.16 0.57,-0.14 0.57,-0.13 0.57,-0.11 0.57,-0.11 0.57,-0.1 0.57,-0.09 0.57,-0.09 0.57,-0.07 0.57,-0.07 0.57,-0.06 0.57,-0.05 0.57,-0.05 0.57,-0.05 0.58,-0.04 0.57,-0.03 0.57,-0.03 0.57,-0.03 0.57,-0.03 0.57,-0.02 0.57,-0.02 0.57,-0.01 0.57,-0.02 0.57,-0.01 0.57,-0.01 0.57,-0.01 0.57,-0.01 0.57,-0.01 h 0.57 l 0.57,-0.01 0.57,-0.01 h 0.58 0.57 l 0.57,-0.01 h 0.57 0.57 0.57 0.57 l 0.57,-0.01 h 0.57 0.57 0.57 0.57 0.57 0.57 0.57 0.57 0.58 0.57 0.57 0.57 0.57 0.57 0.57 0.57 0.57 0.57 0.57 0.57 0.57 0.57 0.57 0.57 0.57 0.58 0.57 0.57 0.57 0.57 0.57 0.57 0.57 0.57 0.57 0.57 0.57 0.57 0.57 0.57 0.57 0.58 0.57 0.57 0.57 0.57 0.57 0.57 0.57 0.57 0.57 0.57 0.57 0.57 0.57 0.57 0.57 0.57 0.58 0.57 0.57 0.57 0.57 0.57 0.57 0.57 0.57 0.57 0.57 0.57 0.57 0.57 0.57 0.57 0.58 0.57 0.57 0.57 0.57 0.57 0.57 0.57 0.57 0.57 0.57 0.57 0.57 0.57 0.57 0.57 0.57 0.58 0.57 0.57 0.57 0.57 0.57 0.57 0.57 0.57 0.57 0.57 0.57 0.57 0.57 0.57 0.57 0.58 0.57 0.57 0.57 0.57 0.57 0.57 0.57 0.57 0.57 0.57 0.57 0.57 0.57 0.57 0.57 0.57 0.58 0.57 0.57 0.57 0.57 0.57 0.57 0.57 0.57 0.57 0.57 0.57 0.57 0.57 0.57 0.57 0.58 0.57 0.57 0.57 0.57 0.57 0.57 0.57 0.57 0.57 0.57 v 0 h -0.57 -0.57 -0.57 -0.57 -0.57 -0.57 -0.57 -0.57 -0.57 -0.57 -0.58 -0.57 -0.57 -0.57 -0.57 -0.57 -0.57 -0.57 -0.57 -0.57 -0.57 -0.57 -0.57 -0.57 -0.57 -0.57 -0.58 -0.57 -0.57 -0.57 -0.57 -0.57 -0.57 -0.57 -0.57 -0.57 -0.57 -0.57 -0.57 -0.57 -0.57 -0.57 -0.57 -0.58 -0.57 -0.57 -0.57 -0.57 -0.57 -0.57 -0.57 -0.57 -0.57 -0.57 -0.57 -0.57 -0.57 -0.57 -0.57 -0.58 -0.57 -0.57 -0.57 -0.57 -0.57 -0.57 -0.57 -0.57 -0.57 -0.57 -0.57 -0.57 -0.57 -0.57 -0.57 -0.57 -0.58 -0.57 -0.57 -0.57 -0.57 -0.57 -0.57 -0.57 -0.57 -0.57 -0.57 -0.57 -0.57 -0.57 -0.57 -0.57 -0.58 -0.57 -0.57 -0.57 -0.57 -0.57 -0.57 -0.57 -0.57 -0.57 -0.57 -0.57 -0.57 -0.57 -0.57 -0.57 -0.57 -0.58 -0.57 -0.57 -0.57 -0.57 -0.57 -0.57 -0.57 -0.57 -0.57 -0.57 -0.57 -0.57 -0.57 -0.57 -0.57 -0.58 -0.57 -0.57 -0.57 -0.57 -0.57 -0.57 -0.57 -0.57 -0.57 -0.57 -0.57 -0.57 -0.57 -0.57 -0.57 -0.57 -0.58 -0.57 -0.57 -0.57 -0.57 -0.57 -0.57 -0.57 -0.57 -0.57 -0.57 -0.57 -0.57 -0.57 -0.57 -0.57 -0.58 -0.57 -0.57 -0.57 -0.57 -0.57 -0.57 -0.57 -0.57 -0.57 -0.57 -0.57 -0.57 -0.57 -0.57 -0.57 -0.57 -0.58 -0.57 -0.57 -0.57 -0.57 -0.57 -0.57 -0.57 -0.57 -0.57 -0.57 -0.57 -0.57 -0.57 -0.57 -0.57 -0.58 -0.57 -0.57 -0.57 -0.57 -0.57 -0.57 -0.57 -0.57 -0.57 -0.57 -0.57 -0.57 -0.57 -0.57 -0.57 -0.57 -0.58 -0.57 -0.57 -0.57 -0.57 -0.57 -0.57 -0.57 -0.57 -0.57 -0.57 -0.57 -0.57 -0.57 -0.57 -0.57 -0.57 -0.58 -0.57 -0.57 -0.57 -0.57 -0.57 -0.57 -0.57 -0.57 -0.57 -0.57 -0.57 -0.57 -0.57 -0.57 -0.57 -0.58 -0.57 -0.57 -0.57 -0.57 -0.57 -0.57 -0.57 -0.57 -0.57 -0.57 -0.57 -0.57 -0.57 -0.57 -0.57 -0.57 -0.58 -0.57 -0.57 -0.57 -0.57 -0.57 -0.57 -0.57 -0.57 -0.57 -0.57 -0.57 -0.57 -0.57 -0.57 -0.57 -0.58 -0.57 -0.57 -0.57 -0.57 -0.57 -0.57 -0.57 -0.57 -0.57 -0.57 -0.57 -0.57 -0.57 -0.57 -0.57 -0.57 -0.58 -0.57 -0.57 -0.57 -0.57 -0.57 -0.57 -0.57 -0.57 -0.57 -0.57 -0.57 -0.57 -0.57 -0.57 -0.57 -0.58 -0.57 -0.57 -0.57 -0.57 -0.57 -0.57 -0.57 -0.57 -0.57 -0.57 -0.57 -0.57 -0.57 -0.57 -0.57 -0.57 -0.58 -0.57 -0.57 -0.57 -0.57 -0.57 -0.57 -0.57 -0.57 -0.57 -0.57 -0.57 -0.57 -0.57 -0.57 -0.57 -0.58 -0.57 -0.57 -0.57 -0.57 -0.57 -0.57 -0.57 -0.57 -0.57 -0.57 -0.57 -0.57 -0.57 -0.57 -0.57 -0.57 -0.58 -0.57 -0.57 -0.57 -0.57 -0.57 -0.57 -0.57 -0.57 -0.57 -0.57 -0.57 -0.57 -0.57 -0.57 -0.57 -0.58 -0.57 -0.57 -0.57 -0.57 -0.57 -0.57 -0.57 -0.57 -0.57 -0.57 -0.57 -0.57 -0.57 -0.57 -0.57 -0.57 -0.58 -0.57 -0.57 -0.57 -0.57 -0.57 -0.57 -0.57 -0.57 -0.57 -0.57 -0.57 -0.57 -0.57 -0.57 -0.57 -0.57 -0.58 -0.57 -0.57 -0.57 -0.57 -0.57 -0.57 -0.57 -0.57 -0.57 -0.57 -0.57 -0.57 -0.57 -0.57 -0.57 -0.58 -0.57 -0.57 -0.57 -0.57 -0.57 -0.57 -0.57 -0.57 -0.57 -0.57 -0.57 -0.57 -0.57 -0.57 -0.57 -0.57 -0.58 -0.57 -0.57 -0.57 -0.57 -0.57 -0.57 -0.57 -0.57 -0.57 -0.57 -0.57 -0.57 -0.57 H 100.2 99.63 99.05 98.48 97.91 97.34 96.77 96.2 95.63 95.06 94.49 93.92 93.35 92.78 92.21 91.64 91.07 90.5 89.93 89.35 88.78 88.21 87.64 87.07 86.5 85.93 85.36 84.79 84.22 83.65 83.08 82.51 81.94 81.37 80.8 80.22 79.65 79.08 78.51 77.94 77.37 76.8 76.23 75.66 75.09 74.52 73.95 73.38 72.81 72.24 71.67 71.1 70.52 69.95 69.38 68.81 68.24 Z"
           style="fill:#ff0000;fill-opacity:0.25100002;fill-rule:nonzero;stroke:none"
           id="path66"
           inkscape:connector-curvature="0" /><path
           d="m 68.24,230.73 0.57,3.23 0.57,2.95 0.57,2.67 0.57,2.23 0.58,1.93 0.57,1.62 0.57,1.28 0.57,0.82 0.57,0.5 0.57,0.18 0.57,-0.17 0.57,-0.62 0.57,-0.92 0.57,-1.22 0.57,-1.55 0.57,-1.93 0.57,-2.19 0.57,-2.44 0.57,-2.71 0.57,-3 0.57,-3.2 0.58,-3.37 0.57,-3.56 0.57,-3.74 0.57,-3.85 0.57,-3.96 0.57,-4.05 0.57,-4.12 0.57,-4.15 0.57,-4.18 0.57,-4.19 0.57,-4.16 0.57,-4.13 0.57,-4.08 0.57,-4.02 0.57,-3.92 0.57,-3.84 0.58,-3.75 0.57,-3.63 0.57,-3.5 0.57,-3.38 0.57,-3.27 0.57,-3.12 0.57,-2.97 0.57,-2.85 0.57,-2.73 0.57,-2.57 0.57,-2.44 0.57,-2.32 0.57,-2.21 0.57,-2.06 0.57,-1.95 0.57,-1.85 0.57,-1.76 0.58,-1.63 0.57,-1.55 0.57,-1.47 0.57,-1.4 0.57,-1.31 0.57,-1.24 0.57,-1.19 0.57,-1.13 0.57,-1.07 0.57,-1.03 0.57,-0.99 0.57,-0.96 0.57,-0.91 0.57,-0.88 0.57,-0.86 0.57,-0.83 0.58,-0.81 0.57,-0.79 0.57,-0.77 0.57,-0.75 0.57,-0.73 0.57,-0.72 0.57,-0.71 0.57,-0.7 0.57,-0.67 0.57,-0.67 0.57,-0.66 0.57,-0.64 0.57,-0.64 0.57,-0.62 0.57,-0.61 0.57,-0.61 0.57,-0.59 0.58,-0.59 0.57,-0.57 0.57,-0.57 0.57,-0.57 0.57,-0.55 0.57,-0.56 0.57,-0.54 0.57,-0.55 0.57,-0.54 0.57,-0.54 0.57,-0.54 0.57,-0.53 0.57,-0.54 0.57,-0.54 0.57,-0.55 0.57,-0.55 0.58,-0.55 0.57,-0.55 0.57,-0.56 0.57,-0.57 0.57,-0.57 0.57,-0.58 0.57,-0.58 0.57,-0.59 0.57,-0.59 0.57,-0.6 0.57,-0.6 0.57,-0.61 0.57,-0.61 0.57,-0.61 0.57,-0.61 0.57,-0.61 0.57,-0.6 0.58,-0.61 0.57,-0.59 0.57,-0.59 0.57,-0.58 0.57,-0.57 0.57,-0.56 0.57,-0.54 0.57,-0.53 0.57,-0.51 0.57,-0.49 0.57,-0.46 0.57,-0.45 0.57,-0.42 0.57,-0.39 0.57,-0.36 0.57,-0.34 0.57,-0.31 0.58,-0.27 0.57,-0.23 0.57,-0.21 0.57,-0.17 0.57,-0.13 0.57,-0.09 0.57,-0.06 0.57,-0.03 0.57,0.02 0.57,0.06 0.57,0.09 0.57,0.12 0.57,0.17 0.57,0.21 0.57,0.23 0.57,0.27 0.58,0.32 0.57,0.34 0.57,0.37 0.57,0.4 0.57,0.44 0.57,0.46 0.57,0.48 0.57,0.51 0.57,0.53 0.57,0.55 0.57,0.56 0.57,0.59 0.57,0.59 0.57,0.61 0.57,0.61 0.57,0.62 0.57,0.62 0.58,0.63 0.57,0.62 0.57,0.62 0.57,0.61 0.57,0.6 0.57,0.59 0.57,0.58 0.57,0.56 0.57,0.54 0.57,0.52 0.57,0.5 0.57,0.47 0.57,0.45 0.57,0.42 0.57,0.39 0.57,0.36 0.58,0.32 0.57,0.3 0.57,0.26 0.57,0.21 0.57,0.19 0.57,0.15 0.57,0.11 0.57,0.06 0.57,0.04 h 0.57 l 0.57,-0.05 0.57,-0.09 0.57,-0.12 0.57,-0.15 0.57,-0.2 0.57,-0.23 0.57,-0.27 0.58,-0.29 0.57,-0.34 0.57,-0.36 0.57,-0.39 0.57,-0.42 0.57,-0.44 0.57,-0.47 0.57,-0.49 0.57,-0.51 0.57,-0.53 0.57,-0.54 0.57,-0.55 0.57,-0.57 0.57,-0.57 0.57,-0.57 0.57,-0.58 0.58,-0.58 0.57,-0.57 0.57,-0.57 0.57,-0.56 0.57,-0.55 0.57,-0.53 0.57,-0.51 0.57,-0.5 0.57,-0.48 0.57,-0.45 0.57,-0.43 0.57,-0.41 0.57,-0.37 0.57,-0.34 0.57,-0.31 0.57,-0.29 0.57,-0.25 0.58,-0.2 0.57,-0.18 0.57,-0.14 0.57,-0.11 0.57,-0.07 0.57,-0.04 h 0.57 l 0.57,0.03 0.57,0.06 0.57,0.1 0.57,0.11 0.57,0.15 0.57,0.18 0.57,0.2 0.57,0.22 0.57,0.24 0.58,0.26 0.57,0.27 0.57,0.28 0.57,0.29 0.57,0.3 0.57,0.29 0.57,0.3 0.57,0.3 0.57,0.28 0.57,0.28 0.57,0.27 0.57,0.26 0.57,0.23 0.57,0.22 0.57,0.2 0.57,0.17 0.57,0.14 0.58,0.12 0.57,0.1 0.57,0.06 0.57,0.03 h 0.57 l 0.57,-0.03 0.57,-0.06 0.57,-0.1 0.57,-0.13 0.57,-0.15 0.57,-0.19 0.57,-0.22 0.57,-0.25 0.57,-0.27 0.57,-0.3 0.57,-0.33 0.58,-0.34 0.57,-0.36 0.57,-0.39 0.57,-0.4 0.57,-0.42 0.57,-0.42 0.57,-0.44 0.57,-0.45 0.57,-0.45 0.57,-0.45 0.57,-0.46 0.57,-0.45 0.57,-0.46 0.57,-0.45 0.57,-0.44 0.57,-0.44 0.57,-0.43 0.58,-0.42 0.57,-0.4 0.57,-0.4 0.57,-0.38 0.57,-0.37 0.57,-0.36 0.57,-0.34 0.57,-0.32 0.57,-0.31 0.57,-0.3 0.57,-0.28 0.57,-0.26 0.57,-0.25 0.57,-0.23 0.57,-0.22 0.57,-0.21 0.57,-0.19 0.58,-0.18 0.57,-0.16 0.57,-0.16 0.57,-0.14 0.57,-0.13 0.57,-0.11 0.57,-0.11 0.57,-0.1 0.57,-0.09 0.57,-0.09 0.57,-0.07 0.57,-0.07 0.57,-0.06 0.57,-0.05 0.57,-0.05 0.57,-0.05 0.58,-0.04 0.57,-0.03 0.57,-0.03 0.57,-0.03 0.57,-0.03 0.57,-0.02 0.57,-0.02 0.57,-0.01 0.57,-0.02 0.57,-0.01 0.57,-0.01 0.57,-0.01 0.57,-0.01 0.57,-0.01 h 0.57 l 0.57,-0.01 0.57,-0.01 h 0.58 0.57 l 0.57,-0.01 h 0.57 0.57 0.57 0.57 l 0.57,-0.01 h 0.57 0.57 0.57 0.57 0.57 0.57 0.57 0.57 0.58 0.57 0.57 0.57 0.57 0.57 0.57 0.57 0.57 0.57 0.57 0.57 0.57 0.57 0.57 0.57 0.57 0.58 0.57 0.57 0.57 0.57 0.57 0.57 0.57 0.57 0.57 0.57 0.57 0.57 0.57 0.57 0.57 0.58 0.57 0.57 0.57 0.57 0.57 0.57 0.57 0.57 0.57 0.57 0.57 0.57 0.57 0.57 0.57 0.57 0.58 0.57 0.57 0.57 0.57 0.57 0.57 0.57 0.57 0.57 0.57 0.57 0.57 0.57 0.57 0.57 0.58 0.57 0.57 0.57 0.57 0.57 0.57 0.57 0.57 0.57 0.57 0.57 0.57 0.57 0.57 0.57 0.57 0.58 0.57 0.57 0.57 0.57 0.57 0.57 0.57 0.57 0.57 0.57 0.57 0.57 0.57 0.57 0.57 0.58 0.57 0.57 0.57 0.57 0.57 0.57 0.57 0.57 0.57 0.57 0.57 0.57 0.57 0.57 0.57 0.57 0.58 0.57 0.57 0.57 0.57 0.57 0.57 0.57 0.57 0.57 0.57 0.57 0.57 0.57 0.57 0.57 0.58 0.57 0.57 0.57 0.57 0.57 0.57 0.57 0.57 0.57 0.57"
           style="fill:none;stroke:#000000;stroke-width:1.07000005;stroke-linecap:round;stroke-linejoin:round;stroke-miterlimit:10;stroke-dasharray:none;stroke-opacity:1"
           id="path68"
           inkscape:connector-curvature="0" /><path
           d="m 68.24,178.49 0.57,3.22 0.57,3.13 0.57,3.02 0.57,2.93 0.58,2.84 0.57,2.66 0.57,2.54 0.57,2.42 0.57,2.27 0.57,2.08 0.57,1.94 0.57,1.8 0.57,1.58 0.57,1.4 0.57,1.25 0.57,1.08 0.57,0.83 0.57,0.68 0.57,0.51 0.57,0.28 0.57,0.09 0.58,-0.07 0.57,-0.24 0.57,-0.48 0.57,-0.64 0.57,-0.78 0.57,-0.98 0.57,-1.16 0.57,-1.3 0.57,-1.43 0.57,-1.62 0.57,-1.74 0.57,-1.86 0.57,-1.98 0.57,-2.12 0.57,-2.21 0.57,-2.28 0.58,-2.4 0.57,-2.48 0.57,-2.53 0.57,-2.59 0.57,-2.65 0.57,-2.69 0.57,-2.71 0.57,-2.75 0.57,-2.75 0.57,-2.77 0.57,-2.76 0.57,-2.76 0.57,-2.74 0.57,-2.72 0.57,-2.69 0.57,-2.65 0.57,-2.61 0.58,-2.58 0.57,-2.51 0.57,-2.46 0.57,-2.41 0.57,-2.35 0.57,-2.27 0.57,-2.22 0.57,-2.16 0.57,-2.07 0.57,-1.99 0.57,-1.94 0.57,-1.87 0.57,-1.78 0.57,-1.71 0.57,-1.66 0.57,-1.57 0.58,-1.5 0.57,-1.44 0.57,-1.39 0.57,-1.3 0.57,-1.25 0.57,-1.2 0.57,-1.14 0.57,-1.07 0.57,-1.04 0.57,-0.99 0.57,-0.94 0.57,-0.9 0.57,-0.87 0.57,-0.83 0.57,-0.8 0.57,-0.77 0.57,-0.75 0.58,-0.73 0.57,-0.7 0.57,-0.7 0.57,-0.68 0.57,-0.66 0.57,-0.67 0.57,-0.65 0.57,-0.65 0.57,-0.66 0.57,-0.65 0.57,-0.65 0.57,-0.66 0.57,-0.66 0.57,-0.66 0.57,-0.68 0.57,-0.68 0.58,-0.68 0.57,-0.7 0.57,-0.7 0.57,-0.7 0.57,-0.72 0.57,-0.71 0.57,-0.73 0.57,-0.72 0.57,-0.73 0.57,-0.73 0.57,-0.73 0.57,-0.72 0.57,-0.73 0.57,-0.71 0.57,-0.71 0.57,-0.7 0.57,-0.69 0.58,-0.68 0.57,-0.66 0.57,-0.65 0.57,-0.63 0.57,-0.61 0.57,-0.59 0.57,-0.57 0.57,-0.54 0.57,-0.52 0.57,-0.49 0.57,-0.47 0.57,-0.43 0.57,-0.41 0.57,-0.38 0.57,-0.35 0.57,-0.32 0.57,-0.3 0.58,-0.26 0.57,-0.23 0.57,-0.2 0.57,-0.19 0.57,-0.14 0.57,-0.12 0.57,-0.11 0.57,-0.07 0.57,-0.05 0.57,-0.04 0.57,-0.02 0.57,0.01 0.57,0.02 0.57,0.03 0.57,0.04 0.57,0.06 0.58,0.06 0.57,0.07 0.57,0.07 0.57,0.07 0.57,0.07 0.57,0.08 0.57,0.06 0.57,0.07 0.57,0.05 0.57,0.05 0.57,0.04 0.57,0.02 0.57,0.02 0.57,-0.01 0.57,-0.01 0.57,-0.03 0.57,-0.05 0.58,-0.06 0.57,-0.09 0.57,-0.09 0.57,-0.12 0.57,-0.14 0.57,-0.15 0.57,-0.17 0.57,-0.19 0.57,-0.21 0.57,-0.22 0.57,-0.24 0.57,-0.25 0.57,-0.27 0.57,-0.27 0.57,-0.3 0.57,-0.3 0.58,-0.31 0.57,-0.32 0.57,-0.34 0.57,-0.33 0.57,-0.34 0.57,-0.35 0.57,-0.35 0.57,-0.35 0.57,-0.35 0.57,-0.35 0.57,-0.35 0.57,-0.35 0.57,-0.35 0.57,-0.34 0.57,-0.33 0.57,-0.33 0.57,-0.33 0.58,-0.31 0.57,-0.31 0.57,-0.3 0.57,-0.29 0.57,-0.28 0.57,-0.27 0.57,-0.26 0.57,-0.25 0.57,-0.25 0.57,-0.23 0.57,-0.22 0.57,-0.21 0.57,-0.2 0.57,-0.19 0.57,-0.18 0.57,-0.17 0.58,-0.16 0.57,-0.15 0.57,-0.14 0.57,-0.13 0.57,-0.12 0.57,-0.12 0.57,-0.11 0.57,-0.1 0.57,-0.09 0.57,-0.08 0.57,-0.08 0.57,-0.08 0.57,-0.06 0.57,-0.06 0.57,-0.06 0.57,-0.05 0.57,-0.05 0.58,-0.04 0.57,-0.04 0.57,-0.03 0.57,-0.03 0.57,-0.03 0.57,-0.02 0.57,-0.02 0.57,-0.01 0.57,-0.02 0.57,-0.01 h 0.57 l 0.57,-0.01 h 0.57 0.57 0.57 l 0.57,0.01 0.58,0.01 0.57,0.01 0.57,0.01 0.57,0.02 0.57,0.02 0.57,0.03 0.57,0.02 0.57,0.04 0.57,0.03 0.57,0.04 0.57,0.04 0.57,0.05 0.57,0.05 0.57,0.06 0.57,0.07 0.57,0.07 0.57,0.07 0.58,0.08 0.57,0.09 0.57,0.1 0.57,0.1 0.57,0.11 0.57,0.12 0.57,0.13 0.57,0.14 0.57,0.14 0.57,0.16 0.57,0.16 0.57,0.17 0.57,0.19 0.57,0.19 0.57,0.21 0.57,0.21 0.58,0.23 0.57,0.23 0.57,0.25 0.57,0.26 0.57,0.26 0.57,0.28 0.57,0.28 0.57,0.3 0.57,0.3 0.57,0.31 0.57,0.32 0.57,0.32 0.57,0.33 0.57,0.34 0.57,0.34 0.57,0.34 0.57,0.35 0.58,0.35 0.57,0.35 0.57,0.35 0.57,0.34 0.57,0.35 0.57,0.33 0.57,0.34 0.57,0.32 0.57,0.32 0.57,0.31 0.57,0.3 0.57,0.28 0.57,0.28 0.57,0.26 0.57,0.24 0.57,0.22 0.57,0.21 0.58,0.2 0.57,0.16 0.57,0.15 0.57,0.13 0.57,0.11 0.57,0.08 0.57,0.07 0.57,0.04 0.57,0.01 0.57,-0.01 0.57,-0.02 0.57,-0.06 0.57,-0.08 0.57,-0.09 0.57,-0.12 0.57,-0.14 0.58,-0.17 0.57,-0.18 0.57,-0.2 0.57,-0.22 0.57,-0.23 0.57,-0.25 0.57,-0.27 0.57,-0.28 0.57,-0.3 0.57,-0.3 0.57,-0.32 0.57,-0.32 0.57,-0.33 0.57,-0.34 0.57,-0.34 0.57,-0.34 0.57,-0.35 0.58,-0.35 0.57,-0.35 0.57,-0.35 0.57,-0.34 0.57,-0.34 0.57,-0.34 0.57,-0.34 0.57,-0.32 0.57,-0.32 0.57,-0.32 0.57,-0.3 0.57,-0.3 0.57,-0.29 0.57,-0.28 0.57,-0.27 0.57,-0.26 0.58,-0.25 0.57,-0.24 0.57,-0.23 0.57,-0.22 0.57,-0.21 0.57,-0.19 0.57,-0.19 0.57,-0.18 0.57,-0.17 0.57,-0.16 0.57,-0.15 0.57,-0.14 0.57,-0.13 0.57,-0.12 0.57,-0.12 0.57,-0.1 0.57,-0.1 0.58,-0.09 0.57,-0.09 0.57,-0.08 0.57,-0.07 0.57,-0.07 0.57,-0.06 0.57,-0.06 0.57,-0.05 0.57,-0.05 0.57,-0.04 0.57,-0.04 0.57,-0.04 0.57,-0.03 0.57,-0.03 0.57,-0.02 0.57,-0.03 0.58,-0.02 0.57,-0.02 0.57,-0.02 0.57,-0.01 0.57,-0.02 0.57,-0.01 0.57,-0.01 0.57,-0.01 0.57,-0.01 h 0.57 l 0.57,-0.01 h 0.57 l 0.57,-0.01 h 0.57 l 0.57,-0.01 h 0.57 0.57 0.58 0.57 0.57 0.57 0.57 l 0.57,0.01 h 0.57 0.57 l 0.57,0.01 0.57,0.01 h 0.57 l 0.57,0.01 0.57,0.01 0.57,0.01 0.57,0.01 0.57,0.02 0.58,0.01 0.57,0.02 0.57,0.02 0.57,0.02 0.57,0.02 0.57,0.03 0.57,0.03 0.57,0.03 0.57,0.03 0.57,0.04 0.57,0.04 0.57,0.05 0.57,0.05 0.57,0.06 0.57,0.06 0.57,0.06 0.57,0.08 0.58,0.07 0.57,0.09 0.57,0.09 0.57,0.1 0.57,0.1 0.57,0.12 0.57,0.12 0.57,0.13 0.57,0.13 0.57,0.15 0.57,0.16 0.57,0.16 0.57,0.18 0.57,0.19 0.57,0.19 0.57,0.21 0.58,0.22 0.57,0.23 0.57,0.23 0.57,0.25 0.57,0.26 0.57,0.27 0.57,0.27 0.57,0.29 0.57,0.3 0.57,0.3 0.57,0.31 0.57,0.32 0.57,0.33 0.57,0.33 0.57,0.34 0.57,0.34 0.57,0.34 0.58,0.35 0.57,0.35 0.57,0.35 0.57,0.35 0.57,0.34 0.57,0.34 0.57,0.34 0.57,0.33 0.57,0.33 0.57,0.31 0.57,0.31 0.57,0.3 0.57,0.28 0.57,0.27 0.57,0.26 0.57,0.23 0.58,0.23 0.57,0.2 0.57,0.19 0.57,0.16 0.57,0.15 0.57,0.13 0.57,0.09 0.57,0.08 0.57,0.06 0.57,0.04 0.57,0.01 V 52.24 h -0.57 -0.57 -0.57 -0.57 -0.57 -0.57 -0.57 -0.57 -0.57 -0.57 -0.58 -0.57 -0.57 -0.57 -0.57 -0.57 -0.57 -0.57 -0.57 -0.57 -0.57 -0.57 -0.57 -0.57 -0.57 -0.57 -0.58 -0.57 -0.57 -0.57 -0.57 -0.57 -0.57 -0.57 -0.57 -0.57 -0.57 -0.57 -0.57 -0.57 -0.57 -0.57 -0.57 -0.58 -0.57 -0.57 -0.57 -0.57 -0.57 -0.57 -0.57 -0.57 -0.57 -0.57 -0.57 -0.57 -0.57 -0.57 -0.57 -0.58 -0.57 -0.57 -0.57 -0.57 -0.57 -0.57 -0.57 -0.57 -0.57 -0.57 -0.57 -0.57 -0.57 -0.57 -0.57 -0.57 -0.58 -0.57 -0.57 -0.57 -0.57 -0.57 -0.57 -0.57 -0.57 -0.57 -0.57 -0.57 -0.57 -0.57 -0.57 -0.57 -0.58 -0.57 -0.57 -0.57 -0.57 -0.57 -0.57 -0.57 -0.57 -0.57 -0.57 -0.57 -0.57 -0.57 -0.57 -0.57 -0.57 -0.58 -0.57 -0.57 -0.57 -0.57 -0.57 -0.57 -0.57 -0.57 -0.57 -0.57 -0.57 -0.57 -0.57 -0.57 -0.57 -0.58 -0.57 -0.57 -0.57 -0.57 -0.57 -0.57 -0.57 -0.57 -0.57 -0.57 -0.57 -0.57 -0.57 -0.57 -0.57 -0.57 -0.58 -0.57 -0.57 -0.57 -0.57 -0.57 -0.57 -0.57 -0.57 -0.57 -0.57 -0.57 -0.57 -0.57 -0.57 -0.57 -0.58 -0.57 -0.57 -0.57 -0.57 -0.57 -0.57 -0.57 -0.57 -0.57 -0.57 -0.57 -0.57 -0.57 -0.57 -0.57 -0.57 -0.58 -0.57 -0.57 -0.57 -0.57 -0.57 -0.57 -0.57 -0.57 -0.57 -0.57 -0.57 -0.57 -0.57 -0.57 -0.57 -0.58 -0.57 -0.57 -0.57 -0.57 -0.57 -0.57 -0.57 -0.57 -0.57 -0.57 -0.57 -0.57 -0.57 -0.57 -0.57 -0.57 -0.58 -0.57 -0.57 -0.57 -0.57 -0.57 -0.57 -0.57 -0.57 -0.57 -0.57 -0.57 -0.57 -0.57 -0.57 -0.57 -0.57 -0.58 -0.57 -0.57 -0.57 -0.57 -0.57 -0.57 -0.57 -0.57 -0.57 -0.57 -0.57 -0.57 -0.57 -0.57 -0.57 -0.58 -0.57 -0.57 -0.57 -0.57 -0.57 -0.57 -0.57 -0.57 -0.57 -0.57 -0.57 -0.57 -0.57 -0.57 -0.57 -0.57 -0.58 -0.57 -0.57 -0.57 -0.57 -0.57 -0.57 -0.57 -0.57 -0.57 -0.57 -0.57 -0.57 -0.57 -0.57 -0.57 -0.58 -0.57 -0.57 -0.57 -0.57 -0.57 -0.57 -0.57 -0.57 -0.57 -0.57 -0.57 -0.57 -0.57 -0.57 -0.57 -0.57 -0.58 -0.57 -0.57 -0.57 -0.57 -0.57 -0.57 -0.57 -0.57 -0.57 -0.57 -0.57 -0.57 -0.57 -0.57 -0.57 -0.58 -0.57 -0.57 -0.57 -0.57 -0.57 -0.57 -0.57 -0.57 -0.57 -0.57 -0.57 -0.57 -0.57 -0.57 -0.57 -0.57 -0.58 -0.57 -0.57 -0.57 -0.57 -0.57 -0.57 -0.57 -0.57 -0.57 -0.57 -0.57 -0.57 -0.57 -0.57 -0.57 -0.58 -0.57 -0.57 -0.57 -0.57 -0.57 -0.57 -0.57 -0.57 -0.57 -0.57 -0.57 -0.57 -0.57 -0.57 -0.57 -0.57 -0.58 -0.57 -0.57 -0.57 -0.57 -0.57 -0.57 -0.57 -0.57 -0.57 -0.57 -0.57 -0.57 -0.57 -0.57 -0.57 -0.58 -0.57 -0.57 -0.57 -0.57 -0.57 -0.57 -0.57 -0.57 -0.57 -0.57 -0.57 -0.57 -0.57 -0.57 -0.57 -0.57 -0.58 -0.57 -0.57 -0.57 -0.57 -0.57 -0.57 -0.57 -0.57 -0.57 -0.57 -0.57 -0.57 -0.57 -0.57 -0.57 -0.57 -0.58 -0.57 -0.57 -0.57 -0.57 -0.57 -0.57 -0.57 -0.57 -0.57 -0.57 -0.57 -0.57 -0.57 -0.57 -0.57 -0.58 -0.57 -0.57 -0.57 -0.57 -0.57 -0.57 -0.57 -0.57 -0.57 -0.57 -0.57 -0.57 -0.57 -0.57 -0.57 -0.57 -0.58 -0.57 -0.57 -0.57 -0.57 -0.57 -0.57 -0.57 -0.57 -0.57 -0.57 -0.57 -0.57 -0.57 H 100.2 99.63 99.05 98.48 97.91 97.34 96.77 96.2 95.63 95.06 94.49 93.92 93.35 92.78 92.21 91.64 91.07 90.5 89.93 89.35 88.78 88.21 87.64 87.07 86.5 85.93 85.36 84.79 84.22 83.65 83.08 82.51 81.94 81.37 80.8 80.22 79.65 79.08 78.51 77.94 77.37 76.8 76.23 75.66 75.09 74.52 73.95 73.38 72.81 72.24 71.67 71.1 70.52 69.95 69.38 68.81 68.24 Z"
           style="fill:#0000ff;fill-opacity:0.25100002;fill-rule:nonzero;stroke:none"
           id="path70"
           inkscape:connector-curvature="0" /><path
           d="m 68.24,178.49 0.57,3.22 0.57,3.13 0.57,3.02 0.57,2.93 0.58,2.84 0.57,2.66 0.57,2.54 0.57,2.42 0.57,2.27 0.57,2.08 0.57,1.94 0.57,1.8 0.57,1.58 0.57,1.4 0.57,1.25 0.57,1.08 0.57,0.83 0.57,0.68 0.57,0.51 0.57,0.28 0.57,0.09 0.58,-0.07 0.57,-0.24 0.57,-0.48 0.57,-0.64 0.57,-0.78 0.57,-0.98 0.57,-1.16 0.57,-1.3 0.57,-1.43 0.57,-1.62 0.57,-1.74 0.57,-1.86 0.57,-1.98 0.57,-2.12 0.57,-2.21 0.57,-2.28 0.58,-2.4 0.57,-2.48 0.57,-2.53 0.57,-2.59 0.57,-2.65 0.57,-2.69 0.57,-2.71 0.57,-2.75 0.57,-2.75 0.57,-2.77 0.57,-2.76 0.57,-2.76 0.57,-2.74 0.57,-2.72 0.57,-2.69 0.57,-2.65 0.57,-2.61 0.58,-2.58 0.57,-2.51 0.57,-2.46 0.57,-2.41 0.57,-2.35 0.57,-2.27 0.57,-2.22 0.57,-2.16 0.57,-2.07 0.57,-1.99 0.57,-1.94 0.57,-1.87 0.57,-1.78 0.57,-1.71 0.57,-1.66 0.57,-1.57 0.58,-1.5 0.57,-1.44 0.57,-1.39 0.57,-1.3 0.57,-1.25 0.57,-1.2 0.57,-1.14 0.57,-1.07 0.57,-1.04 0.57,-0.99 0.57,-0.94 0.57,-0.9 0.57,-0.87 0.57,-0.83 0.57,-0.8 0.57,-0.77 0.57,-0.75 0.58,-0.73 0.57,-0.7 0.57,-0.7 0.57,-0.68 0.57,-0.66 0.57,-0.67 0.57,-0.65 0.57,-0.65 0.57,-0.66 0.57,-0.65 0.57,-0.65 0.57,-0.66 0.57,-0.66 0.57,-0.66 0.57,-0.68 0.57,-0.68 0.58,-0.68 0.57,-0.7 0.57,-0.7 0.57,-0.7 0.57,-0.72 0.57,-0.71 0.57,-0.73 0.57,-0.72 0.57,-0.73 0.57,-0.73 0.57,-0.73 0.57,-0.72 0.57,-0.73 0.57,-0.71 0.57,-0.71 0.57,-0.7 0.57,-0.69 0.58,-0.68 0.57,-0.66 0.57,-0.65 0.57,-0.63 0.57,-0.61 0.57,-0.59 0.57,-0.57 0.57,-0.54 0.57,-0.52 0.57,-0.49 0.57,-0.47 0.57,-0.43 0.57,-0.41 0.57,-0.38 0.57,-0.35 0.57,-0.32 0.57,-0.3 0.58,-0.26 0.57,-0.23 0.57,-0.2 0.57,-0.19 0.57,-0.14 0.57,-0.12 0.57,-0.11 0.57,-0.07 0.57,-0.05 0.57,-0.04 0.57,-0.02 0.57,0.01 0.57,0.02 0.57,0.03 0.57,0.04 0.57,0.06 0.58,0.06 0.57,0.07 0.57,0.07 0.57,0.07 0.57,0.07 0.57,0.08 0.57,0.06 0.57,0.07 0.57,0.05 0.57,0.05 0.57,0.04 0.57,0.02 0.57,0.02 0.57,-0.01 0.57,-0.01 0.57,-0.03 0.57,-0.05 0.58,-0.06 0.57,-0.09 0.57,-0.09 0.57,-0.12 0.57,-0.14 0.57,-0.15 0.57,-0.17 0.57,-0.19 0.57,-0.21 0.57,-0.22 0.57,-0.24 0.57,-0.25 0.57,-0.27 0.57,-0.27 0.57,-0.3 0.57,-0.3 0.58,-0.31 0.57,-0.32 0.57,-0.34 0.57,-0.33 0.57,-0.34 0.57,-0.35 0.57,-0.35 0.57,-0.35 0.57,-0.35 0.57,-0.35 0.57,-0.35 0.57,-0.35 0.57,-0.35 0.57,-0.34 0.57,-0.33 0.57,-0.33 0.57,-0.33 0.58,-0.31 0.57,-0.31 0.57,-0.3 0.57,-0.29 0.57,-0.28 0.57,-0.27 0.57,-0.26 0.57,-0.25 0.57,-0.25 0.57,-0.23 0.57,-0.22 0.57,-0.21 0.57,-0.2 0.57,-0.19 0.57,-0.18 0.57,-0.17 0.58,-0.16 0.57,-0.15 0.57,-0.14 0.57,-0.13 0.57,-0.12 0.57,-0.12 0.57,-0.11 0.57,-0.1 0.57,-0.09 0.57,-0.08 0.57,-0.08 0.57,-0.08 0.57,-0.06 0.57,-0.06 0.57,-0.06 0.57,-0.05 0.57,-0.05 0.58,-0.04 0.57,-0.04 0.57,-0.03 0.57,-0.03 0.57,-0.03 0.57,-0.02 0.57,-0.02 0.57,-0.01 0.57,-0.02 0.57,-0.01 h 0.57 l 0.57,-0.01 h 0.57 0.57 0.57 l 0.57,0.01 0.58,0.01 0.57,0.01 0.57,0.01 0.57,0.02 0.57,0.02 0.57,0.03 0.57,0.02 0.57,0.04 0.57,0.03 0.57,0.04 0.57,0.04 0.57,0.05 0.57,0.05 0.57,0.06 0.57,0.07 0.57,0.07 0.57,0.07 0.58,0.08 0.57,0.09 0.57,0.1 0.57,0.1 0.57,0.11 0.57,0.12 0.57,0.13 0.57,0.14 0.57,0.14 0.57,0.16 0.57,0.16 0.57,0.17 0.57,0.19 0.57,0.19 0.57,0.21 0.57,0.21 0.58,0.23 0.57,0.23 0.57,0.25 0.57,0.26 0.57,0.26 0.57,0.28 0.57,0.28 0.57,0.3 0.57,0.3 0.57,0.31 0.57,0.32 0.57,0.32 0.57,0.33 0.57,0.34 0.57,0.34 0.57,0.34 0.57,0.35 0.58,0.35 0.57,0.35 0.57,0.35 0.57,0.34 0.57,0.35 0.57,0.33 0.57,0.34 0.57,0.32 0.57,0.32 0.57,0.31 0.57,0.3 0.57,0.28 0.57,0.28 0.57,0.26 0.57,0.24 0.57,0.22 0.57,0.21 0.58,0.2 0.57,0.16 0.57,0.15 0.57,0.13 0.57,0.11 0.57,0.08 0.57,0.07 0.57,0.04 0.57,0.01 0.57,-0.01 0.57,-0.02 0.57,-0.06 0.57,-0.08 0.57,-0.09 0.57,-0.12 0.57,-0.14 0.58,-0.17 0.57,-0.18 0.57,-0.2 0.57,-0.22 0.57,-0.23 0.57,-0.25 0.57,-0.27 0.57,-0.28 0.57,-0.3 0.57,-0.3 0.57,-0.32 0.57,-0.32 0.57,-0.33 0.57,-0.34 0.57,-0.34 0.57,-0.34 0.57,-0.35 0.58,-0.35 0.57,-0.35 0.57,-0.35 0.57,-0.34 0.57,-0.34 0.57,-0.34 0.57,-0.34 0.57,-0.32 0.57,-0.32 0.57,-0.32 0.57,-0.3 0.57,-0.3 0.57,-0.29 0.57,-0.28 0.57,-0.27 0.57,-0.26 0.58,-0.25 0.57,-0.24 0.57,-0.23 0.57,-0.22 0.57,-0.21 0.57,-0.19 0.57,-0.19 0.57,-0.18 0.57,-0.17 0.57,-0.16 0.57,-0.15 0.57,-0.14 0.57,-0.13 0.57,-0.12 0.57,-0.12 0.57,-0.1 0.57,-0.1 0.58,-0.09 0.57,-0.09 0.57,-0.08 0.57,-0.07 0.57,-0.07 0.57,-0.06 0.57,-0.06 0.57,-0.05 0.57,-0.05 0.57,-0.04 0.57,-0.04 0.57,-0.04 0.57,-0.03 0.57,-0.03 0.57,-0.02 0.57,-0.03 0.58,-0.02 0.57,-0.02 0.57,-0.02 0.57,-0.01 0.57,-0.02 0.57,-0.01 0.57,-0.01 0.57,-0.01 0.57,-0.01 h 0.57 l 0.57,-0.01 h 0.57 l 0.57,-0.01 h 0.57 l 0.57,-0.01 h 0.57 0.57 0.58 0.57 0.57 0.57 0.57 l 0.57,0.01 h 0.57 0.57 l 0.57,0.01 0.57,0.01 h 0.57 l 0.57,0.01 0.57,0.01 0.57,0.01 0.57,0.01 0.57,0.02 0.58,0.01 0.57,0.02 0.57,0.02 0.57,0.02 0.57,0.02 0.57,0.03 0.57,0.03 0.57,0.03 0.57,0.03 0.57,0.04 0.57,0.04 0.57,0.05 0.57,0.05 0.57,0.06 0.57,0.06 0.57,0.06 0.57,0.08 0.58,0.07 0.57,0.09 0.57,0.09 0.57,0.1 0.57,0.1 0.57,0.12 0.57,0.12 0.57,0.13 0.57,0.13 0.57,0.15 0.57,0.16 0.57,0.16 0.57,0.18 0.57,0.19 0.57,0.19 0.57,0.21 0.58,0.22 0.57,0.23 0.57,0.23 0.57,0.25 0.57,0.26 0.57,0.27 0.57,0.27 0.57,0.29 0.57,0.3 0.57,0.3 0.57,0.31 0.57,0.32 0.57,0.33 0.57,0.33 0.57,0.34 0.57,0.34 0.57,0.34 0.58,0.35 0.57,0.35 0.57,0.35 0.57,0.35 0.57,0.34 0.57,0.34 0.57,0.34 0.57,0.33 0.57,0.33 0.57,0.31 0.57,0.31 0.57,0.3 0.57,0.28 0.57,0.27 0.57,0.26 0.57,0.23 0.58,0.23 0.57,0.2 0.57,0.19 0.57,0.16 0.57,0.15 0.57,0.13 0.57,0.09 0.57,0.08 0.57,0.06 0.57,0.04 0.57,0.01"
           style="fill:none;stroke:#000000;stroke-width:1.07000005;stroke-linecap:round;stroke-linejoin:round;stroke-miterlimit:10;stroke-dasharray:none;stroke-opacity:1"
           id="path72"
           inkscape:connector-curvature="0" /><path
           d="M 53.66,42.44 H 374.4 V 257.93 H 53.66 Z"
           style="fill:none;stroke:#333333;stroke-width:1.07000005;stroke-linecap:round;stroke-linejoin:round;stroke-miterlimit:10;stroke-dasharray:none;stroke-opacity:1"
           id="path74"
           inkscape:connector-curvature="0" /></g></g><g
       id="g76" /><g
       id="g78" /><g
       id="g80" /><g
       id="g82" /><g
       id="g84" /><g
       id="g86" /><g
       id="g88" /><g
       id="g90" /><g
       id="g92" /><g
       id="g94" /><g
       id="g96" /><g
       id="g98" /><g
       id="g100" /><g
       id="g102" /><g
       id="g104" /><g
       id="g106"
       transform="translate(1.5)"><text
         transform="matrix(1,0,0,-1,27.33,48.3)"
         style="font-variant:normal;font-weight:normal;font-size:11px;font-family:Arial;-inkscape-font-specification:ArialMT;writing-mode:lr-tb;fill:#000000;fill-opacity:1;fill-rule:nonzero;stroke:none"
         id="text110"><tspan
           x="0 6.1160002 9.1739998 15.29"
           y="0"
           sodipodi:role="line"
           id="tspan108">0.00</tspan></text>
<text
         transform="matrix(1,0,0,-1,27.33,88.86)"
         style="font-variant:normal;font-weight:normal;font-size:11px;font-family:Arial;-inkscape-font-specification:ArialMT;writing-mode:lr-tb;fill:#000000;fill-opacity:1;fill-rule:nonzero;stroke:none"
         id="text114"><tspan
           x="0 6.1160002 9.1739998 15.29"
           y="0"
           sodipodi:role="line"
           id="tspan112">0.01</tspan></text>
<text
         transform="matrix(1,0,0,-1,27.33,129.42)"
         style="font-variant:normal;font-weight:normal;font-size:11px;font-family:Arial;-inkscape-font-specification:ArialMT;writing-mode:lr-tb;fill:#000000;fill-opacity:1;fill-rule:nonzero;stroke:none"
         id="text118"><tspan
           x="0 6.1160002 9.1739998 15.29"
           y="0"
           sodipodi:role="line"
           id="tspan116">0.02</tspan></text>
<text
         transform="matrix(1,0,0,-1,27.33,169.98)"
         style="font-variant:normal;font-weight:normal;font-size:11px;font-family:Arial;-inkscape-font-specification:ArialMT;writing-mode:lr-tb;fill:#000000;fill-opacity:1;fill-rule:nonzero;stroke:none"
         id="text122"><tspan
           x="0 6.1160002 9.1739998 15.29"
           y="0"
           sodipodi:role="line"
           id="tspan120">0.03</tspan></text>
<text
         transform="matrix(1,0,0,-1,27.33,210.53)"
         style="font-variant:normal;font-weight:normal;font-size:11px;font-family:Arial;-inkscape-font-specification:ArialMT;writing-mode:lr-tb;fill:#000000;fill-opacity:1;fill-rule:nonzero;stroke:none"
         id="text126"><tspan
           x="0 6.1160002 9.1739998 15.29"
           y="0"
           sodipodi:role="line"
           id="tspan124">0.04</tspan></text>
<text
         transform="matrix(1,0,0,-1,27.33,251.09)"
         style="font-variant:normal;font-weight:normal;font-size:11px;font-family:Arial;-inkscape-font-specification:ArialMT;writing-mode:lr-tb;fill:#000000;fill-opacity:1;fill-rule:nonzero;stroke:none"
         id="text130"><tspan
           x="0 6.1160002 9.1739998 15.29"
           y="0"
           sodipodi:role="line"
           id="tspan128">0.05</tspan></text>
</g><g
       id="g132" /><g
       id="g134"
       transform="translate(1.5)"><path
         d="m 50.92,52.24 h 2.74"
         style="fill:none;stroke:#333333;stroke-width:1.07000005;stroke-linecap:butt;stroke-linejoin:round;stroke-miterlimit:10;stroke-dasharray:none;stroke-opacity:1"
         id="path136"
         inkscape:connector-curvature="0" /><path
         d="m 50.92,92.8 h 2.74"
         style="fill:none;stroke:#333333;stroke-width:1.07000005;stroke-linecap:butt;stroke-linejoin:round;stroke-miterlimit:10;stroke-dasharray:none;stroke-opacity:1"
         id="path138"
         inkscape:connector-curvature="0" /><path
         d="m 50.92,133.36 h 2.74"
         style="fill:none;stroke:#333333;stroke-width:1.07000005;stroke-linecap:butt;stroke-linejoin:round;stroke-miterlimit:10;stroke-dasharray:none;stroke-opacity:1"
         id="path140"
         inkscape:connector-curvature="0" /><path
         d="m 50.92,173.91 h 2.74"
         style="fill:none;stroke:#333333;stroke-width:1.07000005;stroke-linecap:butt;stroke-linejoin:round;stroke-miterlimit:10;stroke-dasharray:none;stroke-opacity:1"
         id="path142"
         inkscape:connector-curvature="0" /><path
         d="m 50.92,214.47 h 2.74"
         style="fill:none;stroke:#333333;stroke-width:1.07000005;stroke-linecap:butt;stroke-linejoin:round;stroke-miterlimit:10;stroke-dasharray:none;stroke-opacity:1"
         id="path144"
         inkscape:connector-curvature="0" /><path
         d="m 50.92,255.03 h 2.74"
         style="fill:none;stroke:#333333;stroke-width:1.07000005;stroke-linecap:butt;stroke-linejoin:round;stroke-miterlimit:10;stroke-dasharray:none;stroke-opacity:1"
         id="path146"
         inkscape:connector-curvature="0" /></g><g
       id="g148" /><g
       id="g150" /><g
       id="g152" /><g
       id="g154" /><g
       id="g156" /><g
       id="g158" /><g
       id="g160" /><g
       id="g162" /><g
       id="g164" /><g
       id="g166"
       transform="translate(1.5)"><path
         d="m 68.24,39.7 v 2.74"
         style="fill:none;stroke:#333333;stroke-width:1.07000005;stroke-linecap:butt;stroke-linejoin:round;stroke-miterlimit:10;stroke-dasharray:none;stroke-opacity:1"
         id="path168"
         inkscape:connector-curvature="0" /><path
         d="m 127.51,39.7 v 2.74"
         style="fill:none;stroke:#333333;stroke-width:1.07000005;stroke-linecap:butt;stroke-linejoin:round;stroke-miterlimit:10;stroke-dasharray:none;stroke-opacity:1"
         id="path170"
         inkscape:connector-curvature="0" /><path
         d="m 186.77,39.7 v 2.74"
         style="fill:none;stroke:#333333;stroke-width:1.07000005;stroke-linecap:butt;stroke-linejoin:round;stroke-miterlimit:10;stroke-dasharray:none;stroke-opacity:1"
         id="path172"
         inkscape:connector-curvature="0" /><path
         d="m 246.03,39.7 v 2.74"
         style="fill:none;stroke:#333333;stroke-width:1.07000005;stroke-linecap:butt;stroke-linejoin:round;stroke-miterlimit:10;stroke-dasharray:none;stroke-opacity:1"
         id="path174"
         inkscape:connector-curvature="0" /><path
         d="m 305.3,39.7 v 2.74"
         style="fill:none;stroke:#333333;stroke-width:1.07000005;stroke-linecap:butt;stroke-linejoin:round;stroke-miterlimit:10;stroke-dasharray:none;stroke-opacity:1"
         id="path176"
         inkscape:connector-curvature="0" /><path
         d="m 364.56,39.7 v 2.74"
         style="fill:none;stroke:#333333;stroke-width:1.07000005;stroke-linecap:butt;stroke-linejoin:round;stroke-miterlimit:10;stroke-dasharray:none;stroke-opacity:1"
         id="path178"
         inkscape:connector-curvature="0" /></g><g
       id="g180" /><g
       id="g182"
       transform="translate(1.5)"><text
         transform="matrix(1,0,0,-1,65.18,29.64)"
         style="font-variant:normal;font-weight:normal;font-size:11px;font-family:Arial;-inkscape-font-specification:ArialMT;writing-mode:lr-tb;fill:#000000;fill-opacity:1;fill-rule:nonzero;stroke:none"
         id="text186"><tspan
           x="0"
           y="0"
           id="tspan184">0</tspan></text>
<text
         transform="matrix(1,0,0,-1,121.39,29.64)"
         style="font-variant:normal;font-weight:normal;font-size:11px;font-family:Arial;-inkscape-font-specification:ArialMT;writing-mode:lr-tb;fill:#000000;fill-opacity:1;fill-rule:nonzero;stroke:none"
         id="text190"><tspan
           x="0 6.1160002"
           y="0"
           sodipodi:role="line"
           id="tspan188">25</tspan></text>
<text
         transform="matrix(1,0,0,-1,180.65,29.64)"
         style="font-variant:normal;font-weight:normal;font-size:11px;font-family:Arial;-inkscape-font-specification:ArialMT;writing-mode:lr-tb;fill:#000000;fill-opacity:1;fill-rule:nonzero;stroke:none"
         id="text194"><tspan
           x="0 6.1160002"
           y="0"
           sodipodi:role="line"
           id="tspan192">50</tspan></text>
<text
         transform="matrix(1,0,0,-1,239.92,29.64)"
         style="font-variant:normal;font-weight:normal;font-size:11px;font-family:Arial;-inkscape-font-specification:ArialMT;writing-mode:lr-tb;fill:#000000;fill-opacity:1;fill-rule:nonzero;stroke:none"
         id="text198"><tspan
           x="0 6.1160002"
           y="0"
           sodipodi:role="line"
           id="tspan196">75</tspan></text>
<text
         transform="matrix(1,0,0,-1,296.12,29.64)"
         style="font-variant:normal;font-weight:normal;font-size:11px;font-family:Arial;-inkscape-font-specification:ArialMT;writing-mode:lr-tb;fill:#000000;fill-opacity:1;fill-rule:nonzero;stroke:none"
         id="text202"><tspan
           x="0 6.1160002 12.232"
           y="0"
           sodipodi:role="line"
           id="tspan200">100</tspan></text>
<text
         transform="matrix(1,0,0,-1,355.39,29.64)"
         style="font-variant:normal;font-weight:normal;font-size:11px;font-family:Arial;-inkscape-font-specification:ArialMT;writing-mode:lr-tb;fill:#000000;fill-opacity:1;fill-rule:nonzero;stroke:none"
         id="text206"><tspan
           x="0 6.1160002 12.232"
           y="0"
           sodipodi:role="line"
           id="tspan204">125</tspan></text>
</g><g
       id="g208" /><g
       id="g210" /><g
       id="g212" /><g
       id="g214" /><g
       id="g216" /><g
       id="g218"
       transform="translate(1.5)"><text
         transform="matrix(1,0,0,-1,155.65,16.71)"
         style="font-variant:normal;font-weight:normal;font-size:11px;font-family:Arial;-inkscape-font-specification:ArialMT;writing-mode:lr-tb;fill:#000000;fill-opacity:1;fill-rule:nonzero;stroke:none"
         id="text222"><tspan
           x="0 7.9419999 14.058 20.174 25.674 28.115999 31.174 36.674 39.731998 45.848 48.905998 51.964001 59.905998 63.569 66.011002 71.511002 77.626999 81.290001 84.348 92.905998 99.022003 105.138 111.254"
           y="0"
           sodipodi:role="line"
           id="tspan220">Density of Driver Genes</tspan></text>
</g><g
       id="g224" /><g
       id="g226"
       transform="translate(1.5)"><text
         transform="matrix(0,1,1,0,22.28,60.63)"
         style="font-variant:normal;font-weight:normal;font-size:11px;font-family:Arial;-inkscape-font-specification:ArialMT;writing-mode:lr-tb;fill:#000000;fill-opacity:1;fill-rule:nonzero;stroke:none"
         id="text230"><tspan
           x="0 7.9419999 14.058 20.174 25.674 28.115999 31.174 36.674 39.731998 45.848 48.905998 51.964001 61.126999 67.242996 70.301003 76.417 79.474998 81.917 88.032997 94.149002 99.649002 102.707 105.149 111.265 114.323 122.265 125.928 128.37 133.87 139.98599 143.649 146.707 155.265 161.381 167.49699 173.61301"
           y="0"
           sodipodi:role="line"
           id="tspan228">Density of Mutations in Driver Genes</tspan></text>
</g><g
       id="g232" /><g
       id="g234" /><g
       id="g236" /><g
       id="g238" /><g
       id="g240" /><g
       id="g242" /><g
       id="g244" /><g
       id="g246"
       transform="translate(1.5)"><path
         d="m 235.79,173.47 h 116.86 v 61.18 H 235.79 Z"
         style="fill:#ffffff;fill-opacity:1;fill-rule:nonzero;stroke:none"
         id="path248"
         inkscape:connector-curvature="0" /></g><g
       id="g250" /><g
       id="g252" /><g
       id="g254" /><g
       id="g256"
       transform="translate(1.5)"><text
         transform="matrix(1,0,0,-1,241.27,220.14)"
         style="font-variant:normal;font-weight:normal;font-size:11px;font-family:Arial;-inkscape-font-specification:ArialMT;writing-mode:lr-tb;fill:#000000;fill-opacity:1;fill-rule:nonzero;stroke:none"
         id="text260"><tspan
           x="0 7.3369999 13.453 19.569 25.684999 31.801001 34.859001 40.359001 46.474998"
           y="0"
           sodipodi:role="line"
           id="tspan258">Phenotype</tspan></text>
</g><g
       id="g262" /><g
       id="g264" /><g
       id="g266"
       transform="translate(1.5)"><path
         d="m 241.27,196.23 h 17.28 v 17.28 h -17.28 z"
         style="fill:#ffffff;fill-opacity:1;fill-rule:nonzero;stroke:none"
         id="path268"
         inkscape:connector-curvature="0" /></g><g
       id="g270" /><g
       id="g272"
       transform="translate(1.5)"><path
         d="m 241.98,196.94 h 15.86 v 15.86 h -15.86 z"
         style="fill:#ff0000;fill-opacity:0.25100002;fill-rule:nonzero;stroke:#000000;stroke-width:1.07000005;stroke-linecap:square;stroke-linejoin:miter;stroke-miterlimit:10;stroke-dasharray:none;stroke-opacity:1"
         id="path274"
         inkscape:connector-curvature="0" /></g><g
       id="g276" /><g
       id="g278"
       transform="translate(1.5)"><path
         d="m 241.27,178.95 h 17.28 v 17.28 h -17.28 z"
         style="fill:#ffffff;fill-opacity:1;fill-rule:nonzero;stroke:none"
         id="path280"
         inkscape:connector-curvature="0" /></g><g
       id="g282" /><g
       id="g284"
       transform="translate(1.5)"><path
         d="m 241.98,179.66 h 15.86 v 15.86 h -15.86 z"
         style="fill:#0000ff;fill-opacity:0.25100002;fill-rule:nonzero;stroke:#000000;stroke-width:1.07000005;stroke-linecap:square;stroke-linejoin:miter;stroke-miterlimit:10;stroke-dasharray:none;stroke-opacity:1"
         id="path286"
         inkscape:connector-curvature="0" /></g><g
       id="g288" /><g
       id="g290" /><g
       id="g292" /><g
       id="g294"
       transform="translate(1.5)"><text
         transform="matrix(1,0,0,-1,264.03,200.93)"
         style="font-variant:normal;font-weight:normal;font-size:11px;font-family:Arial;-inkscape-font-specification:ArialMT;writing-mode:lr-tb;fill:#000000;fill-opacity:1;fill-rule:nonzero;stroke:none"
         id="text298"><tspan
           x="0 7.3369999 14.674 22.615999 28.732 34.848 37.905998 44.021999 49.521999 51.964001 57.464001 60.521999 68.463997 70.905998 77.022003"
           y="0"
           sodipodi:role="line"
           id="tspan296">PANoptosis High</tspan></text>
</g><g
       id="g300" /><g
       id="g302" /><g
       id="g304" /><g
       id="g306" /><g
       id="g308"
       transform="translate(1.5)"><text
         transform="matrix(1,0,0,-1,264.03,183.65)"
         style="font-variant:normal;font-weight:normal;font-size:11px;font-family:Arial;-inkscape-font-specification:ArialMT;writing-mode:lr-tb;fill:#000000;fill-opacity:1;fill-rule:nonzero;stroke:none"
         id="text312"><tspan
           x="0 7.3369999 14.674 22.615999 28.732 34.848 37.905998 44.021999 49.521999 51.964001 57.464001 60.521999 66.638 72.753998"
           y="0"
           sodipodi:role="line"
           id="tspan310">PANoptosis Low</tspan></text>
</g><g
       id="g314" /><g
       id="g316" /><g
       id="g318" /><g
       id="g320" /><g
       id="g322" /><g
       id="g324" /><g
       id="g326"
       transform="translate(1.5,-3)"><text
         transform="matrix(1,0,0,-1,98.93,265.72)"
         style="font-variant:normal;font-weight:normal;font-size:11px;font-family:Arial;-inkscape-font-specification:ArialMT;writing-mode:lr-tb;fill:#000000;fill-opacity:1;fill-rule:nonzero;stroke:none"
         id="text330"><tspan
           x="0 7.9419999 14.058 16.5 22.924 30.261 36.376999 42.493 48.609001 52.271999 58.388 61.445999 66.945999 73.061996 78.561996 81.620003 84.678001 92.014999 98.439003 103.939 110.055 112.497 118.613 124.729 127.787 130.845 136.961 140.62399 143.68201 149.798 158.356 166.914 169.972 172.414 177.914 180.972 184.03 190.146 193.20399 199.32001 205.436 211.552 217.976 224.092"
           y="0"
           sodipodi:role="line"
           id="tspan328">Chi−Square Test P−value for LGG is: 5.11e−32</tspan></text>
</g><g
       id="g332" /><g
       id="g334" /><g
       id="g336" /><g
       id="g338" /><g
       id="g340" /><g
       id="g342" /></g></svg>